<svg height="512" viewBox="0 0 256 256" width="512" xmlns="http://www.w3.org/2000/svg"><path d="m199.03 215.14v18.52a16.346 16.346 0 0 1 -16.34 16.34h-109.38a16.346 16.346 0 0 1 -16.34-16.34v-18.52z" fill="#afafaf"/><path d="m199.03 22.34v192.8h-142.06v-192.8a16.346 16.346 0 0 1 16.34-16.34h109.38a16.346 16.346 0 0 1 16.34 16.34z" fill="#efefef"/><rect fill="#afafaf" height="16.228" rx="8.114" width="36.677" x="147.263" y="18.594"/><rect fill="#afafaf" height="10.75" rx="5.375" width="24.167" x="115.916" y="227.195"/><path d="m173.25 106.782v44.44h-90.5v-59.5h62.6a18.783 18.783 0 0 0 18.74 17.45 18.551 18.551 0 0 0 9.16-2.39z" fill="#72c1e8"/><path d="m164.09 71.6a18.785 18.785 0 1 0 0 37.57 18.551 18.551 0 0 0 9.16-2.39 18.783 18.783 0 0 0 -9.16-35.18z" fill="#f0c020"/><path d="m151.15 144.145h-4.55a2.5 2.5 0 0 1 0-5h4.551a2.5 2.5 0 0 1 0 5zm-14.551 0h-43.926a2.5 2.5 0 0 1 -2.5-2.5v-31.075a2.5 2.5 0 0 1 5 0v28.575h41.427a2.5 2.5 0 0 1 0 5z" fill="#c5e5ff"/><path d="m184.935 203.83h-9.745a2.5 2.5 0 0 1 0-5h9.745a2.5 2.5 0 0 1 0 5zm-19.745 0h-95.38a2.5 2.5 0 0 1 -2.5-2.5v-174.62a2.5 2.5 0 0 1 5 0v172.12h92.88a2.5 2.5 0 0 1 0 5z" fill="#fff"/><circle cx="199.03" cy="72.34" r="2.5"/><path d="m54.47 22.34v211.32a18.859 18.859 0 0 0 18.84 18.84h109.38a18.859 18.859 0 0 0 18.84-18.84v-151.32a2.5 2.5 0 0 0 -5 0v130.3h-97.5a2.5 2.5 0 1 0 0 5h97.5v16.02a13.883 13.883 0 0 1 -13.84 13.84h-109.38a13.883 13.883 0 0 1 -13.84-13.84v-16.02h19.56a2.5 2.5 0 0 0 0-5h-19.56v-190.3a13.883 13.883 0 0 1 13.84-13.84h109.38a13.883 13.883 0 0 1 13.84 13.84v40a2.5 2.5 0 0 0 5 0v-40a18.859 18.859 0 0 0 -18.84-18.84h-109.38a18.859 18.859 0 0 0 -18.84 18.84z"/><circle cx="89.03" cy="215.14" r="2.5"/><path d="m175.83 16.1h-20.45a10.61 10.61 0 1 0 0 21.219h20.45a10.61 10.61 0 1 0 0-21.219zm0 16.219h-20.45a5.615 5.615 0 1 1 0-11.229h20.45a5.615 5.615 0 0 1 0 11.229z"/><path d="m159.63 24.21h-.8a2.5 2.5 0 1 0 0 5h.8a2.5 2.5 0 0 0 0-5z"/><path d="m172.38 24.21h-.8a2.5 2.5 0 1 0 0 5h.8a2.5 2.5 0 0 0 0-5z"/><path d="m134.707 240.445a7.875 7.875 0 0 0 0-15.75h-13.416a7.875 7.875 0 0 0 0 15.75zm-16.291-7.875a2.878 2.878 0 0 1 2.875-2.875h13.416a2.875 2.875 0 0 1 0 5.75h-13.416a2.878 2.878 0 0 1 -2.875-2.875z"/><path d="m175.75 151.22v-43.034a21.232 21.232 0 0 0 5.723-30.035l2.816-3.1a2.5 2.5 0 0 0 -3.7-3.362l-2.476 2.729a21.229 21.229 0 0 0 -35.251 14.8h-60.112a2.53 2.53 0 0 0 -2.5 2.5v20.44a2.5 2.5 0 0 0 5 0v-15.35l26.65 20.557-26.65 27.658v-12.863a2.5 2.5 0 0 0 -5 0v19.084a2.5 2.5 0 0 0 2.517 2.476h90.462a2.5 2.5 0 0 0 2.521-2.5zm-85.669-57h53.079a21.225 21.225 0 0 0 6.971 12.184l-22.131 17.071zm-1.45 54.5 27.247-28.283 10.6 8.174a2.5 2.5 0 0 0 3.054 0l10.6-8.173 27.246 28.282zm82.119-3.7-26.644-27.657 10.376-8a21.209 21.209 0 0 0 16.268 1.243zm-6.66-38.351a16.285 16.285 0 1 1 10.664-28.56l-10.907 12.017-5.433-4.544a2.5 2.5 0 1 0 -3.207 3.836l7.274 6.083a2.5 2.5 0 0 0 3.455-.237l12.064-13.29a16.251 16.251 0 0 1 -13.912 24.7z"/><circle cx="82.75" cy="122.16" r="2.5"/></svg>