<svg id="Layer_1" height="512" viewBox="0 0 256 256" width="512" xmlns="http://www.w3.org/2000/svg" data-name="Layer 1"><rect fill="#72c2e9" height="180.28" rx="10" width="243.15" x="6.42" y="12.11"/><rect fill="#efefef" height="146.28" rx="5" width="209.15" x="23.42" y="29.11"/><path d="m222.58 167.89h-189.16a2.5 2.5 0 0 1 0-5h186.66v-90.11a2.5 2.5 0 0 1 5 0v92.61a2.5 2.5 0 0 1 -2.5 2.5z" fill="#fff"/><path d="m227.58 29.11h-146.06l11 26.64a10 10 0 0 0 9.24 6.19h130.82v-27.83a5 5 0 0 0 -5-5z" fill="#878787"/><path d="m211 39.8a5.73 5.73 0 1 0 5.72 5.72 5.72 5.72 0 0 0 -5.72-5.72z" fill="#fc5d3d"/><path d="m182.49 39.8a5.73 5.73 0 1 0 5.73 5.72 5.72 5.72 0 0 0 -5.73-5.72z" fill="#f0c020"/><path d="m154 39.8a5.73 5.73 0 1 0 5.73 5.72 5.72 5.72 0 0 0 -5.73-5.72z" fill="#13bf6d"/><path d="m155.97 229.56h-55.94l7.23-30.17 1.68-7h38.12l1.68 7z" fill="#72c2e9"/><path d="m148.74 199.39h-41.48l1.68-7h38.12z" fill="#4ba5c8"/><rect fill="#72c2e9" height="14.33" rx="7.17" width="96.16" x="79.92" y="229.56"/><rect fill="#f0c020" height="32.37" rx="5" width="165.23" x="45.39" y="76.63"/><path d="m66.46 51.4a2.5 2.5 0 0 0 0-5h-20.71a2.5 2.5 0 0 0 0 5z"/><path d="m219.2 45.52a8.23 8.23 0 1 0 -8.2 8.23 8.23 8.23 0 0 0 8.2-8.23zm-11.45 0a3.23 3.23 0 1 1 3.25 3.23 3.23 3.23 0 0 1 -3.25-3.23z"/><path d="m190.72 45.52a8.23 8.23 0 1 0 -8.23 8.23 8.23 8.23 0 0 0 8.23-8.23zm-11.45 0a3.23 3.23 0 1 1 3.22 3.23 3.23 3.23 0 0 1 -3.22-3.23z"/><path d="m162.24 45.52a8.23 8.23 0 1 0 -8.24 8.23 8.23 8.23 0 0 0 8.24-8.23zm-11.45 0a3.23 3.23 0 1 1 3.21 3.23 3.22 3.22 0 0 1 -3.21-3.23z"/><circle cx="122.58" cy="61.94" r="2.5"/><path d="m20.92 170.39a7.52 7.52 0 0 0 7.5 7.5h199.16a7.52 7.52 0 0 0 7.5-7.5v-136.28a7.52 7.52 0 0 0 -7.5-7.5h-199.16a7.52 7.52 0 0 0 -7.5 7.5v57.43a2.5 2.5 0 0 0 5 0v-57.43a2.51 2.51 0 0 1 2.5-2.5h51.43l10.34 25.09a12.45 12.45 0 0 0 11.55 7.74h10.84a2.5 2.5 0 0 0 0-5h-10.84a7.47 7.47 0 0 1 -6.93-4.64l-9.55-23.19h142.32a2.51 2.51 0 0 1 2.5 2.5v25.33h-97.5a2.5 2.5 0 0 0 0 5h97.5v106a2.51 2.51 0 0 1 -2.5 2.5h-199.16a2.51 2.51 0 0 1 -2.5-2.5v-58.9a2.5 2.5 0 0 0 -5 0z"/><circle cx="23.42" cy="101.54" r="2.5"/><circle cx="249.58" cy="131.53" r="2.5"/><path d="m3.92 182.39a12.52 12.52 0 0 0 12.5 12.5h89.35l-7.71 32.17h-11a9.67 9.67 0 1 0 0 19.33h12.11a2.5 2.5 0 1 0 0-5h-12.08a4.67 4.67 0 1 1 0-9.33h81.83a4.67 4.67 0 0 1 0 9.33h-49.74a2.5 2.5 0 0 0 0 5h49.74a9.67 9.67 0 0 0 0-19.33h-11l-7.71-32.17h89.35a12.52 12.52 0 0 0 12.5-12.5v-40.86a2.5 2.5 0 0 0 -5 0v40.86a7.53 7.53 0 0 1 -7.5 7.5h-223.14a7.54 7.54 0 0 1 -7.5-7.5v-160.28a7.54 7.54 0 0 1 7.5-7.5h223.16a7.53 7.53 0 0 1 7.5 7.5v99.42a2.5 2.5 0 0 0 5 0v-99.42a12.52 12.52 0 0 0 -12.5-12.5h-223.16a12.52 12.52 0 0 0 -12.5 12.5zm141.17 12.5 7.71 32.17h-49.6l7.71-32.17z"/><path d="m111.67 243.89a2.5 2.5 0 1 0 -2.49 2.5 2.5 2.5 0 0 0 2.49-2.5z"/><path d="m42.89 104a7.5 7.5 0 0 0 7.5 7.5h155.23a7.51 7.51 0 0 0 7.5-7.5v-22.37a7.51 7.51 0 0 0 -7.5-7.5h-155.23a7.5 7.5 0 0 0 -7.5 7.5zm5-22.37a2.5 2.5 0 0 1 2.5-2.5h155.23a2.51 2.51 0 0 1 2.5 2.5v22.37a2.51 2.51 0 0 1 -2.5 2.5h-155.23a2.5 2.5 0 0 1 -2.5-2.5z"/><path d="m94.3 122.46h-40.62a2.5 2.5 0 1 0 0 5h40.62a2.5 2.5 0 0 0 0-5z"/><path d="m94.3 136.5h-40.62a2.5 2.5 0 0 0 0 5h40.62a2.5 2.5 0 1 0 0-5z"/><path d="m94.3 150.54h-40.62a2.5 2.5 0 0 0 0 5h40.62a2.5 2.5 0 0 0 0-5z"/><path d="m156.61 122.46h-40.61a2.5 2.5 0 0 0 0 5h40.62a2.5 2.5 0 0 0 0-5z"/><path d="m156.61 136.5h-40.61a2.5 2.5 0 0 0 0 5h40.62a2.5 2.5 0 0 0 0-5z"/><path d="m156.61 150.54h-40.61a2.5 2.5 0 1 0 0 5h40.62a2.5 2.5 0 0 0 0-5z"/><path d="m197.75 124.26-23.68-1.8a2.5 2.5 0 0 0 -2.68 2.69l1.8 23.68a2.5 2.5 0 0 0 4.26 1.57l5-5 9.44 9.44a2.5 2.5 0 0 0 3.54 0l8.26-8.27a2.49 2.49 0 0 0 0-3.53l-9.44-9.45 5-5a2.5 2.5 0 0 0 -1.5-4.33zm.68 20.52-4.73 4.73-9.45-9.45a2.5 2.5 0 0 0 -3.53 0l-3 3-1.17-15.35 15.35 1.17-2.95 3a2.49 2.49 0 0 0 0 3.53z"/><path d="m115 102.33a2.5 2.5 0 0 0 2.5-2.5v-.83a2.5 2.5 0 0 0 -5 0v.83a2.5 2.5 0 0 0 2.5 2.5z"/><path d="m128 102.33a2.5 2.5 0 0 0 2.5-2.5v-.83a2.5 2.5 0 0 0 -5 0v.83a2.5 2.5 0 0 0 2.5 2.5z"/><path d="m141 102.33a2.5 2.5 0 0 0 2.5-2.5v-.83a2.5 2.5 0 0 0 -5 0v.83a2.5 2.5 0 0 0 2.5 2.5z"/></svg>