<svg height="512" viewBox="0 0 256 256" width="512" xmlns="http://www.w3.org/2000/svg"><g id="Layer_1"><g><g><g><path d="m240.216 240.5h-224.432c-2.154 0-3.899 1.746-3.899 3.899v5.201c0 2.154 1.746 3.899 3.899 3.899h224.432c2.154 0 3.899-1.746 3.899-3.899v-5.201c0-2.153-1.745-3.899-3.899-3.899z" fill="#5290db"/></g></g><g><g><path d="m169.609 6.162c-3.162-.538-5.636-2.975-6.29-6.057-.001-.14-.282-.138-.281.002-.608 3.092-3.046 5.566-6.199 6.151-.14.001-.139.212.002.281 3.162.538 5.636 2.975 6.29 6.057.001.14.282.138.281-.002.608-3.092 3.046-5.566 6.199-6.151.14-.072.138-.282-.002-.281z" fill="#70d6f9"/></g></g><g><g><path d="m226.8 171.432h-2.3v-2.3c0-1.7-1.4-3.2-3.2-3.2s-3.2 1.4-3.2 3.2v2.3h-2.3c-1.7 0-3.2 1.4-3.2 3.2s1.4 3.2 3.2 3.2h2.3v2.3c0 1.7 1.4 3.2 3.2 3.2s3.2-1.4 3.2-3.2v-2.3h2.3c1.7 0 3.2-1.4 3.2-3.2s-1.4-3.2-3.2-3.2z" fill="#fc657e"/></g></g><g><g><path d="m60.8 73.182c-4.5-.8-8-4.3-8.9-8.7 0-.2-.4-.2-.4 0-.9 4.4-4.4 7.9-8.9 8.7-.2 0-.2.3 0 .4 4.5.8 8 4.3 8.9 8.7 0 .2.4.2.4 0 .9-4.4 4.4-7.9 8.9-8.7.2-.1.2-.4 0-.4z" fill="#f5c84c"/></g></g><g><g><path d="m214.8 202.332c-1.878 0-3.4 1.522-3.4 3.4s1.522 3.4 3.4 3.4 3.4-1.522 3.4-3.4-1.522-3.4-3.4-3.4z" fill="#f5c84c"/></g></g><g><g><path d="m66.8 43.332c-1.878 0-3.4 1.522-3.4 3.4s1.522 3.4 3.4 3.4 3.4-1.522 3.4-3.4-1.522-3.4-3.4-3.4z" fill="#87d147"/></g></g><g><g><path d="m69.899 231.269c.015-1.61 1.37-2.892 2.981-2.892h6.319c-2.333 0-4.224-1.891-4.224-4.224v-48.329l-8.555 2.153c-6.051 1.523-10.408 6.803-10.755 13.033l-1.993 34.359c2.849 1.392 4.828 4.313 4.828 7.682v7.448h20.54c-5.078.001-9.189-4.14-9.141-9.23z" fill="#70d6f9"/></g></g><g><g><path d="m176.96 240.5h26.245l-2.87-49.489c-.347-6.229-4.704-11.51-10.755-13.033l-8.555-2.153v48.329c0 2.333-1.891 4.224-4.224 4.224h6.319c1.61 0 2.965 1.282 2.981 2.892.048 5.089-4.063 9.23-9.141 9.23z" fill="#70d6f9"/></g></g><g><g><path d="m164.123 84.175c-.02-1.025-.841-1.869-1.865-1.899-15.009-.44-22.917-6.388-25.956-9.367-.83-.813-2.169-.727-2.892.182-13.196 16.594-32.662 14.253-39.207 12.883-1.189-.249-2.331.648-2.332 1.863v.025 29.062c0 13.844 7.896 25.927 19.403 31.987h33.45c11.507-6.06 19.403-18.143 19.403-31.987v-32.184c.001-.189-.001-.377-.004-.565z" fill="#f9d0b4"/></g></g><g><g><path d="m161.436 49.211c0-.891.046-1.77.125-2.641-1.692-.453-3.46-.717-5.29-.717-3.85 0-7.449 1.088-10.542 2.943-3.613-6.03-10.195-10.101-17.698-10.101h-10.597c-20.51 0-37.292 16.781-37.292 37.292v16.709c2.581-2.065 5.849-3.307 9.411-3.307.789 0 1.562.067 2.318.184v-1.736c.001-1.215 1.142-2.112 2.332-1.863 6.545 1.37 26.011 3.711 39.207-12.883.723-.909 2.062-.995 2.891-.182 3.039 2.979 10.947 8.927 25.956 9.367 1.024.03 1.845.875 1.865 1.899.004.188.006.376.006.565v4.832c.756-.117 1.529-.184 2.318-.184 4.066 0 7.749 1.617 10.462 4.233v-18.86c-9.195-4.819-15.472-14.449-15.472-25.55z" fill="#754e34"/></g></g><g><g><path d="m166.447 89.389c-.789 0-1.562.067-2.318.184v27.351c0 .815-.037 1.621-.091 2.423.786.127 1.587.21 2.409.21 8.331 0 15.084-6.753 15.084-15.084s-6.754-15.084-15.084-15.084z" fill="#f9d0b4"/></g></g><g><g><path d="m91.872 116.923v-27.351c-.756-.117-1.529-.184-2.318-.184-8.331 0-15.084 6.753-15.084 15.084s6.753 15.084 15.084 15.084c.822 0 1.623-.084 2.409-.21v-.001c-.054-.801-.091-1.607-.091-2.422z" fill="#f9d0b4"/></g></g><g><g><path d="m176.96 240.5h26.245l-1.11-19.141h-21.07v2.794c0 2.333-1.891 4.224-4.224 4.224h6.319c1.61 0 2.965 1.282 2.981 2.892.048 5.09-4.063 9.231-9.141 9.231z" fill="#f9d0b4"/></g></g><g><g><path d="m69.899 231.269c.015-1.61 1.37-2.892 2.981-2.892h6.319c-2.333 0-4.224-1.891-4.224-4.224v-2.794h-21.07l-.233 4.011c2.849 1.392 4.828 4.313 4.828 7.682v7.448h20.54c-5.078 0-9.189-4.141-9.141-9.231z" fill="#f9d0b4"/></g></g><g><g><path d="m140.41 123.578c-1.059-.887-2.635-.748-3.522.31-1.732 2.067-4.676 3.301-7.873 3.301s-6.14-1.234-7.873-3.301c-.887-1.058-2.463-1.197-3.522-.31-1.058.887-1.197 2.464-.31 3.522 2.671 3.187 7.047 5.089 11.705 5.089s9.033-1.902 11.705-5.089c.887-1.058.748-2.635-.31-3.522z"/></g></g><g><g><circle cx="144.006" cy="106.384" r="4.61"/></g></g><g><g><circle cx="113.044" cy="106.384" r="4.61"/></g></g><g><g><path d="m202.832 190.872c-.41-7.362-5.49-13.518-12.641-15.318l-7.6-1.913c-1.339-.337-2.697.476-3.035 1.814-.337 1.339.475 2.698 1.814 3.035l7.6 1.913c5.017 1.263 8.581 5.583 8.87 10.753l2.817 48.577c.077 1.33 1.179 2.355 2.493 2.355.049 0 .098-.001.147-.004 1.378-.08 2.431-1.262 2.351-2.64z"/></g></g><g><g><path d="m76.473 175.447c-.337-1.339-1.694-2.152-3.035-1.814l-7.629 1.92c-7.151 1.8-12.231 7.957-12.64 15.313l-1.942 33.489c-.08 1.378.973 2.561 2.351 2.64.049.003.098.004.147.004 1.314 0 2.417-1.026 2.493-2.355l1.943-33.495c.288-5.165 3.852-9.484 8.869-10.748l7.629-1.92c1.339-.336 2.151-1.695 1.814-3.034z"/></g></g><g><g><path d="m166.622 84.125c-.047-2.369-1.932-4.279-4.292-4.349-14.376-.421-21.768-6.192-24.279-8.654-.9-.881-2.127-1.342-3.388-1.265-1.255.078-2.425.689-3.21 1.676-12.11 15.229-29.725 13.46-36.738 11.992-1.315-.273-2.67.055-3.715.903-1.034.839-1.628 2.081-1.629 3.433v29.063c0 14.132 7.758 27.139 20.248 33.946 1.211.66 2.73.213 3.392-.999.661-1.212.213-2.73-.999-3.392-10.881-5.93-17.64-17.255-17.64-29.556v-28.366c6.872 1.313 26.88 3.34 40.619-13.443 3.809 3.559 12.02 9.083 26.638 9.642v32.167c0 12.3-6.759 23.625-17.64 29.556-1.212.661-1.66 2.179-.999 3.392.454.833 1.312 1.304 2.198 1.304.404 0 .814-.098 1.194-.305 12.489-6.807 20.248-19.814 20.248-33.946v-32.184c-.002-.206-.004-.412-.008-.615z"/></g></g><g><g><g><path d="m161.488 43.95c-4.943-1.15-10.288-.6-14.943 1.583-4.352-5.812-11.248-9.337-18.514-9.337h-10.598c-21.941 0-39.792 17.851-39.792 39.792v15.936c0 1.381 1.119 2.5 2.5 2.5s2.5-1.119 2.5-2.5v-15.938c0-19.184 15.607-34.792 34.792-34.792h10.598c6.31 0 12.27 3.405 15.553 8.886.341.569.894.979 1.537 1.14.642.16 1.325.06 1.893-.281 4.025-2.414 8.891-3.155 13.34-2.12 1.349.314 2.689-.524 3.002-1.868s-.523-2.688-1.868-3.001z"/></g></g><g><g><path d="m176.909 73.083c-1.381 0-2.5 1.119-2.5 2.5v17.329c0 1.381 1.119 2.5 2.5 2.5s2.5-1.119 2.5-2.5v-17.329c0-1.381-1.119-2.5-2.5-2.5z"/></g></g></g><g><g><path d="m166.447 86.889c-.489 0-.972.021-1.45.062-1.376.117-2.396 1.327-2.28 2.703.117 1.376 1.33 2.393 2.703 2.28.338-.029.681-.044 1.027-.044 6.939 0 12.584 5.645 12.584 12.584 0 6.938-5.645 12.583-12.584 12.583-.368 0-.741-.02-1.142-.062-1.372-.141-2.602.855-2.745 2.229-.143 1.373.855 2.602 2.229 2.745.565.059 1.124.088 1.658.088 9.696 0 17.584-7.888 17.584-17.583s-7.888-17.585-17.584-17.585z"/></g></g><g><g><path d="m90.515 117.012c-.317.028-.637.044-.961.044-6.939 0-12.584-5.645-12.584-12.583 0-6.939 5.645-12.584 12.584-12.584.331 0 .659.014.982.041 1.378.119 2.583-.913 2.694-2.289.112-1.376-.913-2.583-2.289-2.694-.458-.037-.92-.057-1.388-.057-9.696 0-17.584 7.888-17.584 17.584s7.888 17.583 17.584 17.583c.476 0 .945-.023 1.41-.065 1.375-.124 2.39-1.339 2.266-2.714-.124-1.376-1.341-2.393-2.714-2.266z"/></g></g><g><g><path d="m200.929 218.859h-19.558c-1.381 0-2.5 1.119-2.5 2.5s1.119 2.5 2.5 2.5h19.558c1.381 0 2.5-1.119 2.5-2.5s-1.119-2.5-2.5-2.5z"/></g></g><g><g><path d="m74.011 218.859h-19.31c-1.381 0-2.5 1.119-2.5 2.5s1.119 2.5 2.5 2.5h19.311c1.381 0 2.5-1.119 2.5-2.5s-1.12-2.5-2.501-2.5z"/></g></g><g><g><path d="m176.801 148.91h-97.602c-2.333 0-4.224 1.891-4.224 4.224v71.019c0 2.333 1.891 4.224 4.224 4.224h97.603c2.333 0 4.224-1.891 4.224-4.224v-71.019c0-2.332-1.892-4.224-4.225-4.224z" fill="#edf4fc"/></g></g><g><g><path d="m183.12 228.377h-110.24c-1.646 0-2.981 1.335-2.981 2.981 0 5.049 4.093 9.141 9.141 9.141h97.92c5.049 0 9.141-4.093 9.141-9.141 0-1.646-1.334-2.981-2.981-2.981z" fill="#dae6f1"/></g></g><g><g><path d="m135.106 186.144h-14.212c-1.381 0-2.5 1.119-2.5 2.5s1.119 2.5 2.5 2.5h14.212c1.381 0 2.5-1.119 2.5-2.5s-1.119-2.5-2.5-2.5z"/></g></g><g><g><g><path d="m176.801 146.41h-97.602c-3.708 0-6.724 3.017-6.724 6.724v71.019c0 3.708 3.017 6.724 6.724 6.724h97.603c3.708 0 6.724-3.017 6.724-6.724v-71.019c-.001-3.707-3.017-6.724-6.725-6.724zm1.724 77.743c0 .951-.773 1.724-1.724 1.724h-97.602c-.951 0-1.724-.773-1.724-1.724v-71.019c0-.951.773-1.724 1.724-1.724h97.603c.951 0 1.724.773 1.724 1.724v71.019z"/></g></g></g><g><g><g><path d="m183.12 225.877h-110.24c-3.022 0-5.481 2.459-5.481 5.481 0 6.419 5.222 11.642 11.641 11.642h97.92c6.419 0 11.641-5.222 11.641-11.642 0-3.022-2.459-5.481-5.481-5.481zm-6.16 12.123h-97.92c-3.662 0-6.641-2.979-6.641-6.642 0-.265.216-.481.481-.481h110.24c.265 0 .481.216.481.481 0 3.663-2.979 6.642-6.641 6.642z"/></g></g></g><g><g><circle cx="190.27" cy="49.211" fill="#b2e26d" r="28.834"/></g></g><g><g><path d="m203.886 41.044c-2.073-2.072-5.432-2.072-7.505 0l-8.515 8.515-4.268-4.268c-2.073-2.072-5.432-2.072-7.505 0-2.072 2.072-2.072 5.433 0 7.505l8.021 8.021c1.036 1.036 2.394 1.554 3.753 1.554 1.358 0 2.716-.518 3.753-1.554l12.267-12.267c2.071-2.074 2.071-5.434-.001-7.506z" fill="#edf4fc"/></g></g><g><g><g><g><path d="m205.653 39.275c-3.043-3.042-7.996-3.043-11.041 0l-6.747 6.747-2.5-2.5c-3.044-3.042-7.997-3.043-11.041 0s-3.044 7.997 0 11.04l8.021 8.021c1.475 1.474 3.436 2.286 5.52 2.286 2.085 0 4.045-.812 5.521-2.287l12.268-12.267c3.043-3.043 3.043-7.995-.001-11.04zm-3.535 7.506-12.267 12.267c-1.06 1.061-2.909 1.061-3.97 0l-8.021-8.021c-1.094-1.095-1.094-2.875 0-3.969.547-.547 1.266-.821 1.985-.821s1.438.273 1.985.82l4.268 4.268c.976.977 2.56.977 3.535 0l8.514-8.514c1.096-1.095 2.876-1.094 3.97-.001 1.095 1.096 1.095 2.877.001 3.971z"/></g></g></g></g><g><g><g><path d="m190.27 17.876c-17.278 0-31.334 14.056-31.334 31.334s14.056 31.334 31.334 31.334 31.334-14.056 31.334-31.334-14.057-31.334-31.334-31.334zm0 57.668c-14.521 0-26.334-11.813-26.334-26.334s11.813-26.334 26.334-26.334 26.334 11.813 26.334 26.334-11.813 26.334-26.334 26.334z"/></g></g></g><g><g><g><path d="m240.216 238h-224.432c-3.529 0-6.399 2.871-6.399 6.399v5.201c0 3.529 2.871 6.399 6.399 6.399h224.432c3.529 0 6.399-2.871 6.399-6.399v-5.201c0-3.528-2.87-6.399-6.399-6.399zm1.399 11.601c0 .771-.628 1.399-1.399 1.399h-224.432c-.771 0-1.399-.628-1.399-1.399v-5.201c0-.771.628-1.399 1.399-1.399h224.432c.771 0 1.399.628 1.399 1.399z"/></g></g></g><g><g><g><g><path d="m49.948 222h-14.896c-6.094 0-11.052 4.958-11.052 11.052v7.448c0 1.381 1.119 2.5 2.5 2.5h32c1.381 0 2.5-1.119 2.5-2.5v-7.448c0-6.094-4.958-11.052-11.052-11.052zm6.052 16h-27v-4.948c0-3.337 2.715-6.052 6.052-6.052h14.896c3.337 0 6.052 2.715 6.052 6.052z"/></g></g></g></g></g></g></svg>