<?xml version="1.0" encoding="iso-8859-1"?>
<!-- Generator: Adobe Illustrator 19.0.0, SVG Export Plug-In . SVG Version: 6.00 Build 0)  -->
<svg version="1.1" id="Layer_1" xmlns="http://www.w3.org/2000/svg" xmlns:xlink="http://www.w3.org/1999/xlink" x="0px" y="0px"
	 viewBox="0 0 512.001 512.001" style="enable-background:new 0 0 512.001 512.001;" xml:space="preserve">
<path style="fill:#FF8800;" d="M63.829,198.326c-25.283,37.175-40.061,82.071-40.061,130.42v35.726
	c0,75.831,61.474,137.303,137.303,137.303h189.857c75.831,0,137.303-61.474,137.303-137.303v-35.726
	c0-48.35-14.777-93.245-40.06-130.42L63.829,198.326L63.829,198.326z"/>
<g>
	<path style="fill:#B35F00;" d="M177.515,246.077c-6.392-7.49-17.931-7.49-24.323,0c-18.41,21.569-48.249,71.14-18.814,71.14h61.951
		C225.763,317.219,195.925,267.647,177.515,246.077z"/>
	<path style="fill:#B35F00;" d="M334.487,246.077c6.392-7.49,17.931-7.49,24.323,0c18.41,21.569,48.249,71.14,18.814,71.14h-61.951
		C286.236,317.219,316.076,267.647,334.487,246.077z"/>
	<path style="fill:#B35F00;" d="M247.722,303.306c4.351-5.097,12.205-5.097,16.556,0c12.531,14.682,32.842,48.423,12.806,48.423
		h-42.169C214.881,351.729,235.19,317.988,247.722,303.306z"/>
	<path style="fill:#B35F00;" d="M315.982,362.88h-25.182v11.155c0,5.646-4.576,10.224-10.224,10.224s-10.224-4.578-10.224-10.224
		V362.88h-28.704v11.155c0,5.646-4.576,10.224-10.224,10.224s-10.224-4.578-10.224-10.224V362.88h-25.182
		c-5.648,0-10.224,4.578-10.224,10.224c0,38.712,31.495,70.206,70.206,70.206s70.206-31.495,70.206-70.206
		C326.206,367.458,321.63,362.88,315.982,362.88z"/>
</g>
<g>
	<path style="fill:#20272E;" d="M448.171,208.553c-4.289,0-8.282-2.718-9.704-7.012L404.776,99.836
		c-11.076-33.433-42.181-55.897-77.4-55.897c-5.648,0-10.224-4.578-10.224-10.224s4.576-10.224,10.224-10.224
		c44.051,0,82.958,28.096,96.811,69.915l33.691,101.705c1.776,5.36-1.13,11.146-6.49,12.921
		C450.321,208.385,449.235,208.553,448.171,208.553z"/>
	<path style="fill:#20272E;" d="M63.829,208.553c-1.065,0-2.148-0.168-3.216-0.521c-5.36-1.775-8.265-7.56-6.49-12.921
		L87.814,93.407c13.853-41.819,52.76-69.915,96.813-69.915c5.648,0,10.224,4.578,10.224,10.224s-4.576,10.224-10.224,10.224
		c-35.22,0-66.325,22.463-77.402,55.897L73.533,201.542C72.111,205.834,68.118,208.553,63.829,208.553z"/>
</g>
<rect x="184.622" y="10.224" style="fill:#00C279;" width="142.744" height="46.984"/>
<g>
	<path style="opacity:0.3;fill:#20272E;enable-background:new    ;" d="M453.722,206.902c3.817-2.467,5.652-7.274,4.155-11.791
		L424.186,93.407c-13.853-41.818-52.758-69.916-96.81-69.916l0,0V10.224h-71.375v46.984h71.375V43.941l0,0
		c35.219,0,66.324,22.463,77.4,55.897l32.626,98.489H256v303.45h94.929c75.83,0,137.303-61.474,137.303-137.303v-35.726
		C488.232,284.055,475.599,242.321,453.722,206.902z"/>
	<path style="fill:#20272E;" d="M457.442,193.801L424.186,93.407c-12.771-38.548-46.834-65.417-86.587-69.387V10.224
		C337.599,4.576,333.021,0,327.375,0h-142.75c-5.647,0-10.224,4.576-10.224,10.224V24.02c-39.755,3.968-73.818,30.838-86.587,69.387
		L54.557,193.805c-26.83,39.969-41.013,86.591-41.013,134.942v35.726c0,81.347,66.181,147.528,147.528,147.528h189.857
		c81.348,0,147.529-66.181,147.529-147.528v-35.726C498.456,280.396,484.275,233.77,457.442,193.801z M194.849,20.448h122.3v26.535
		h-122.3V20.448z M107.225,99.836c9.99-30.156,36.276-51.379,67.176-55.252v12.624c0,5.648,4.578,10.224,10.224,10.224h142.748
		c5.647,0,10.224-4.576,10.224-10.224V44.585c30.9,3.873,57.186,25.097,67.177,55.252l29.237,88.265H77.986L107.225,99.836z
		 M478.008,364.472c0,70.072-57.008,127.079-127.081,127.079H161.07c-70.072,0-127.079-57.006-127.079-127.079v-35.726
		c0-42.927,12.197-84.366,35.325-120.196h373.366c23.129,35.83,35.325,77.269,35.325,120.196V364.472z"/>
</g>
<g>
</g>
<g>
</g>
<g>
</g>
<g>
</g>
<g>
</g>
<g>
</g>
<g>
</g>
<g>
</g>
<g>
</g>
<g>
</g>
<g>
</g>
<g>
</g>
<g>
</g>
<g>
</g>
<g>
</g>
</svg>
