<?xml version="1.0" encoding="iso-8859-1"?>
<!-- Generator: Adobe Illustrator 19.0.0, SVG Export Plug-In . SVG Version: 6.00 Build 0)  -->
<svg version="1.1" id="Layer_1" xmlns="http://www.w3.org/2000/svg" xmlns:xlink="http://www.w3.org/1999/xlink" x="0px" y="0px"
	 viewBox="0 0 511.999 511.999" style="enable-background:new 0 0 511.999 511.999;" xml:space="preserve">
<g>
	<path style="fill:#5A595C;" d="M121.097,103.999c0,0-11.732,54.628,21.417,82.815l60.194-79.624
		C169.017,84.037,121.097,103.999,121.097,103.999z"/>
	<path style="fill:#5A595C;" d="M390.904,103.999c0,0-47.922-19.962-81.61,3.191l60.194,79.624
		C402.636,158.626,390.904,103.999,390.904,103.999z"/>
	<path style="fill:#5A595C;" d="M147.904,245.275H76.065c-37.462,0-67.83,30.368-67.83,67.83v71.909
		c0-27.538,22.325-49.863,49.863-49.863s49.863,22.325,49.863,49.863c0-27.538,22.325-49.863,49.863-49.863
		c1.067,0,2.124,0.045,3.173,0.111l56.57-89.985h-69.665V245.275z"/>
	<path style="fill:#5A595C;" d="M364.097,245.275h71.839c37.462,0,67.83,30.368,67.83,67.83v71.909
		c0-27.538-22.325-49.863-49.863-49.863s-49.863,22.325-49.863,49.863c0-27.538-22.325-49.863-49.863-49.863
		c-1.067,0-2.124,0.045-3.173,0.111l-56.57-89.985h69.665V245.275z"/>
</g>
<g>
	<path style="fill:#4C4B4F;" d="M256.001,94.22L256.001,94.22c-63.964,0-115.818,51.854-115.818,115.817l0,0
		c0,46.458,37.661,84.121,84.121,84.121h63.395c46.458,0,84.121-37.663,84.121-84.121l0,0
		C371.818,146.073,319.965,94.22,256.001,94.22z"/>
	<path style="fill:#4C4B4F;" d="M324.466,285.71L324.466,285.71H187.534l0,0l0,0c-16.168,12.051-26.64,31.32-26.64,53.035l0,0
		c0,43.649,35.385,79.034,79.034,79.034h32.145c43.649,0,79.034-35.385,79.034-79.034l0,0
		C351.107,317.029,340.635,297.762,324.466,285.71z"/>
</g>
<g>
	<path style="opacity:0.3;fill:#20272E;enable-background:new    ;" d="M176.547,296.031c14.151,7.892,30.434,12.402,47.755,12.402
		h63.396c17.321,0,33.604-4.51,47.755-12.402c-3.257-3.842-6.944-7.308-10.987-10.322c-6.943,3.38-14.419,5.835-22.269,7.201
		c-3.14,0.547-6.34,0.919-9.589,1.106c-1.625,0.093-3.262,0.142-4.911,0.142l0,0h-63.395l0,0c-2.472,0-4.919-0.107-7.338-0.316
		c-0.806-0.069-1.609-0.15-2.408-0.244c-3.396-0.392-6.728-0.994-9.988-1.778c-1.13-0.272-2.252-0.568-3.363-0.885
		c-0.389-0.111-0.776-0.224-1.163-0.34c-4.325-1.302-8.507-2.937-12.509-4.885C183.491,288.723,179.804,292.189,176.547,296.031z"/>
	<path style="opacity:0.3;fill:#20272E;enable-background:new    ;" d="M435.936,245.275h-71.839h-0.016
		c4.954-10.721,7.738-22.651,7.738-35.237l0,0c0-7.954-0.803-15.72-2.33-23.224c33.148-28.187,21.417-82.815,21.417-82.815
		s-47.922-19.962-81.61,3.191l0,0c-15.954-8.284-34.076-12.97-53.295-12.97v323.56h16.072c43.649,0,79.034-35.385,79.034-79.034l0,0
		c0-1.171-0.045-2.33-0.104-3.485c1.051-0.066,2.106-0.111,3.173-0.111c27.538,0,49.863,22.325,49.863,49.863
		c0-27.538,22.325-49.863,49.863-49.863s49.863,22.325,49.863,49.863v-71.909C503.764,275.643,473.396,245.275,435.936,245.275z"/>
	<circle style="fill:#20272E;" cx="200.32" cy="189.877" r="12.272"/>
	<circle style="fill:#20272E;" cx="311.686" cy="189.877" r="12.272"/>
	<path style="fill:#20272E;" d="M256.001,246.683c23.006,0,41.654-18.65,41.654-41.654h-83.308
		C214.347,228.033,232.995,246.683,256.001,246.683z"/>
	<path style="fill:#20272E;" d="M435.936,237.039h-59.918c2.618-8.545,4.036-17.611,4.036-27.003c0-6.887-0.573-13.642-1.658-20.226
		c32.105-31.609,21.064-85.197,20.561-87.541c-0.568-2.64-2.393-4.835-4.885-5.874c-0.847-0.352-20.995-8.63-45.001-8.63
		c-15.381,0-28.907,3.373-40.297,10.02c-16.023-7.563-33.912-11.802-52.774-11.802s-36.75,4.239-52.773,11.802
		c-11.39-6.647-24.916-10.02-40.296-10.02c-24.009,0-44.155,8.278-45.001,8.63c-2.493,1.039-4.318,3.233-4.885,5.874
		c-0.503,2.343-11.545,55.932,20.56,87.541c-1.085,6.585-1.658,13.339-1.658,20.227c0,9.392,1.419,18.456,4.036,27.001h-59.92
		C34.122,237.039,0,271.162,0,313.104v71.908c0,4.549,3.687,8.235,8.235,8.235s8.235-3.686,8.235-8.235
		c0-22.953,18.674-41.628,41.628-41.628c22.953,0,41.628,18.675,41.628,41.628c0,4.549,3.687,8.235,8.235,8.235
		s8.235-3.686,8.235-8.235c0-21.254,16.015-38.828,36.611-41.315c2.577,45.824,40.661,82.319,87.119,82.319h32.145
		c46.458,0,84.542-36.494,87.119-82.319c20.595,2.487,36.611,20.061,36.611,41.315c0,4.549,3.687,8.235,8.235,8.235
		s8.236-3.686,8.236-8.235c0-22.953,18.674-41.628,41.628-41.628c22.954,0,41.628,18.675,41.628,41.628
		c0,4.549,3.687,8.235,8.235,8.235s8.235-3.686,8.235-8.235v-71.908C512,271.162,477.878,237.039,435.936,237.039z M349.07,104.237
		c14.695,0,28.015,3.711,34.506,5.865c1.494,10.749,3.718,39.081-10.11,59.907c-8.577-25.316-25.06-47.059-47.178-62.221
		C333.078,105.427,340.696,104.237,349.07,104.237z M363.582,210.037c0,30.761-20.501,60.343-49.472,71.135
		c-17.199,6.407-36.113,4.749-54.154,4.749c-11.884,0-23.769,0-35.653,0c-40.852,0-75.885-34.888-75.885-75.885
		c0-59.321,48.261-107.582,107.583-107.582C315.321,102.454,363.582,150.715,363.582,210.037z M128.437,110.098
		c6.499-2.156,19.809-5.86,34.493-5.86c8.374,0,15.991,1.19,22.782,3.55c-22.114,15.159-38.594,36.894-47.172,62.203
		C124.794,149.206,126.968,120.848,128.437,110.098z M107.962,355.219c-10.161-16.943-28.71-28.306-49.863-28.306
		c-16.307,0-31.066,6.752-41.628,17.609v-31.418c0-32.861,26.733-59.593,59.593-59.593h66.759
		c7.287,13.651,17.835,25.187,30.648,33.639c-10.243,10.609-17.069,23.999-19.643,38.551c-0.009,0.048-0.018,0.097-0.026,0.146
		c-0.071,0.407-0.152,0.811-0.216,1.221C134.21,328.47,117.438,339.419,107.962,355.219z M272.073,409.545h-32.146
		c-39.038,0-70.799-31.76-70.799-70.8c0-0.967,0.03-1.929,0.076-2.887c0.004-0.057,0.014-0.113,0.018-0.17
		c0.814-15.643,7.872-30.116,19.547-40.386c9.713,4.065,19.934,6.387,30.497,6.949c0.104,0.005,0.206,0.018,0.311,0.023
		c1.568,0.078,3.144,0.12,4.726,0.12h63.395c1.582,0,3.158-0.042,4.726-0.12c0.104-0.005,0.206-0.018,0.311-0.023
		c10.561-0.561,20.782-2.884,30.497-6.947c11.675,10.269,18.733,24.74,19.547,40.385c0.003,0.057,0.013,0.113,0.018,0.17
		c0.046,0.959,0.076,1.919,0.076,2.887C342.871,377.784,311.111,409.545,272.073,409.545z M495.529,344.522
		c-10.562-10.857-25.32-17.609-41.628-17.609c-21.152,0-39.702,11.364-49.863,28.306c-9.476-15.801-26.248-26.749-45.623-28.153
		c-0.065-0.407-0.145-0.811-0.216-1.217c-0.009-0.051-0.018-0.102-0.027-0.153c-2.574-14.55-9.399-27.938-19.642-38.546
		c12.811-8.447,23.357-19.983,30.648-33.64h66.758c32.86,0,59.593,26.733,59.593,59.593v31.419H495.529z"/>
</g>
<g>
</g>
<g>
</g>
<g>
</g>
<g>
</g>
<g>
</g>
<g>
</g>
<g>
</g>
<g>
</g>
<g>
</g>
<g>
</g>
<g>
</g>
<g>
</g>
<g>
</g>
<g>
</g>
<g>
</g>
</svg>
