<?xml version="1.0" encoding="iso-8859-1"?>
<!-- Generator: Adobe Illustrator 19.0.0, SVG Export Plug-In . SVG Version: 6.00 Build 0)  -->
<svg version="1.1" id="Layer_1" xmlns="http://www.w3.org/2000/svg" xmlns:xlink="http://www.w3.org/1999/xlink" x="0px" y="0px"
	 viewBox="0 0 511.999 511.999" style="enable-background:new 0 0 511.999 511.999;" xml:space="preserve">
<path style="fill:#4C4B4F;" d="M384.59,375.547h-62.174v69.886c0,18.559,15.046,33.605,33.605,33.605s33.605-15.046,33.605-33.605
	v-70.023C387.958,375.499,386.28,375.547,384.59,375.547z"/>
<path style="fill:#5A595C;" d="M69.904,193.547c-23.808-39.222-23.386-88.296,1.746-127.389c6.435-10.008,3.537-23.338-6.473-29.771
	c-10.011-6.436-23.337-3.537-29.771,6.472C17.678,70.437,8.717,102.339,9.492,135.115c0.776,32.776,11.236,64.218,30.248,90.927
	l10.386,14.59C54.114,223.698,60.875,207.836,69.904,193.547z"/>
<g>
	<path style="fill:#4C4B4F;" d="M349.053,164.2L349.053,164.2c-71.71,0-129.844,58.133-129.844,129.843l0,0
		c0,52.084,42.222,94.307,94.307,94.307h71.072c52.084,0,94.307-42.223,94.307-94.307l0,0
		C478.896,222.332,420.764,164.2,349.053,164.2z"/>
	<path style="fill:#4C4B4F;" d="M308.12,170.914c-28.346-30.605-68.868-49.771-113.874-49.771l0,0
		c-85.706,0-155.186,69.479-155.186,155.186V388.35v57.082c0,18.559,15.046,33.605,33.605,33.605s33.605-15.046,33.605-33.605
		V388.35h94.071v57.082c0,18.559,15.046,33.605,33.605,33.605c18.56,0,33.605-15.046,33.605-33.605V388.35h46.345L308.12,170.914z"
		/>
</g>
<path style="fill:#5A595C;" d="M500.294,175.164c0,0-53.725-22.379-91.493,3.577l0,0c-17.886-9.287-38.203-14.541-59.748-14.541
	s-41.861,5.254-59.748,14.541l0,0c-37.768-25.956-91.493-3.577-91.493-3.577s-13.152,61.243,24.01,92.844
	c-1.712,8.412-2.612,17.119-2.612,26.036l0,0c0,52.084,42.222,94.307,94.307,94.307h71.072c52.084,0,94.307-42.223,94.307-94.307
	l0,0c0-8.918-0.9-17.624-2.612-26.035C513.446,236.407,500.294,175.164,500.294,175.164z"/>
<g>
	<path style="opacity:0.3;fill:#20272E;enable-background:new    ;" d="M500.294,175.164c0,0-53.725-22.379-91.493,3.577l0,0
		c-17.886-9.287-38.203-14.541-59.748-14.541v224.15h35.536c52.084,0,94.307-42.223,94.307-94.307l0,0
		c0-8.918-0.9-17.624-2.612-26.035C513.446,236.407,500.294,175.164,500.294,175.164z"/>
	<path style="fill:#20272E;" d="M307.491,280.533c4.363,0,8.244-3.107,9.068-7.551c0.929-5.014-2.382-9.832-7.395-10.762
		l-40.521-7.512c-5.015-0.925-9.831,2.383-10.762,7.395c-0.929,5.014,2.382,9.832,7.395,10.762l40.521,7.512
		C306.367,280.483,306.932,280.533,307.491,280.533z"/>
	<path style="fill:#20272E;" d="M429.038,254.71l-40.521,7.512c-5.014,0.929-8.324,5.748-7.395,10.762
		c0.824,4.445,4.704,7.551,9.068,7.551c0.558,0,1.125-0.052,1.693-0.156l40.521-7.512c5.014-0.929,8.324-5.748,7.395-10.762
		C438.87,257.091,434.055,253.779,429.038,254.71z"/>
	<circle style="fill:#20272E;" cx="286.413" cy="293.603" r="13.758"/>
	<circle style="fill:#20272E;" cx="411.265" cy="293.603" r="13.758"/>
	<path style="fill:#20272E;" d="M348.84,369.597c25.79,0,46.698-20.908,46.698-46.698h-93.396
		C302.142,348.689,323.05,369.597,348.84,369.597z"/>
	<path style="fill:#20272E;" d="M348.84,314.838c11.2,0,20.279-4.738,20.279-10.582c0-5.845-40.558-5.845-40.558,0
		S337.64,314.838,348.84,314.838z"/>
	<path style="fill:#20272E;" d="M509.108,173.225c-0.159-0.74-0.406-1.449-0.731-2.114c-0.975-1.996-2.65-3.597-4.746-4.471
		c-0.623-0.259-10.565-4.344-24.932-7.123c-7.527-1.455-16.267-2.552-25.518-2.552c-3.23,0-6.388,0.133-9.47,0.396
		c-13.357,1.145-25.308,4.763-35.677,10.806c-1.541,0.899-17.185-6.741-19.823-7.518c-6.47-1.903-13.08-3.342-19.758-4.289
		c-16.582-2.351-33.584-1.694-49.931,1.954c-0.058,0.012-0.116,0.027-0.174,0.041c-2.62,0.587-5.226,1.234-7.811,1.973
		c-1.397,0.4-17.103-14.923-19.633-16.752c-7.458-5.391-15.379-10.138-23.642-14.186c-16.333-8.005-33.988-13.264-52.025-15.596
		c-36.327-4.695-73.948,2.662-105.482,21.413c-15.542,9.243-29.524,21.109-41.213,34.902c-12.161-32.464-8.455-69.223,10.662-98.959
		c4.445-6.915,5.932-15.148,4.186-23.179c-1.746-8.033-6.517-14.905-13.432-19.351c-4.977-3.201-10.726-4.892-16.623-4.892
		c-10.532,0-20.216,5.285-25.907,14.136c-18.732,29.139-28.199,62.842-27.38,97.47c0.82,34.627,11.87,67.844,31.957,96.063
		l2.777,3.901c-7.727,30.079-5.168,62.23-5.168,93.074c0,28.336,0,56.671,0,85.007c0,10.685,0,21.371,0,32.055
		c0,23.621,19.217,42.838,42.838,42.838s42.838-19.216,42.838-42.838v-47.849h75.605v47.849c0,23.621,19.217,42.838,42.838,42.838
		s42.838-19.216,42.838-42.838v-47.849h36.399v47.849c0,23.621,19.216,42.838,42.838,42.838s42.838-19.216,42.838-42.838
		c0,0,0-48.828,0-48.824c0.025,0.176,24.608-6.697,27.018-7.645c14.431-5.675,27.425-16.273,37.197-28.166
		c10.072-12.259,17.237-26.8,21.163-42.154c1.996-7.806,3.159-15.823,3.481-23.872c0.127-3.158-2.826-22.038-1.433-23.411
		C510.926,246.885,516.182,206.145,509.108,173.225z M42.164,213.35c-14.828-23.542-22.992-50.476-23.654-78.454
		c-0.731-30.924,7.722-61.024,24.45-87.044c2.277-3.542,6.155-5.657,10.374-5.657c2.35,0,4.645,0.677,6.638,1.959
		c2.767,1.778,4.674,4.528,5.373,7.741c0.698,3.212,0.103,6.505-1.674,9.271c-24.427,37.997-27.259,85.834-7.818,126.154
		C50.549,195.525,45.959,204.232,42.164,213.35z M258.106,388.352v57.082c0,13.439-10.933,24.372-24.372,24.372
		s-24.372-10.933-24.372-24.372v-57.082c0-5.1-4.134-9.233-9.233-9.233h-94.07c-5.099,0-9.233,4.133-9.233,9.233v57.082
		c0,13.439-10.933,24.372-24.372,24.372s-24.372-10.933-24.372-24.372V276.329c0-1.534,0.032-3.065,0.08-4.594
		c0.014-0.442,0.033-0.884,0.05-1.325c0.047-1.163,0.107-2.325,0.181-3.485c0.026-0.414,0.049-0.828,0.079-1.241
		c0.107-1.485,0.234-2.967,0.387-4.445c0.038-0.364,0.085-0.726,0.126-1.089c0.124-1.121,0.261-2.241,0.41-3.357
		c0.078-0.579,0.159-1.157,0.244-1.735c0.138-0.941,0.288-1.88,0.444-2.817c0.116-0.692,0.229-1.384,0.353-2.072
		c0.207-1.145,0.428-2.286,0.664-3.426c0.174-0.841,0.359-1.677,0.548-2.511c0.113-0.506,0.23-1.011,0.35-1.515
		c9.298-39.295,34.524-72.496,68.459-92.389c0.478-0.278,0.952-0.56,1.433-0.833c0.503-0.287,1.011-0.568,1.518-0.849
		c0.811-0.449,1.625-0.894,2.445-1.327c0.283-0.15,0.565-0.3,0.848-0.448c16.585-8.631,34.816-14.082,53.751-15.855
		c0.192-0.018,0.385-0.034,0.577-0.052c1.167-0.105,2.337-0.192,3.507-0.268c0.336-0.022,0.671-0.044,1.007-0.064
		c1.071-0.063,2.143-0.11,3.218-0.148c0.362-0.012,0.721-0.031,1.083-0.042c1.395-0.041,2.793-0.064,4.193-0.064
		c13.911,0,27.649,2.013,40.809,5.861c20.76,6.07,40.073,16.717,56.358,31.227c-0.517,0.235-1.039,0.462-1.554,0.704
		c-10.369-6.043-22.32-9.662-35.677-10.806c-3.083-0.265-6.24-0.396-9.47-0.396c-26.917,0-49.503,9.281-50.452,9.676
		c-2.794,1.163-4.84,3.623-5.477,6.584c-0.564,2.628-12.947,62.7,23.035,98.137c1.575,1.55-1.934,23.002-1.743,27.013
		c0.457,9.603,2.302,19.134,5.37,28.244c7.683,22.814,23.721,43.333,44.333,55.899c0.142,0.086,0.287,0.166,0.428,0.252
		C258.816,384.321,258.106,386.251,258.106,388.352z M380.181,445.434c0,13.439-10.933,24.372-24.372,24.372
		s-24.372-10.933-24.372-24.372v-47.849h48.745v47.849H380.181z M470.09,260.973c-0.961,0.817-1.727,1.806-2.273,2.897
		c-0.911,1.818-1.213,3.918-0.794,5.979c1.007,4.945,1.704,9.98,2.084,15.047c0.229,3.041,0.343,6.094,0.343,9.147
		c0,1.444-0.038,2.879-0.11,4.306c-0.018,0.369-0.058,0.734-0.081,1.102c-0.066,1.061-0.137,2.122-0.242,3.172
		c-0.036,0.358-0.09,0.71-0.13,1.067c-0.121,1.061-0.245,2.121-0.404,3.17c-0.044,0.295-0.103,0.586-0.151,0.88
		c-0.181,1.11-0.371,2.218-0.593,3.315c-0.043,0.211-0.095,0.417-0.139,0.627c-0.25,1.183-0.517,2.361-0.816,3.526
		c-0.028,0.11-0.06,0.217-0.089,0.326c-0.332,1.27-0.687,2.531-1.075,3.777c0,0.001-0.001,0.002-0.001,0.004
		c-9.953,31.929-38.251,55.844-72.502,59.355c-1.056,0.107-2.124,0.177-3.192,0.246c-1.837,0.119-3.682,0.201-5.548,0.201h-62.174
		h-8.899c-46.91,0-85.075-38.165-85.075-85.075c0-8.141,0.816-16.282,2.428-24.194c0.67-3.297-0.505-6.696-3.067-8.876
		c-26.774-22.766-23.71-64.722-21.759-78.982c6.799-2.265,20.279-6.049,35.584-6.513c1.021-0.031,2.048-0.047,3.084-0.047
		c5.841,0,11.355,0.517,16.521,1.545c8.61,1.714,16.253,4.847,22.842,9.374c1.405,0.966,3.02,1.506,4.661,1.606
		c0.821,0.05,1.648-0.009,2.46-0.178c0.811-0.17,1.606-0.451,2.364-0.843c5.546-2.879,11.239-5.296,17.061-7.259
		c0.111-0.032,0.224-0.048,0.335-0.085c9.17-3.053,18.644-4.978,28.273-5.759c0.111-0.009,0.222-0.016,0.332-0.025
		c1.347-0.106,2.697-0.182,4.05-0.243c0.32-0.014,0.64-0.031,0.961-0.042c1.491-0.054,2.985-0.09,4.482-0.09
		c19.569,0,38.239,4.543,55.493,13.502c1.513,0.785,3.181,1.121,4.822,1.021c1.642-0.101,3.256-0.64,4.662-1.606
		c10.541-7.245,23.786-10.918,39.362-10.918c1.029,0,2.053,0.016,3.069,0.047c0.357,0.011,0.708,0.033,1.064,0.048
		c0.655,0.027,1.311,0.049,1.959,0.089c0.915,0.054,1.819,0.122,2.718,0.198c0.082,0.007,0.167,0.011,0.25,0.018
		c12.427,1.071,23.15,4.058,29.158,6.025c0.148,0.048,0.311,0.1,0.453,0.148C493.803,196.29,496.852,238.218,470.09,260.973z"/>
</g>
<g>
</g>
<g>
</g>
<g>
</g>
<g>
</g>
<g>
</g>
<g>
</g>
<g>
</g>
<g>
</g>
<g>
</g>
<g>
</g>
<g>
</g>
<g>
</g>
<g>
</g>
<g>
</g>
<g>
</g>
</svg>
