<?xml version="1.0" encoding="iso-8859-1"?>
<!-- Generator: Adobe Illustrator 19.0.0, SVG Export Plug-In . SVG Version: 6.00 Build 0)  -->
<svg version="1.1" id="Layer_1" xmlns="http://www.w3.org/2000/svg" xmlns:xlink="http://www.w3.org/1999/xlink" x="0px" y="0px"
	 viewBox="0 0 512.001 512.001" style="enable-background:new 0 0 512.001 512.001;" xml:space="preserve">
<path style="fill:#9EFDFF;" d="M372.956,85.644h0.789V50.898H139.046v34.746c-30.88,0-55.913,25.033-55.913,55.913v283.875
	c0,42.566,34.506,77.073,77.073,77.073h191.589c42.566,0,77.073-34.507,77.073-77.073V141.557
	C428.869,110.676,403.835,85.644,372.956,85.644z"/>
<path style="opacity:0.3;fill:#20272E;enable-background:new    ;" d="M90.548,113.745h330.905
	c-9.649-16.788-27.746-28.101-48.498-28.101h-233.91C118.294,85.644,100.197,96.957,90.548,113.745z"/>
<path style="fill:#664B33;" d="M375.642,9.495H136.359c-34.228,0-61.976,27.747-61.976,61.976v14.172c13.853,0,27.705,0,41.558,0
	c32.502,0,65.005,0,97.507,0c37.578,0,75.155,0,112.733,0c37.146,0,74.291,0,111.437,0V71.472
	C437.618,37.242,409.87,9.495,375.642,9.495z"/>
<path style="fill:#00C279;" d="M139.046,228.147c-7.001,0-12.696,5.696-12.696,12.696v197.442c0,18.668,15.188,33.856,33.857,33.856
	h191.589c18.668,0,33.856-15.188,33.856-33.856V240.843c0-7-5.696-12.696-12.696-12.696H139.046z"/>
<circle style="fill:#FFFFFF;" cx="255.998" cy="228.828" r="91.751"/>
<path style="fill:#00C279;" d="M288.248,220.997c-13.918,0-25.201-11.283-25.201-25.202c0-6.861,2.75-13.072,7.198-17.617
	c-4.527-1.291-9.302-1.997-14.243-1.997c-28.643,0-51.863,23.22-51.863,51.863c0,28.643,23.22,51.863,51.863,51.863
	s51.862-23.22,51.862-51.863c0-4.941-0.706-9.716-1.997-14.243C301.322,218.247,295.109,220.997,288.248,220.997z"/>
<g>
	<path style="fill:#20272E;" d="M263.254,198.87c-2.323-0.576-4.752-0.886-7.253-0.886c-16.602,0-30.06,13.458-30.06,30.06
		s13.458,30.06,30.06,30.06c16.602,0,30.06-13.458,30.06-30.06c0-2.502-0.311-4.93-0.886-7.253
		C273.719,219.394,264.65,210.326,263.254,198.87z"/>
	<path style="opacity:0.3;fill:#20272E;enable-background:new    ;" d="M437.618,71.472c0-34.228-27.748-61.976-61.976-61.976
		H256.001v493.009h95.794c42.566,0,77.073-34.507,77.073-77.073V141.557c0-14.006-5.162-26.799-13.671-36.609
		c-0.016-0.018-0.032-0.037-0.048-0.054c-2.322-2.67-4.891-5.115-7.676-7.304c-0.085-0.067-0.168-0.133-0.254-0.2
		c-1.835-1.424-3.755-2.741-5.762-3.932c-0.099-0.06-0.2-0.114-0.3-0.172c-0.874-0.511-1.762-0.998-2.666-1.462
		c-0.185-0.095-0.37-0.191-0.557-0.285c-2.019-1.01-4.107-1.905-6.257-2.669c-0.224-0.08-0.452-0.152-0.679-0.229
		c-0.851-0.29-1.71-0.56-2.579-0.809c-0.279-0.08-0.557-0.162-0.837-0.238c-1.05-0.284-2.108-0.546-3.182-0.77
		c-0.037-0.008-0.072-0.018-0.109-0.025c-1.107-0.228-2.228-0.414-3.359-0.576c-0.31-0.044-0.622-0.08-0.933-0.119
		c-0.853-0.108-1.712-0.195-2.575-0.263c-0.332-0.027-0.662-0.056-0.996-0.076c-1.151-0.071-2.307-0.118-3.475-0.118h64.663V71.472
		H437.618z"/>
</g>
<g>
	<circle style="fill:#00E891;" cx="172.565" cy="344.343" r="19.833"/>
	<circle style="fill:#00E891;" cx="211.319" cy="431.246" r="14.626"/>
	<circle style="fill:#00E891;" cx="332.19" cy="373.931" r="14.626"/>
</g>
<g>
	<path style="fill:#20272E;" d="M372.956,218.651h-16.225c-5.119-51.064-48.338-91.068-100.729-91.068s-95.61,40.002-100.729,91.068
		h-16.226c-12.236,0-22.192,9.955-22.192,22.192v197.442c0,23.905,19.448,43.351,43.352,43.351h191.589
		c23.905,0,43.351-19.447,43.351-43.351V240.843C395.147,228.606,385.192,218.651,372.956,218.651z M173.767,228.186
		c0.346-45.059,37.094-81.612,82.233-81.612c45.139,0,81.888,36.552,82.233,81.612c0,0.004,0,0.008,0,0.011
		c0.001,0.205,0.006,0.409,0.016,0.627c0,45.353-36.897,82.25-82.25,82.25c-7.086,0-13.966-0.9-20.532-2.594
		c-35.451-9.143-61.718-41.391-61.715-79.669c0.008-0.204,0.013-0.408,0.014-0.613C173.767,228.194,173.767,228.19,173.767,228.186z
		 M376.156,438.285c0,13.433-10.927,24.36-24.36,24.36H160.207c-13.433,0-24.362-10.927-24.362-24.36V240.843
		c0-1.765,1.436-3.201,3.201-3.201h16.095c0.023,0.262,0.062,0.52,0.086,0.782c2.257,23.884,13.406,46.819,30.71,63.422
		c17.388,16.684,40.915,26.896,64.994,28.089c26.015,1.289,52.29-7.899,71.857-25.095c19.129-16.811,31.586-41.053,33.984-66.418
		c0.025-0.262,0.065-0.519,0.086-0.782h16.094c1.765,0,3.201,1.436,3.201,3.201v197.443H376.156z"/>
	<path style="fill:#20272E;" d="M375.642,0H136.359C96.95,0,64.887,32.062,64.887,71.472v14.172c0,5.244,4.251,9.495,9.495,9.495
		h18.63c-11.957,11.859-19.376,28.286-19.376,46.418v283.876c0,47.734,38.834,86.568,86.568,86.568h191.589
		c47.734,0,86.568-38.834,86.568-86.568V141.557c0-18.131-7.419-34.558-19.376-46.418h18.631c5.244,0,9.495-4.251,9.495-9.495
		V71.472C447.114,32.062,415.052,0,375.642,0z M419.373,141.557v283.876c0,37.263-30.315,67.577-67.577,67.577H160.207
		c-37.263,0-67.577-30.315-67.577-67.577V141.557c0-25.587,20.809-46.404,46.394-46.418h233.958
		C398.563,95.152,419.373,115.97,419.373,141.557z M428.123,76.148H372.98c-0.008,0-0.016,0-0.024,0h-233.91
		c-0.008,0-0.016,0-0.024,0H83.878v-4.677c0-28.938,23.544-52.481,52.481-52.481h239.283c28.937,0,52.481,23.542,52.481,52.481
		L428.123,76.148L428.123,76.148z"/>
</g>
<g>
</g>
<g>
</g>
<g>
</g>
<g>
</g>
<g>
</g>
<g>
</g>
<g>
</g>
<g>
</g>
<g>
</g>
<g>
</g>
<g>
</g>
<g>
</g>
<g>
</g>
<g>
</g>
<g>
</g>
</svg>
