<?xml version="1.0" encoding="iso-8859-1"?>
<!-- Generator: Adobe Illustrator 19.0.0, SVG Export Plug-In . SVG Version: 6.00 Build 0)  -->
<svg version="1.1" id="Layer_1" xmlns="http://www.w3.org/2000/svg" xmlns:xlink="http://www.w3.org/1999/xlink" x="0px" y="0px"
	 viewBox="0 0 512 512" style="enable-background:new 0 0 512 512;" xml:space="preserve">
<g>
	<path style="fill:#8A8791;" d="M410.432,340.343v63.647c0,0.167,51.081,0.501,51.081,0.501v-64.148H410.432z"/>
	<path style="fill:#8A8791;" d="M101.568,403.991v-63.647H50.487v64.148C50.487,404.492,101.568,404.158,101.568,403.991z"/>
</g>
<g>
	<polygon style="fill:#C7C5CC;" points="54.051,340.343 54.051,328.464 13.661,328.464 13.661,416.371 54.051,416.371 
		54.051,404.492 	"/>
	<polygon style="fill:#C7C5CC;" points="457.949,328.464 457.949,340.343 457.949,404.492 457.949,416.371 498.339,416.371 
		498.339,328.464 	"/>
</g>
<path style="fill:#00D8DE;" d="M89.689,276.195v104.037c0,64.573,52.346,116.919,116.919,116.919h98.784
	c64.573,0,116.919-52.346,116.919-116.919V276.195H89.689z"/>
<path style="fill:#20272E;" d="M203.731,380.733c0,14.539,5.941,27.688,15.522,37.163c8.028-7.017,21.49-11.622,36.748-11.622
	c15.258,0,28.718,4.604,36.748,11.622c9.581-9.475,15.522-22.623,15.522-37.163H203.731z"/>
<path style="fill:#FFA5B7;" d="M292.748,417.895c-8.028-7.017-21.49-11.622-36.748-11.622c-15.258,0-28.718,4.604-36.748,11.622
	c9.442,9.337,22.419,15.107,36.748,15.107C270.329,433.002,283.305,427.233,292.748,417.895z"/>
<path style="fill:#3C3A41;" d="M416.627,137.941L416.627,137.941C397.598,67.046,332.9,14.849,256,14.849l0,0
	c-76.9,0-141.597,52.197-160.627,123.091l-0.137,0.498c-3.617,13.633-5.548,27.951-5.548,42.722v130.819
	C192.809,261.879,256,328.464,256,328.464s63.191-66.585,166.311-16.485V181.16C422.311,166.209,420.327,151.724,416.627,137.941z"
	/>
<g>
	<path style="fill:#EEE5DD;" d="M192.531,94.266c-8.087-5.607-19.189-3.596-24.796,4.492l-43.105,62.175
		c-3.778,5.449-4.217,12.545-1.143,18.418c3.076,5.873,9.157,9.555,15.786,9.555h9.07L124.63,223.11
		c-3.778,5.448-4.217,12.543-1.143,18.417c3.076,5.873,9.157,9.553,15.786,9.553h9.07l-23.714,34.204
		c-2.995,4.319-3.797,9.494-2.68,14.236c14.528-4.142,28.042-5.978,40.465-6.187l34.609-49.921
		c3.778-5.448,4.217-12.543,1.143-18.417c-3.076-5.873-9.157-9.555-15.786-9.555h-9.07l23.714-34.204
		c3.778-5.448,4.217-12.543,1.143-18.417c-3.076-5.873-9.157-9.553-15.786-9.553h-9.07l23.714-34.204
		C202.63,110.973,200.618,99.872,192.531,94.266z"/>
	<path style="fill:#EEE5DD;" d="M319.469,94.266c8.087-5.607,19.189-3.596,24.796,4.492l43.105,62.175
		c3.778,5.449,4.217,12.545,1.143,18.418c-3.076,5.873-9.157,9.555-15.786,9.555h-9.07l23.714,34.204
		c3.778,5.448,4.217,12.543,1.143,18.417c-3.076,5.873-9.157,9.553-15.786,9.553h-9.07l23.714,34.204
		c2.995,4.319,3.797,9.494,2.68,14.236c-14.528-4.142-28.042-5.978-40.465-6.187l-34.609-49.921
		c-3.778-5.448-4.217-12.543-1.143-18.417c3.076-5.873,9.157-9.555,15.786-9.555h9.07l-23.714-34.204
		c-3.778-5.448-4.217-12.543-1.143-18.417c3.076-5.873,9.157-9.553,15.786-9.553h9.07l-23.714-34.204
		C309.37,110.973,311.382,99.872,319.469,94.266z"/>
</g>
<g>
	<path style="opacity:0.3;fill:#20272E;enable-background:new    ;" d="M457.949,328.464v11.879h-35.638v-28.364v-35.784V181.16
		c0-14.951-1.984-29.436-5.684-43.219l0,0C397.598,67.046,332.9,14.849,256,14.849l0,0v482.302h49.392
		c56.373,0,103.424-39.897,114.465-92.995c11.478,0.125,30.291,0.259,38.092,0.312v0.025v11.879h40.39v-87.907h-40.39V328.464z"/>
	<path style="fill:#20272E;" d="M498.339,313.615h-40.39c-4.92,0-8.91,3.988-8.91,8.91v2.97H431.22v-19.455V175.22
		c0-15.406-2.015-30.725-5.988-45.529C404.735,53.331,335.145,0,255.999,0c-33.238,0-66.271,9.69-94.278,27.578
		c-25.633,16.372-46.852,39.393-60.977,66.338c-0.143,0.273-0.285,0.546-0.428,0.82c-1.05,2.029-2.061,4.084-3.035,6.162
		c-0.198,0.423-0.403,0.842-0.598,1.268c-4.018,8.762-7.346,17.943-9.906,27.483l-0.154,0.565
		c-3.876,14.619-5.843,29.761-5.843,45.007v130.819v19.455H62.961v-2.97c0-4.922-3.989-8.91-8.91-8.91h-40.39
		c-4.92,0-8.91,3.988-8.91,8.91v87.907c0,4.922,3.989,8.91,8.91,8.91h40.39c4.92,0,8.91-3.988,8.91-8.91v-2.97H82.59
		C92.735,466.74,144.481,512,206.608,512h98.784c62.127,0,113.873-45.26,124.018-104.538h19.629v2.97c0,4.922,3.989,8.91,8.91,8.91
		h40.39c4.92,0,8.909-3.988,8.909-8.91v-87.907C507.248,317.603,503.259,313.615,498.339,313.615z M41.695,399.936
		c0.012,0.077,0.021,0.156,0.036,0.233c0.078,0.429,0.189,0.846,0.327,1.25c0.012,0.033,0.015,0.07,0.027,0.103H22.571v-70.088
		h19.514c-0.012,0.033-0.015,0.07-0.027,0.103c-0.138,0.405-0.247,0.822-0.327,1.25c-0.014,0.077-0.024,0.156-0.036,0.233
		c-0.07,0.453-0.118,0.912-0.118,1.384v64.148C41.578,399.024,41.625,399.484,41.695,399.936z M80.78,386.172v3.471H59.397v-46.329
		H80.78V386.172z M413.401,334.404v51.768c0,59.557-48.453,108.009-108.009,108.009h-98.784c-59.419,0-107.783-48.231-108.003-107.6
		l-0.006-52.178v-22.7c28.307-12.842,60.246-19.094,91.059-13.016c21.263,4.193,42.953,13.841,58.698,28.957
		c1.915,1.839,4.176,3.554,6.818,3.812c1.985,0.194,3.983-0.478,5.67-1.542c3.329-2.1,6.089-5.41,9.248-7.845
		c3.077-2.371,6.281-4.577,9.578-6.63c9.303-5.791,19.37-10.358,29.847-13.569c31.765-9.733,65.688-5.785,96.147,6.515
		c2.603,1.051,5.182,2.158,7.737,3.318v22.7H413.401z M156.236,178.833c-1.537-2.938-4.578-4.777-7.894-4.777h-9.07
		c-3.326,0-6.351-1.831-7.893-4.777c-1.543-2.947-1.325-6.477,0.57-9.21l43.105-62.175c1.664-2.401,4.407-3.836,7.338-3.836
		c1.81,0,3.56,0.55,5.059,1.589c1.955,1.355,3.267,3.392,3.691,5.733c0.424,2.343-0.089,4.709-1.445,6.664l-23.714,34.204
		c-1.889,2.725-2.109,6.272-0.571,9.209c1.537,2.938,4.578,4.777,7.894,4.777h9.07c3.326,0,6.351,1.831,7.893,4.776
		c1.543,2.947,1.325,6.477-0.57,9.21l-23.714,34.204c-1.889,2.725-2.109,6.272-0.571,9.209c1.537,2.938,4.578,4.777,7.894,4.777
		h9.07c3.326,0,6.351,1.831,7.893,4.777c1.543,2.947,1.325,6.475-0.57,9.209l-32.055,46.238c-0.044,0.002-0.088,0.007-0.132,0.008
		c-7.662,0.355-15.283,1.317-22.814,2.76c-0.249,0.047-0.499,0.084-0.748,0.133l21.713-31.319c1.889-2.725,2.109-6.272,0.571-9.209
		c-1.537-2.938-4.578-4.777-7.894-4.777h-9.07c-3.326,0-6.351-1.831-7.893-4.777c-1.543-2.947-1.325-6.475,0.57-9.209l23.714-34.204
		C157.553,185.317,157.773,181.77,156.236,178.833z M346.012,204.426L322.3,170.223c-1.896-2.735-2.115-6.263-0.571-9.21
		c1.542-2.945,4.568-4.777,7.894-4.777h9.07c3.315,0,6.355-1.84,7.894-4.777c1.537-2.937,1.317-6.484-0.571-9.209l-23.712-34.203
		c-1.357-1.957-1.87-4.324-1.446-6.665c0.424-2.341,1.734-4.379,3.691-5.733c1.499-1.039,3.249-1.589,5.059-1.589
		c2.931,0,5.674,1.434,7.338,3.836l43.105,62.174c1.896,2.735,2.115,6.263,0.571,9.209c-1.543,2.947-4.568,4.778-7.894,4.778h-9.07
		c-3.316,0-6.355,1.84-7.894,4.777c-1.537,2.937-1.317,6.484,0.571,9.209l23.714,34.204c1.895,2.733,2.113,6.262,0.571,9.208
		c-1.543,2.946-4.568,4.777-7.894,4.777h-9.07c-3.315,0-6.355,1.84-7.894,4.777c-1.537,2.937-1.317,6.484,0.571,9.209l21.713,31.319
		c-0.249-0.049-0.499-0.086-0.748-0.133c-7.527-1.448-15.157-2.393-22.814-2.76c-0.044-0.002-0.088-0.007-0.132-0.008
		l-32.055-46.238c-1.895-2.733-2.113-6.262-0.571-9.208c1.543-2.946,4.568-4.777,7.894-4.777h9.07c3.315,0,6.355-1.84,7.894-4.777
		S347.901,207.151,346.012,204.426z M413.401,292.29c-4.701-1.927-9.393-3.642-14.073-5.169c-0.404-4.575-1.977-9.016-4.635-12.853
		l-14.708-21.214c6.978-1.958,12.95-6.706,16.422-13.337c4.627-8.839,3.97-19.426-1.714-27.624l-14.708-21.214
		c6.978-1.958,12.95-6.706,16.422-13.337c4.627-8.839,3.97-19.425-1.714-27.625l-43.105-62.175
		c-4.993-7.202-13.211-11.502-21.982-11.502c-5.456,0-10.716,1.648-15.211,4.764c-5.867,4.067-9.8,10.177-11.073,17.202
		c-1.272,7.024,0.267,14.126,4.335,19.993l14.708,21.214c-6.978,1.958-12.951,6.705-16.422,13.336
		c-4.627,8.839-3.97,19.425,1.714,27.625l14.708,21.214c-6.978,1.958-12.95,6.706-16.422,13.337
		c-4.627,8.839-3.97,19.426,1.714,27.624l25.364,36.586c-38.937,3.69-65.484,21.803-77.019,31.369
		c-11.532-9.566-38.078-27.679-77.02-31.369l25.364-36.585c5.684-8.198,6.341-18.785,1.714-27.627
		c-3.471-6.629-9.444-11.376-16.422-13.335l14.708-21.215c5.684-8.199,6.34-18.785,1.713-27.627
		c-3.471-6.629-9.444-11.374-16.422-13.335l14.708-21.214c4.067-5.866,5.606-12.967,4.334-19.992
		c-1.272-7.025-5.204-13.136-11.073-17.202c-4.495-3.116-9.755-4.764-15.212-4.764c-8.772,0-16.989,4.299-21.982,11.502
		l-43.105,62.175c-5.684,8.199-6.34,18.785-1.713,27.625c3.471,6.63,9.443,11.377,16.421,13.336l-14.708,21.214
		c-5.684,8.198-6.341,18.785-1.713,27.625c3.471,6.63,9.443,11.377,16.421,13.336l-14.708,21.215
		c-2.657,3.836-4.23,8.276-4.634,12.852c-4.68,1.526-9.373,3.242-14.073,5.169V175.22c0-5.139,0.248-10.264,0.741-15.352
		c0.822-8.479,2.324-16.854,4.49-25.016l0.148-0.542C122.388,65.723,184.902,17.819,256,17.819s133.612,47.903,152.022,116.492
		c3.569,13.298,5.379,27.062,5.379,40.909V292.29z M452.603,389.643H431.22v-3.471v-42.858h21.383V389.643z M489.429,401.522
		h-19.514c0.012-0.033,0.015-0.07,0.027-0.103c0.138-0.405,0.247-0.822,0.327-1.25c0.014-0.077,0.024-0.156,0.036-0.233
		c0.07-0.451,0.118-0.911,0.118-1.384v-64.148c0-0.472-0.048-0.931-0.118-1.384c-0.012-0.077-0.021-0.156-0.036-0.233
		c-0.078-0.429-0.189-0.846-0.327-1.25c-0.012-0.033-0.015-0.07-0.027-0.103h19.514V401.522z"/>
	<circle style="fill:#20272E;" cx="176.658" cy="346.259" r="14.846"/>
	<circle style="fill:#20272E;" cx="335.342" cy="346.259" r="14.846"/>
	<path style="fill:#20272E;" d="M308.269,365.884H203.731c-4.92,0-8.91,3.988-8.91,8.91c0,16.46,6.448,31.903,18.156,43.487
		c0.004,0.004,0.007,0.007,0.011,0.011c11.529,11.402,26.805,17.681,43.012,17.681c16.208,0,31.483-6.279,43.013-17.681
		c0.004-0.004,0.006-0.007,0.011-0.011c11.707-11.584,18.155-27.027,18.155-43.487C317.179,369.872,313.19,365.884,308.269,365.884z
		 M256,418.153c-7.37,0-14.468-1.833-20.769-5.283c0.16-0.062,0.322-0.121,0.483-0.182c12.761-4.734,27.799-4.726,40.574,0.001
		c0.16,0.059,0.321,0.119,0.48,0.181C270.468,416.32,263.37,418.153,256,418.153z M291.265,400.031
		c-0.252-0.146-0.514-0.283-0.77-0.424c-21.983-12.213-47.66-9.542-69.761,0.343c-1.882-2.215-3.287-5.058-4.455-7.712
		c-0.315-0.715-2.79-8.535-2.729-8.535c0.001,0,84.898,0,84.898,0C297.226,389.592,294.791,395.132,291.265,400.031z"/>
</g>
<g>
</g>
<g>
</g>
<g>
</g>
<g>
</g>
<g>
</g>
<g>
</g>
<g>
</g>
<g>
</g>
<g>
</g>
<g>
</g>
<g>
</g>
<g>
</g>
<g>
</g>
<g>
</g>
<g>
</g>
</svg>
