<?xml version="1.0" encoding="iso-8859-1"?>
<!-- Generator: Adobe Illustrator 19.0.0, SVG Export Plug-In . SVG Version: 6.00 Build 0)  -->
<svg version="1.1" id="Layer_1" xmlns="http://www.w3.org/2000/svg" xmlns:xlink="http://www.w3.org/1999/xlink" x="0px" y="0px"
	 viewBox="0 0 512 512" style="enable-background:new 0 0 512 512;" xml:space="preserve">
<path style="fill:#EEE5DD;" d="M442.604,153.349C420.498,70.99,345.336,10.35,256,10.35l0,0
	c-89.336,0-164.498,60.64-186.604,142.998l-0.159,0.578c-4.202,15.837-6.445,32.471-6.445,49.631v259.45
	c0,21.341,17.3,38.642,38.642,38.642s38.642-17.3,38.642-38.642c0,21.341,17.3,38.642,38.642,38.642s38.642-17.3,38.642-38.642
	c0,21.341,17.3,38.642,38.642,38.642s38.642-17.3,38.642-38.642c0,21.341,17.3,38.642,38.642,38.642
	c21.341,0,38.642-17.3,38.642-38.642c0,21.341,17.3,38.642,38.642,38.642c21.341,0,38.642-17.3,38.642-38.642v-259.45
	C449.208,186.189,446.903,169.362,442.604,153.349z"/>
<path style="fill:#20272E;" d="M195.278,319.837c0,16.89,6.902,32.166,18.032,43.174c9.326-8.152,24.965-13.501,42.691-13.501
	s33.363,5.349,42.691,13.501c11.13-11.007,18.032-26.282,18.032-43.174H195.278L195.278,319.837z"/>
<path style="fill:#FF738D;" d="M298.691,363.011c-9.326-8.152-24.965-13.501-42.691-13.501s-33.363,5.349-42.691,13.501
	c10.969,10.847,26.044,17.55,42.691,17.55S287.721,373.858,298.691,363.011z"/>
<g>
	<path style="opacity:0.3;fill:#20272E;enable-background:new    ;" d="M442.604,153.349C420.498,70.99,345.336,10.35,256,10.35l0,0
		V501.65c21.341,0,38.642-17.3,38.642-38.642c0,21.341,17.3,38.642,38.642,38.642c21.341,0,38.642-17.3,38.642-38.642
		c0,21.341,17.3,38.642,38.642,38.642c21.341,0,38.642-17.3,38.642-38.642v-259.45C449.208,186.189,446.901,169.362,442.604,153.349
		z"/>
	<path style="fill:#20272E;" d="M452.601,150.666C428.791,61.956,347.946,0,256,0S83.209,61.956,59.413,150.614l-0.179,0.658
		c-4.506,16.983-6.791,34.574-6.791,52.286v259.45c0,27.015,21.977,48.992,48.992,48.992c15.683,0,29.668-7.407,38.642-18.907
		c8.973,11.5,22.959,18.907,38.642,18.907s29.668-7.407,38.642-18.907C226.332,504.593,240.317,512,256,512
		s29.668-7.407,38.642-18.907C303.615,504.593,317.6,512,333.283,512c15.683,0,29.668-7.407,38.642-18.907
		c8.973,11.5,22.959,18.907,38.642,18.907c27.015,0,48.992-21.977,48.992-48.992v-259.45
		C459.558,185.66,457.217,167.864,452.601,150.666z M438.857,463.008c0,15.6-12.691,28.291-28.291,28.291
		c-15.6,0-28.291-12.691-28.291-28.291c0-5.716-4.634-10.35-10.35-10.35c-5.716,0-10.35,4.634-10.35,10.35
		c0,15.6-12.691,28.291-28.291,28.291s-28.291-12.691-28.291-28.291c0-5.716-4.634-10.35-10.35-10.35s-10.35,4.634-10.35,10.35
		c0,15.6-12.691,28.291-28.291,28.291s-28.291-12.691-28.291-28.291c0-5.716-4.634-10.35-10.35-10.35
		c-5.716,0-10.35,4.634-10.35,10.35c0,15.6-12.691,28.291-28.291,28.291s-28.291-12.691-28.291-28.291
		c0-5.716-4.634-10.35-10.35-10.35s-10.35,4.634-10.35,10.35c0,15.6-12.691,28.291-28.291,28.291s-28.291-12.691-28.291-28.291
		v-259.45c0-15.92,2.052-31.726,6.076-46.897l0.173-0.629C100.778,76.351,173.402,20.701,256,20.701s155.222,55.651,176.608,135.332
		c4.147,15.448,6.249,31.438,6.249,47.525V463.008z"/>
	<circle style="fill:#20272E;" cx="163.826" cy="286.692" r="17.247"/>
	<circle style="fill:#20272E;" cx="348.174" cy="286.692" r="17.247"/>
	<path style="fill:#20272E;" d="M316.722,309.487H195.278c-5.716,0-10.35,4.634-10.35,10.35c0,19.128,7.495,37.074,21.105,50.532
		c13.395,13.246,31.14,20.541,49.969,20.541c18.828,0,36.573-7.295,49.968-20.541c13.61-13.458,21.105-31.405,21.105-50.532
		C327.073,314.121,322.439,309.487,316.722,309.487z M305.313,330.188c-1.421,6.841-4.251,13.277-8.345,18.969
		c0.353-0.491-15.977-6.485-17.473-6.882c-6.493-1.725-13.178-2.723-19.891-2.993c-13.76-0.553-28.352,1.775-40.79,7.87
		c-0.718,0.352-1.423,0.714-2.118,1.086c-0.266,0.144-0.529,0.29-0.792,0.436c-0.291,0.161-0.588,0.317-0.875,0.483
		c-4.095-5.691-6.925-12.129-8.345-18.969H305.313z M231.873,364.072c0.178-0.068,0.357-0.135,0.538-0.202
		c14.851-5.49,32.318-5.498,47.183,0.001c0.179,0.066,0.357,0.133,0.535,0.201c-7.32,4.008-15.566,6.137-24.127,6.137
		C247.438,370.209,239.191,368.08,231.873,364.072z"/>
</g>
<g>
</g>
<g>
</g>
<g>
</g>
<g>
</g>
<g>
</g>
<g>
</g>
<g>
</g>
<g>
</g>
<g>
</g>
<g>
</g>
<g>
</g>
<g>
</g>
<g>
</g>
<g>
</g>
<g>
</g>
</svg>
