<?xml version="1.0" encoding="iso-8859-1"?>
<!-- Generator: Adobe Illustrator 19.0.0, SVG Export Plug-In . SVG Version: 6.00 Build 0)  -->
<svg version="1.1" id="Layer_1" xmlns="http://www.w3.org/2000/svg" xmlns:xlink="http://www.w3.org/1999/xlink" x="0px" y="0px"
	 viewBox="0 0 511.999 511.999" style="enable-background:new 0 0 511.999 511.999;" xml:space="preserve">
<path style="fill:#EEE5DD;" d="M379.318,114.614c-36.501,4.783-78.55,7.513-123.318,7.513c-44.769,0-86.816-2.729-123.318-7.513
	c-17.06,17.49-30.441,38.586-38.864,62.051c43.953,8.604,100.489,13.782,162.182,13.782s118.229-5.178,162.182-13.782
	C409.759,153.2,396.377,132.104,379.318,114.614z"/>
<path style="fill:#DDCBBD;" d="M83.719,311.217v68.321c45.22,9.847,105.751,15.87,172.281,15.87s127.061-6.022,172.281-15.87
	v-68.321c-45.22,9.847-105.751,15.87-172.281,15.87C189.47,327.087,128.939,321.064,83.719,311.217z"/>
<path style="fill:#EEE5DD;" d="M83.719,242.721v68.497c45.22,9.847,105.751,15.87,172.281,15.87s127.061-6.022,172.281-15.87
	v-68.497c-45.22,9.847-105.751,15.87-172.281,15.87C189.47,258.59,128.939,252.568,83.719,242.721z"/>
<g>
	<path style="fill:#DDCBBD;" d="M256,122.126c44.775,0,86.83-2.731,123.335-7.515c-31.286-32.085-74.98-52.01-123.335-52.01l0,0
		c-48.354,0-92.05,19.927-123.335,52.01C169.17,119.396,211.224,122.126,256,122.126z"/>
	<path style="fill:#DDCBBD;" d="M422.393,189.934c-1.224-4.562-2.647-9.04-4.229-13.443c-43.95,8.602-100.479,13.779-162.165,13.779
		c-61.684,0-118.216-5.177-162.165-13.779c-1.581,4.403-3.005,8.881-4.229,13.443l-0.142,0.516
		c-3.747,14.122-5.747,28.954-5.747,44.255v8.016c45.22,9.847,105.751,15.87,172.281,15.87s127.061-6.022,172.281-15.87v-8.016
		C428.281,219.218,426.226,204.212,422.393,189.934z"/>
	<path style="fill:#DDCBBD;" d="M256,463.728c-55.161,0-106.199-4.141-147.807-11.168c22.111,29.231,57.164,48.126,96.641,48.126
		h102.33c39.477,0,74.53-18.896,96.641-48.126C362.199,459.588,311.161,463.728,256,463.728z"/>
</g>
<path style="fill:#EEE5DD;" d="M83.719,379.538v0.033c0,27.411,9.11,52.691,24.461,72.988c41.611,7.028,92.653,11.169,147.82,11.169
	c55.166,0,106.209-4.141,147.819-11.169c15.351-20.297,24.461-45.577,24.461-72.988v-0.033
	c-45.22,9.847-105.751,15.87-172.281,15.87C189.47,395.408,128.939,389.385,83.719,379.538z"/>
<path style="fill:#4C4B4F;" d="M89.607,189.934l-0.142,18.171h332.927v-18.171L397.324,68.639
	c-6.899-33.383-36.3-57.328-70.388-57.328H185.064c-34.088,0-63.489,23.945-70.388,57.328L89.607,189.934"/>
<g>
	<path style="fill:#20272E;" d="M83.719,212.653v13.624l21.252,61.21c4.599,15.908,19.163,26.859,35.721,26.859h48.196
		c16.56,0,31.124-10.951,35.721-26.859l21.252-61.21v-13.624H83.719z"/>
	<path style="fill:#20272E;" d="M428.281,212.653v13.624l-21.252,61.21c-4.599,15.908-19.163,26.859-35.721,26.859h-48.196
		c-16.56,0-31.124-10.951-35.721-26.859l-21.252-61.21v-13.624H428.281z"/>
</g>
<path style="fill:#3D3C40;" d="M484.6,189.934H27.401c-10.035,0-18.172,8.135-18.172,18.172s8.135,18.172,18.172,18.172H484.6
	c10.035,0,18.172-8.135,18.172-18.172S494.635,189.934,484.6,189.934z"/>
<g>
	<path style="opacity:0.3;fill:#20272E;enable-background:new    ;" d="M484.6,189.934h-62.207
		c-0.005-0.026-25.069-121.295-25.069-121.295c-6.899-33.383-36.3-57.328-70.388-57.328h-71.007v489.376h51.235
		c39.477,0,74.53-18.896,96.641-48.126c0.004-0.001,0.009-0.001,0.012-0.002c15.352-20.297,24.461-45.577,24.461-72.988v-0.033
		v-68.321v-68.497v-8.016c0-2.828-0.092-5.634-0.228-8.428h56.546c10.035,0,18.172-8.135,18.172-18.172
		S494.635,189.934,484.6,189.934z"/>
	<path style="fill:#20272E;" d="M484.6,181.218h-54.584L406.362,66.773c-7.747-37.485-41.149-64.69-79.427-64.69H185.064
		c-38.276,0-71.68,27.206-79.427,64.69L81.985,181.218H27.401C12.292,181.218,0,193.509,0,208.618
		c0,15.109,12.292,27.401,27.401,27.401h44.473l2.615,9.045v66.154v68.321c0,0.006,0.001,0.012,0.001,0.018
		c0,0-0.001,0.01-0.001,0.015c0,28.616,9.105,55.78,26.329,78.555c0.054,0.071,0.116,0.137,0.172,0.207
		c24.898,32.784,62.73,51.583,103.842,51.583h102.33c41.112,0,78.945-18.8,103.842-51.583c0.057-0.07,0.118-0.135,0.172-0.207
		c17.226-22.776,26.329-49.939,26.329-78.589v-68.321v-66.15l2.615-9.048h44.474c15.109,0,27.401-12.291,27.401-27.401
		C511.999,193.507,499.709,181.218,484.6,181.218z M123.714,70.507c5.983-28.952,31.785-49.966,61.349-49.966h141.872
		c29.565,0,55.366,21.015,61.349,49.968l22.776,110.196H100.938L123.714,70.507z M416.084,372.628
		c-48.593,9.514-98.971,13.039-148.424,13.639c-51.356,0.623-102.763-2.886-153.552-10.526c-7.099-1.068-14.149-2.29-21.16-3.704
		v-49.5c0.222,0.043,0.453,0.082,0.674,0.125c49.551,9.587,100.803,13.144,151.227,13.715
		c51.535,0.583,103.119-2.866,154.113-10.349c6.521-0.957,12.925-2.284,19.415-3.366c0.221-0.043,0.453-0.082,0.674-0.125v49.5
		c-0.254,0.052-0.503,0.103-0.758,0.154C417.558,372.338,416.821,372.483,416.084,372.628z M223.523,267.332
		c22.932,0.688,45.886,0.648,68.814-0.119l9.567,33.093c1.81,6.264,5.182,11.74,9.596,16.101c-0.507,0.027-1.013,0.054-1.52,0.08
		c-18.572,0.956-37.168,1.411-55.765,1.377c-9.43-0.017-18.859-0.161-28.284-0.428c-4.712-0.134-9.424-0.299-14.134-0.495
		c-1.552-0.064-10.184-1.635-11.296-0.534c4.414-4.36,7.786-9.837,9.596-16.101l9.567-33.093c0.753,0.026,1.51,0.047,2.264,0.07
		C222.459,267.3,222.991,267.316,223.523,267.332z M283.319,236.019l3.726,12.888c-0.251-0.868-23.619,0.429-25.76,0.441
		c-12.111,0.06-24.223-0.089-36.329-0.441l3.725-12.888L283.319,236.019L283.319,236.019z M307.165,491.458h-102.33
		c-26.663,0-51.723-9.213-71.6-25.858c1.151,0.964,5.642,0.736,7.228,0.929c3.256,0.397,6.522,0.724,9.784,1.058
		c6.475,0.665,12.956,1.268,19.442,1.809c12.973,1.084,25.965,1.922,38.969,2.517c26.008,1.188,52.06,1.395,78.084,0.625
		c30.756-1.14,61.486-3.005,92.024-6.938C358.888,482.245,333.828,491.458,307.165,491.458z M398.607,444.055
		c-1.569,2.217-14.21,2.134-16.95,2.487c-6.413,0.826-12.834,1.589-19.262,2.288c-12.856,1.398-25.739,2.542-38.64,3.431
		c-25.803,1.778-51.674,2.54-77.536,2.283c-44.329-0.441-89.048-3.372-132.825-10.489c-11.186-15.812-17.952-33.923-19.875-53.087
		c0.207,0.039,0.423,0.076,0.631,0.117c49.682,9.549,101.034,13.099,151.58,13.625c51.542,0.535,103.126-2.963,154.118-10.498
		c6.036-0.892,12.179-1.665,18.102-3.145c0.176-0.034,0.361-0.065,0.537-0.1C416.564,410.12,409.797,428.237,398.607,444.055z
		 M484.6,217.56h-56.521H83.919H27.401c-4.931,0-8.943-4.012-8.943-8.943s4.012-8.943,8.943-8.943H484.6
		c4.931,0,8.943,4.012,8.943,8.943S489.531,217.56,484.6,217.56z"/>
</g>
<g>
</g>
<g>
</g>
<g>
</g>
<g>
</g>
<g>
</g>
<g>
</g>
<g>
</g>
<g>
</g>
<g>
</g>
<g>
</g>
<g>
</g>
<g>
</g>
<g>
</g>
<g>
</g>
<g>
</g>
</svg>
