<?xml version="1.0" encoding="iso-8859-1"?>
<!-- Generator: Adobe Illustrator 19.0.0, SVG Export Plug-In . SVG Version: 6.00 Build 0)  -->
<svg version="1.1" id="Layer_1" xmlns="http://www.w3.org/2000/svg" xmlns:xlink="http://www.w3.org/1999/xlink" x="0px" y="0px"
	 viewBox="0 0 512.001 512.001" style="enable-background:new 0 0 512.001 512.001;" xml:space="preserve">
<path style="fill:#EEE5DD;" d="M237.557,282.244h36.888v202.313c0,10.186-8.258,18.444-18.444,18.444
	c-10.186,0-18.444-8.258-18.444-18.444V282.244z"/>
<path style="fill:#D97400;" d="M301.945,294.152l-5.671-18.107l0,0H215.73l-5.673,18.108c-2.499,7.978,1.942,16.473,9.921,18.972
	c7.978,2.499,16.472-1.942,18.972-9.921l1.912-6.106v4.012c0,8.361,6.777,15.139,15.139,15.139c8.361,0,15.139-6.777,15.139-15.139
	v-4.014l1.914,6.107c2.499,7.978,10.993,12.421,18.972,9.921C300.003,310.625,304.444,302.131,301.945,294.152z"/>
<circle style="fill:#FF8800;" cx="255.995" cy="145.544" r="136.546"/>
<path style="fill:#A93CCB;" d="M256.001,246.092c-55.444,0-100.551-45.107-100.551-100.55s45.108-100.55,100.551-100.55
	s100.55,45.106,100.55,100.55S311.445,246.092,256.001,246.092z"/>
<path style="fill:#FF8800;" d="M256.001,210.099c-35.597,0-64.558-28.96-64.558-64.557s28.961-64.557,64.558-64.557
	s64.557,28.96,64.557,64.557S291.598,210.099,256.001,210.099z"/>
<path style="fill:#A93CCB;" d="M256.001,174.106c-15.751,0-28.565-12.814-28.565-28.564s12.815-28.564,28.565-28.564
	c15.751,0,28.564,12.814,28.564,28.564S271.752,174.106,256.001,174.106z"/>
<g>
	<path style="opacity:0.3;fill:#20272E;enable-background:new    ;" d="M392.543,145.542c0-75.41-61.132-136.543-136.543-136.543
		l0,0v493.702l0,0c10.186,0,18.444-8.258,18.444-18.444V306.325c3.482,5.956,10.716,8.95,17.579,6.8
		c7.978-2.499,12.421-10.993,9.921-18.972l-5.672-18.108c-0.005,0.001-0.011,0.002-0.016,0.005
		C352.017,258.869,392.543,206.94,392.543,145.542z"/>
	<path style="fill:#20272E;" d="M256.001,35.993c-60.406,0-109.55,49.144-109.55,109.55s49.144,109.548,109.55,109.548
		c60.405,0,109.548-49.143,109.548-109.548S316.406,35.993,256.001,35.993z M256.001,237.093c-50.483,0-91.553-41.069-91.553-91.552
		s41.07-91.553,91.553-91.553c50.481,0,91.552,41.069,91.552,91.553C347.553,196.024,306.483,237.093,256.001,237.093z"/>
	<path style="fill:#20272E;" d="M256.001,71.986c-40.559,0-73.557,32.997-73.557,73.557c0,40.558,32.997,73.555,73.557,73.555
		c40.558,0,73.555-32.997,73.555-73.555C329.557,104.983,296.559,71.986,256.001,71.986z M256.001,201.1
		c-30.636,0-55.56-24.923-55.56-55.559s24.924-55.559,55.56-55.559c30.635,0,55.559,24.924,55.559,55.56
		S286.636,201.1,256.001,201.1z"/>
	<path style="fill:#20272E;" d="M256.001,107.979c-20.713,0-37.564,16.851-37.564,37.564c0,20.712,16.851,37.562,37.564,37.562
		c20.712,0,37.562-16.851,37.562-37.562C293.564,124.83,276.713,107.979,256.001,107.979z M256.001,165.107
		c-10.79,0-19.567-8.776-19.567-19.566c0-10.79,8.778-19.566,19.567-19.566c10.788,0,19.566,8.778,19.566,19.567
		S266.79,165.107,256.001,165.107z"/>
	<path style="fill:#20272E;" d="M401.543,145.543C401.543,65.29,336.253,0,256.001,0S110.458,65.29,110.458,145.543
		c0,62.141,39.151,115.3,94.077,136.134l-3.065,9.787c-1.928,6.152-1.344,12.686,1.644,18.4c2.987,5.715,8.022,9.922,14.173,11.849
		c2.347,0.734,4.776,1.109,7.221,1.109c1.377,0,2.729-0.12,4.05-0.341v162.079c0,15.132,12.311,27.442,27.442,27.442
		c15.131,0,27.442-12.311,27.442-27.442v-162.08c1.321,0.222,2.673,0.342,4.049,0.342l0,0c2.445,0,4.875-0.374,7.22-1.109
		c6.152-1.927,11.187-6.134,14.174-11.849c2.987-5.713,3.572-12.247,1.645-18.4l-3.065-9.786
		C362.392,260.842,401.543,207.682,401.543,145.543z M235.677,289.755c-2.562,1.809-3.496,4.598-4.265,7.503
		c-0.625,2.364-1.399,4.883-3.333,6.377c-2.224,1.718-5.687,1.477-7.734-0.449c-2.837-2.671-1.792-6.055-0.792-9.248
		c0.722-2.307,1.445-4.614,2.168-6.921c2.414,0.583,4.843,1.101,7.285,1.556c1.22,0.228,2.444,0.44,3.67,0.637
		c0.443,0.071,2.717,0.728,3.087,0.474C235.734,289.706,235.708,289.733,235.677,289.755z M265.447,484.558
		c0,5.208-4.238,9.446-9.446,9.446c-5.208,0-9.446-4.238-9.446-9.446c0,0,0-161.236,0.011-161.232
		c6.156,2.142,12.774,2.604,18.882-0.004v161.236H265.447z M249.824,296.235c-0.269-2.01-1.073-3.934-2.508-5.407
		c0.186,0.011,0.374,0.014,0.56,0.025c5.441,0.307,10.82,0,16.252,0c0.185-0.011,0.371-0.014,0.554-0.025
		c-1.463,1.506-2.253,3.458-2.466,5.532c-0.264,2.585,0.463,5.472-0.905,7.826c-1.091,1.876-3.141,3.064-5.313,3.064
		c-2.875,0-5.415-2.079-6.005-4.89c-0.319-1.518-0.059-3.089-0.07-4.641C249.923,297.223,249.89,296.727,249.824,296.235z
		 M292.916,301.511c-0.708,1.404-1.97,2.531-3.464,3.029c-1.912,0.637-4.142,0.22-5.693-1.068c-1.885-1.566-2.613-4.092-3.243-6.461
		c-0.752-2.828-1.702-5.501-4.187-7.257c-0.031-0.022-0.056-0.05-0.088-0.072c0.29,0.202,2.179-0.33,2.56-0.39
		c1.116-0.176,2.23-0.365,3.343-0.566c2.726-0.496,5.445-1.058,8.137-1.708c-0.034,0.008,2.428,7.524,2.619,8.115
		c0.536,1.659,0.883,3.448,0.472,5.142C293.268,300.704,293.114,301.118,292.916,301.511z M291.268,268.123
		c-0.212,0.061-0.425,0.124-0.638,0.184c-22.72,6.376-47.228,6.349-69.911-0.187c-53.223-15.341-92.265-64.484-92.265-122.577
		c0-70.33,57.217-127.546,127.546-127.546s127.545,57.216,127.545,127.546C383.546,203.64,344.497,252.786,291.268,268.123z"/>
</g>
<g>
</g>
<g>
</g>
<g>
</g>
<g>
</g>
<g>
</g>
<g>
</g>
<g>
</g>
<g>
</g>
<g>
</g>
<g>
</g>
<g>
</g>
<g>
</g>
<g>
</g>
<g>
</g>
<g>
</g>
</svg>
