<?xml version="1.0" encoding="iso-8859-1"?>
<!-- Generator: Adobe Illustrator 19.0.0, SVG Export Plug-In . SVG Version: 6.00 Build 0)  -->
<svg version="1.1" id="Layer_1" xmlns="http://www.w3.org/2000/svg" xmlns:xlink="http://www.w3.org/1999/xlink" x="0px" y="0px"
	 viewBox="0 0 512.001 512.001" style="enable-background:new 0 0 512.001 512.001;" xml:space="preserve">
<path style="fill:#20272E;" d="M309.964,138.287v89.826c0,43.056,34.903,77.959,77.959,77.959h36.161
	c43.056,0,77.959-34.903,77.959-77.959v-89.826H309.964z"/>
<g>
	<path style="fill:#58422C;" d="M331.758,328.104H180.242c-46.562,0-84.309,37.746-84.309,84.309l0,0
		c0,16.713,12.498,31.21,29.149,32.655c18.971,1.649,34.878-13.263,34.878-31.888c0,17.68,14.333,32.013,32.013,32.013
		c17.681,0,32.013-14.333,32.013-32.013c0,17.68,14.333,32.013,32.013,32.013c17.681,0,32.013-14.333,32.013-32.013
		c0,17.68,14.332,32.013,32.013,32.013c17.68,0,32.013-14.333,32.013-32.013c0,18.067,14.966,32.639,33.18,31.993
		c17.348-0.616,30.847-15.4,30.847-32.759l0,0C416.066,365.85,378.32,328.104,331.758,328.104z"/>
	<path style="fill:#58422C;" d="M470.031,66.809c-17.68,0-32.013,14.333-32.013,32.013c0-17.68-14.333-32.013-32.013-32.013
		s-32.013,14.333-32.013,32.013c0-17.68-14.333-32.013-32.013-32.013s-32.013,14.333-32.013,32.013v63.373h64.027h64.027h64.027
		V98.822C502.044,81.142,487.711,66.809,470.031,66.809z"/>
</g>
<path style="fill:#EEE5DD;" d="M387.923,270.56c-23.405,0-42.447-19.042-42.447-42.447v-30.407h121.055v30.405
	c0,23.405-19.042,42.447-42.447,42.447h-36.161V270.56z"/>
<path style="fill:#20272E;" d="M202.036,138.287v89.826c0,43.056-34.903,77.959-77.959,77.959H87.916
	c-43.056,0-77.959-34.903-77.959-77.959v-89.826H202.036z"/>
<path style="fill:#58422C;" d="M41.969,66.809c17.68,0,32.013,14.333,32.013,32.013c0-17.68,14.333-32.013,32.013-32.013
	s32.013,14.333,32.013,32.013c0-17.68,14.333-32.013,32.013-32.013s32.013,14.333,32.013,32.013v63.373h-64.027H73.983H9.956V98.822
	C9.956,81.142,24.289,66.809,41.969,66.809z"/>
<path style="fill:#EEE5DD;" d="M124.077,270.56c23.405,0,42.447-19.042,42.447-42.447v-30.407H45.468v30.405
	c0,23.405,19.042,42.447,42.447,42.447h36.161V270.56z"/>
<g>
	<path style="opacity:0.3;fill:#20272E;enable-background:new    ;" d="M331.758,328.104H180.242c-5.382,0-10.639,0.526-15.74,1.489
		c3.641,9.667,8.783,18.823,15.379,27.093c17.852,22.383,44.356,35.77,72.721,36.728c1.128,0.037,2.261,0.057,3.398,0.057
		s2.27-0.02,3.402-0.057c28.36-0.958,54.863-14.345,72.716-36.728c6.596-8.27,11.738-17.426,15.379-27.094
		C342.396,328.629,337.139,328.104,331.758,328.104z"/>
	<path style="opacity:0.3;fill:#20272E;enable-background:new    ;" d="M502.044,98.823c0-17.681-14.333-32.013-32.013-32.013
		s-32.013,14.333-32.013,32.013c0-17.681-14.333-32.013-32.013-32.013s-32.013,14.333-32.013,32.013
		c0-17.681-14.333-32.013-32.013-32.013s-32.013,14.333-32.013,32.013v39.464v23.908v65.917c0,20.959,8.286,39.971,21.742,53.98
		l170.338-119.898v-23.908V98.823H502.044z"/>
</g>
<path style="fill:#FFA5B7;" d="M332.551,279.34c9.12,47.302-25.677,92.546-73.821,94.172c-0.907,0.031-1.816,0.046-2.729,0.046
	c-0.913,0-1.824-0.016-2.729-0.046c-48.145-1.626-82.943-46.872-73.821-94.172l21.486-111.435c0.645-3.348,1.004-6.738,1.28-10.137
	c2.251-27.733,25.472-49.539,53.785-49.539s51.534,21.806,53.785,49.539c0.276,3.398,0.635,6.789,1.28,10.137L332.551,279.34z"/>
<g>
	<path style="opacity:0.3;fill:#20272E;enable-background:new    ;" d="M332.551,279.34l-21.486-111.435
		c-0.645-3.348-1.004-6.738-1.28-10.136c-2.251-27.733-25.472-49.539-53.785-49.539l0,0v265.328l0,0
		c0.913,0,1.824-0.015,2.729-0.046C306.875,371.886,341.671,326.642,332.551,279.34z"/>
	<path style="opacity:0.3;fill:#20272E;enable-background:new    ;" d="M202.036,98.823c0-17.681-14.333-32.013-32.013-32.013
		S138.01,81.143,138.01,98.823c0-17.681-14.333-32.013-32.013-32.013S73.985,81.143,73.985,98.823
		c0-17.681-14.333-32.013-32.013-32.013S9.956,81.142,9.956,98.823v39.464v23.908v65.917c0,20.959,8.286,39.971,21.742,53.98
		l170.338-119.898v-23.908V98.823z"/>
	<path style="fill:#20272E;" d="M387.924,280.516h36.16c28.896,0,52.405-23.509,52.405-52.405v-30.405
		c0-5.5-4.458-9.956-9.956-9.956H345.477c-5.499,0-9.956,4.456-9.956,9.956v30.405C335.52,257.008,359.029,280.516,387.924,280.516z
		 M355.432,207.663h101.143v20.449c0,17.916-14.575,32.492-32.492,32.492h-36.159c-17.916,0-32.492-14.575-32.492-32.492V207.663z"
		/>
	<path style="fill:#20272E;" d="M166.524,187.75H45.467c-5.499,0-9.956,4.456-9.956,9.956v30.405
		c0,28.896,23.508,52.405,52.405,52.405h36.161c28.896,0,52.403-23.509,52.403-52.405v-30.405
		C176.48,192.208,172.022,187.75,166.524,187.75z M156.568,228.113c0,17.916-14.575,32.492-32.491,32.492H87.916
		c-17.916,0-32.492-14.575-32.492-32.492v-20.45h101.143v20.45H156.568z"/>
	<path style="fill:#20272E;" d="M470.031,56.853c-12.816,0-24.309,5.775-32.013,14.857c-7.705-9.084-19.197-14.857-32.013-14.857
		c-12.816,0-24.309,5.775-32.013,14.857c-7.705-9.084-19.197-14.857-32.013-14.857c-23.142,0-41.969,18.828-41.969,41.969v17.189
		c-11.544-10.985-27.108-17.736-44.008-17.736s-32.464,6.75-44.008,17.736V98.822c0-23.142-18.828-41.969-41.97-41.969
		c-12.816,0-24.309,5.775-32.013,14.857c-7.706-9.083-19.198-14.857-32.014-14.857S81.687,62.627,73.983,71.71
		c-7.705-9.084-19.197-14.857-32.013-14.857C18.828,56.853,0,75.681,0,98.822v63.373v65.917c0,48.477,39.439,87.916,87.916,87.916
		h36.161c15.877,0,31.141-4.204,44.499-12.074c0.526,4.95,1.462,9.838,2.797,14.624c-47.831,4.487-85.395,44.849-85.395,93.835
		c0,22.01,16.798,40.712,38.244,42.575c1.237,0.108,2.49,0.162,3.725,0.162c12.816,0,24.309-5.775,32.014-14.857
		c7.705,9.083,19.197,14.857,32.013,14.857c12.816,0,24.309-5.775,32.013-14.857c7.705,9.084,19.197,14.857,32.013,14.857
		c12.816,0,24.309-5.775,32.013-14.857c7.705,9.084,19.197,14.857,32.013,14.857c12.817,0,24.309-5.775,32.014-14.857
		c7.705,9.083,19.196,14.856,32.012,14.857c0.001,0,0.004,0,0.005,0c0.504,0,1.006-0.009,1.515-0.028
		c22.305-0.793,40.451-19.951,40.451-42.71c0-48.985-37.563-89.348-85.395-93.835c1.335-4.784,2.27-9.674,2.797-14.624
		c13.359,7.869,28.622,12.074,44.499,12.074h36.161c48.477,0,87.916-39.439,87.916-87.916v-65.917V98.822
		C512,75.681,493.172,56.853,470.031,56.853z M199.968,225.508l10.744-55.717c0.094-0.49,0.185-0.989,0.272-1.501
		c0.611-3.575,0.937-7.024,1.156-9.716c1.839-22.647,21.105-40.387,43.862-40.387s42.024,17.739,43.862,40.385
		c0.218,2.69,0.543,6.134,1.155,9.717c0.088,0.511,0.178,1.012,0.272,1.5l21.487,111.435c0.238,1.231,0.439,2.464,0.609,3.698
		c0.004,0.035,0.011,0.068,0.015,0.102c4.936,36.171-20.973,72.396-57.484,77.789c-44.535,6.579-83.316-33.826-77.317-77.789
		c0.005-0.035,0.011-0.068,0.015-0.101c0.17-1.235,0.372-2.468,0.609-3.698L199.968,225.508z M19.913,98.822
		c0-12.163,9.895-22.057,22.057-22.057s22.057,9.894,22.057,22.057c0,5.5,4.458,9.956,9.956,9.956s9.956-4.456,9.956-9.956
		c0-12.163,9.895-22.057,22.057-22.057s22.057,9.894,22.057,22.057c0,5.5,4.458,9.956,9.956,9.956s9.956-4.456,9.956-9.956
		c0-12.163,9.895-22.057,22.057-22.057c12.163,0,22.058,9.894,22.058,22.057v53.416H19.913V98.822z M169.671,277.458
		c-0.084,0.433-0.165,0.871-0.243,1.312c-12.493,11.208-28.476,17.345-45.353,17.345H87.914c-37.495,0-68.002-30.505-68.002-68.002
		v-55.961h170.063L169.671,277.458z M406.11,412.412c0,12.161-9.53,22.394-21.244,22.811c-0.271,0.009-0.538,0.015-0.812,0.015
		c-12.163-0.001-22.058-9.895-22.058-22.057c0-5.5-4.458-9.956-9.956-9.956s-9.956,4.456-9.956,9.956
		c0,12.163-9.895,22.057-22.057,22.057s-22.057-9.894-22.057-22.057c0-5.5-4.458-9.956-9.956-9.956s-9.956,4.456-9.956,9.956
		c0,12.163-9.895,22.057-22.057,22.057s-22.057-9.894-22.057-22.057c0-5.5-4.458-9.956-9.956-9.956
		c-5.499,0-9.956,4.456-9.956,9.956c0,12.163-9.895,22.057-22.057,22.057s-22.057-9.894-22.057-22.057
		c0-5.5-4.458-9.956-9.956-9.956c-5.499,0-9.956,4.456-9.956,9.956c0,12.163-9.895,22.057-22.058,22.057
		c-0.662,0-1.335-0.029-2.001-0.086c-11.247-0.977-20.055-10.965-20.055-22.738c0-40.701,32.874-73.868,73.464-74.346
		c15.354,27.6,45.807,45.757,77.495,45.449c18.158-0.177,36.067-6.478,50.704-17.146c7.673-5.591,14.455-12.391,19.942-20.144
		c2.609-3.688,3.477-6.972,7.539-8.11c3.396-0.952,9.468,0.956,12.848,1.707C381.463,347.277,406.11,378.026,406.11,412.412z
		 M492.087,228.113c0,37.497-30.506,68.003-68.003,68.003h-36.161c-16.877,0-32.86-6.137-45.353-17.345
		c-0.078-0.442-0.159-0.88-0.243-1.314l-12.806-66.419l-7.498-38.884h170.063v55.96H492.087z M492.087,152.238H319.922V98.822
		c0-12.163,9.895-22.057,22.057-22.057s22.057,9.894,22.057,22.057c0,5.5,4.458,9.956,9.956,9.956c5.499,0,9.956-4.456,9.956-9.956
		c0-12.163,9.895-22.057,22.057-22.057c12.161,0,22.057,9.894,22.057,22.057c0,5.5,4.458,9.956,9.956,9.956
		c5.499,0,9.956-4.456,9.956-9.956c0-12.163,9.895-22.057,22.057-22.057c12.161,0,22.057,9.894,22.057,22.057v53.416H492.087z"/>
</g>
<g>
</g>
<g>
</g>
<g>
</g>
<g>
</g>
<g>
</g>
<g>
</g>
<g>
</g>
<g>
</g>
<g>
</g>
<g>
</g>
<g>
</g>
<g>
</g>
<g>
</g>
<g>
</g>
<g>
</g>
</svg>
