<?xml version="1.0" encoding="iso-8859-1"?>
<!-- Generator: Adobe Illustrator 19.0.0, SVG Export Plug-In . SVG Version: 6.00 Build 0)  -->
<svg version="1.1" id="Layer_1" xmlns="http://www.w3.org/2000/svg" xmlns:xlink="http://www.w3.org/1999/xlink" x="0px" y="0px"
	 viewBox="0 0 512 512" style="enable-background:new 0 0 512 512;" xml:space="preserve">
<g>
	<path style="fill:#EEE5DD;" d="M442.604,153.151c-1.373-5.116-2.969-10.138-4.743-15.076c-0.017,0.003-0.033,0.007-0.05,0.01
		c-9.451-26.24-24.428-49.834-43.514-69.403c0.007,0,0.014-0.001,0.019-0.001C359.231,32.698,310.228,10.35,256,10.35l0,0
		c-54.228,0-103.231,22.347-138.316,58.328c1.166,0.153,2.356,0.297,3.533,0.447c-1.17-0.148-2.353-0.291-3.512-0.444
		C98.617,88.25,83.64,111.844,74.189,138.084c-0.017-0.003-0.033-0.006-0.05-0.01c-1.773,4.938-3.37,9.96-4.743,15.076l-0.159,0.578
		c-4.202,15.837-6.445,32.471-6.445,49.631v8.99v76.818v76.619v0.036c0,30.741,10.217,59.091,27.433,81.854
		c0.004,0,0.01,0.001,0.014,0.001c24.797,32.782,64.108,53.971,108.38,53.971h114.76c44.272,0,83.583-21.189,108.38-53.971
		c0.004,0,0.01-0.001,0.014-0.001c17.216-22.763,27.433-51.113,27.433-81.854v-0.036v-76.619V212.35v-8.99
		C449.208,185.991,446.903,169.163,442.604,153.151z"/>
	<path style="fill:#EEE5DD;" d="M394.297,68.681c-40.935,5.364-88.092,8.425-138.297,8.425c-50.206,0-97.361-3.061-138.297-8.425
		c-19.132,19.615-34.138,43.273-43.585,69.588c49.291,9.649,112.695,15.457,181.881,15.457s132.59-5.807,181.881-15.457
		C428.435,111.954,413.428,88.296,394.297,68.681z"/>
</g>
<g>
	<path style="fill:#FFF2E4;" d="M256,77.106c50.213,0,97.377-3.062,138.316-8.428C359.231,32.698,310.228,10.35,256,10.35l0,0
		c-54.228,0-103.231,22.347-138.316,58.328C158.623,74.045,205.785,77.106,256,77.106z"/>
	<path style="fill:#FFF2E4;" d="M442.604,153.151c-1.373-5.116-2.969-10.138-4.743-15.076
		c-49.289,9.647-112.684,15.452-181.862,15.452c-69.177,0-132.575-5.806-181.862-15.452c-1.773,4.938-3.37,9.96-4.743,15.076
		l-0.159,0.578c-4.202,15.837-6.445,32.471-6.445,49.631v8.99c50.713,11.043,118.596,17.797,193.208,17.797
		s142.495-6.754,193.208-17.797v-8.99C449.208,185.991,446.903,169.163,442.604,153.151z"/>
</g>
<path style="fill:#00D8DE;" d="M62.792,212.349v76.817c50.713,11.043,118.596,17.797,193.208,17.797s142.495-6.754,193.208-17.797
	v-76.817C398.495,223.392,330.611,230.146,256,230.146C181.389,230.146,113.505,223.392,62.792,212.349z"/>
<g>
	<path style="fill:#FFF2E4;" d="M62.792,289.167v76.619c50.713,11.043,118.596,17.797,193.208,17.797s142.495-6.754,193.208-17.797
		v-76.619C398.495,300.21,330.611,306.964,256,306.964S113.505,300.209,62.792,289.167z"/>
	<path style="fill:#FFF2E4;" d="M256,460.201c-61.861,0-119.099-4.644-165.761-12.524c24.797,32.782,64.108,53.971,108.38,53.971
		h114.76c44.272,0,83.583-21.191,108.38-53.971C375.099,455.559,317.861,460.201,256,460.201z"/>
</g>
<g>
	<path style="fill:#DDCBBD;" d="M256,77.106c50.213,0,97.377-3.062,138.316-8.428C359.231,32.698,310.228,10.35,256,10.35l0,0
		c-54.228,0-103.231,22.347-138.316,58.328C158.623,74.045,205.785,77.106,256,77.106z"/>
	<path style="fill:#DDCBBD;" d="M442.604,153.151c-1.373-5.116-2.969-10.138-4.743-15.076
		c-49.289,9.647-112.684,15.452-181.862,15.452c-69.177,0-132.575-5.806-181.862-15.452c-1.773,4.938-3.37,9.96-4.743,15.076
		l-0.159,0.578c-4.202,15.837-6.445,32.471-6.445,49.631v8.99c50.713,11.043,118.596,17.797,193.208,17.797
		s142.495-6.754,193.208-17.797v-8.99C449.208,185.991,446.903,169.163,442.604,153.151z"/>
	<path style="fill:#DDCBBD;" d="M62.792,289.167v76.619c50.713,11.043,118.596,17.797,193.208,17.797s142.495-6.754,193.208-17.797
		v-76.619C398.495,300.21,330.611,306.964,256,306.964S113.505,300.209,62.792,289.167z"/>
	<path style="fill:#DDCBBD;" d="M256,460.201c-61.861,0-119.099-4.644-165.761-12.524c24.797,32.782,64.108,53.971,108.38,53.971
		h114.76c44.272,0,83.583-21.191,108.38-53.971C375.099,455.559,317.861,460.201,256,460.201z"/>
</g>
<path style="fill:#EEE5DD;" d="M62.792,365.786v0.037c0,30.741,10.217,59.091,27.433,81.854
	c46.665,7.881,103.907,12.525,165.775,12.525c61.866,0,119.11-4.644,165.773-12.525c17.216-22.763,27.433-51.113,27.433-81.854
	v-0.037c-50.713,11.043-118.596,17.797-193.208,17.797C181.389,383.582,113.505,376.828,62.792,365.786z"/>
<path style="fill:#20272E;" d="M195.278,321.326c0,16.89,6.902,32.166,18.032,43.174c9.326-8.152,24.965-13.501,42.691-13.501
	s33.363,5.349,42.691,13.501c11.13-11.007,18.032-26.282,18.032-43.174H195.278z"/>
<path style="fill:#FFA5B7;" d="M298.691,364.498c-9.326-8.152-24.965-13.501-42.691-13.501s-33.363,5.349-42.691,13.501
	c10.969,10.847,26.044,17.55,42.691,17.55S287.721,375.346,298.691,364.498z"/>
<g>
	<path style="opacity:0.3;fill:#20272E;enable-background:new    ;" d="M442.604,153.151c-1.373-5.116-2.969-10.138-4.743-15.076
		c-0.017,0.003-0.033,0.007-0.05,0.01c-9.451-26.24-24.428-49.834-43.516-69.403c0.007,0,0.014-0.001,0.019-0.003
		C359.231,32.698,310.228,10.35,256,10.35l0,0V501.65h57.38c44.272,0,83.583-21.191,108.38-53.971l0.014-0.001
		c17.216-22.763,27.433-51.114,27.433-81.854v-0.037v-76.619v-76.818v-8.99C449.208,185.991,446.901,169.163,442.604,153.151z"/>
	<path style="fill:#20272E;" d="M452.601,150.467c-1.394-5.193-3.076-10.539-4.999-15.893c-0.126-0.352-0.275-0.69-0.435-1.018
		c-9.753-26.612-25.371-51.437-45.253-71.883c-0.066-0.072-0.12-0.152-0.188-0.222C363.085,21.823,311.332,0,256,0
		S148.915,21.823,110.273,61.451c-0.066,0.069-0.119,0.146-0.184,0.217c-19.885,20.448-35.505,45.275-45.259,71.89
		c-0.16,0.33-0.308,0.667-0.435,1.017c-1.925,5.359-3.606,10.705-4.983,15.84l-0.179,0.658c-4.506,16.982-6.791,34.573-6.791,52.285
		v8.991v76.817v76.619c0,0.007,0.001,0.014,0.001,0.022c0,0.005-0.001,0.011-0.001,0.017c0,32.092,10.211,62.555,29.528,88.097
		c0.061,0.081,0.13,0.153,0.193,0.232C110.086,490.917,152.514,512,198.62,512h114.76c46.106,0,88.535-21.083,116.456-57.849
		c0.063-0.079,0.133-0.15,0.193-0.232c19.318-25.542,29.529-56.005,29.529-88.134v-76.619v-76.817v-8.991
		C459.558,185.461,457.217,167.665,452.601,150.467z M435.528,358.032c-42.31,8.233-85.198,12.212-128.228,14.1
		c-0.564,0.025-1.132,0.047-1.697,0.07c0.12-0.117,0.246-0.226,0.366-0.345c13.609-13.457,21.104-31.403,21.104-50.532
		c0-2.237-0.716-4.302-1.922-5.995c37.815-2.196,75.736-6.156,112.951-13.33c0.248-0.048,0.508-0.091,0.756-0.141v55.513
		c-0.284,0.058-0.564,0.115-0.85,0.172C437.182,357.709,436.355,357.871,435.528,358.032z M201.834,372.005
		c-21.358-0.974-42.688-2.582-63.938-4.932c-21.478-2.375-43.771-4.531-64.783-9.713c0.558-18.433,0.029-37.028,0.029-55.5
		c0.248,0.048,0.508,0.092,0.756,0.141c35.59,6.838,71.647,10.815,107.806,13.021c0.255,0.015,0.508,0.033,0.763,0.05
		c1.456,0.09,2.919,0.175,4.382,0.259c-1.206,1.693-1.922,3.758-1.922,5.995c0,19.129,7.495,37.077,21.105,50.533
		c0.12,0.117,0.246,0.228,0.366,0.345c-0.566-0.023-1.133-0.046-1.697-0.07C203.744,372.092,202.789,372.049,201.834,372.005z
		 M121.599,79.613c0.471,0.058,0.951,0.113,1.424,0.171c61.313,7.61,123.616,9.304,185.307,6.526
		c13.863-0.624,27.714-1.496,41.545-2.618c12.84-1.041,26.256-3.91,39.098-3.91c0.473-0.058,0.955-0.113,1.427-0.171
		c13.719,14.888,24.996,32.133,33.116,50.583c-48.185,8.395-107.069,12.982-167.516,12.982s-119.333-4.589-167.516-12.982
		C96.604,111.744,107.88,94.499,121.599,79.613z M256,164.076c63.216,0,124.896-4.946,174.955-13.977
		c0.591,1.931,1.145,3.848,1.653,5.736c4.147,15.448,6.249,31.438,6.249,47.525v0.578c-0.287,0.058-0.57,0.116-0.857,0.174
		C378.313,216.007,316.245,220,255.444,219.97c-60.405,0-122.157-3.98-181.444-15.858c-0.287-0.058-0.571-0.116-0.857-0.174v-0.578
		c0-15.92,2.052-31.725,6.078-46.896l0.173-0.629c0.506-1.888,1.061-3.802,1.652-5.734C131.104,159.128,192.784,164.076,256,164.076
		z M82.415,226.759c57.109,10.225,115.978,13.893,173.896,13.886c60.576,0,122.211-3.983,181.753-15.455
		c0.261-0.05,0.533-0.097,0.792-0.146v55.711c-0.275,0.055-0.547,0.112-0.823,0.167c-0.851,0.171-1.708,0.338-2.568,0.507
		c-0.789,0.155-1.58,0.308-2.376,0.46c-59.726,11.376-121.583,15.186-182.318,14.878c-59.17-0.304-119.573-4.342-177.63-16.013
		v-55.711c0.261,0.051,0.531,0.097,0.792,0.146C76.757,225.73,79.584,226.253,82.415,226.759z M296.968,350.645
		c-0.284-0.164-0.581-0.319-0.869-0.48c-0.265-0.148-0.529-0.295-0.798-0.44c-23.477-12.596-56.018-12.593-79.4,0.44
		c-0.288,0.161-0.585,0.316-0.869,0.48c-4.095-5.691-6.925-12.131-8.345-18.97h98.628
		C303.893,338.516,301.063,344.954,296.968,350.645z M232.413,365.358c7.946-2.927,16.464-4.206,24.918-4.021
		c4.24,0.092,8.472,0.555,12.632,1.38c1.519,0.301,9.024,3.468,10.164,2.844c-7.32,4.006-15.567,6.137-24.127,6.137
		s-16.809-2.129-24.127-6.137C232.052,365.492,232.231,365.426,232.413,365.358z M370.596,61.038
		c-0.186,0.019-0.371,0.04-0.559,0.059c-61.621,6.434-123.977,7.276-185.795,3.453c-13.966-0.864-28.359-3.458-42.323-3.458
		c-0.173-0.018-0.342-0.037-0.515-0.055C173.763,34.889,213.719,20.701,256,20.701S338.237,34.889,370.596,61.038z M313.38,491.299
		H198.62c-29.902,0-58.005-10.332-80.297-28.999c1.292,1.082,6.145,0.81,7.977,1.032c4.049,0.49,8.111,0.89,12.168,1.303
		c7.832,0.796,15.672,1.514,23.519,2.15c15.693,1.274,31.411,2.227,47.144,2.862c31.464,1.268,62.979,1.26,94.441-0.028
		c15.414-0.631,30.815-1.569,46.192-2.813c14.41-1.166,29.507-4.507,43.913-4.507C371.385,480.967,343.281,491.299,313.38,491.299z
		 M415.929,438.138c-0.89,0.145-1.777,0.291-2.673,0.433c-60.606,9.615-122.699,12.523-184.004,11.047
		c-43.603-1.156-87.406-4.212-130.506-11.047c-0.896-0.142-1.783-0.288-2.675-0.433c-12.545-17.732-20.132-38.043-22.289-59.536
		c0.232,0.044,0.475,0.087,0.708,0.131c59.774,11.41,121.655,15.396,182.46,15.349c60.201,0,121.494-4.006,180.67-15.37
		c0.199-0.037,0.404-0.073,0.603-0.112C436.068,400.082,428.478,420.399,415.929,438.138z"/>
	<circle style="fill:#20272E;" cx="163.826" cy="271.622" r="17.247"/>
	<circle style="fill:#20272E;" cx="348.174" cy="271.622" r="17.247"/>
</g>
<g>
</g>
<g>
</g>
<g>
</g>
<g>
</g>
<g>
</g>
<g>
</g>
<g>
</g>
<g>
</g>
<g>
</g>
<g>
</g>
<g>
</g>
<g>
</g>
<g>
</g>
<g>
</g>
<g>
</g>
</svg>
