<?xml version="1.0" encoding="iso-8859-1"?>
<!-- Generator: Adobe Illustrator 19.0.0, SVG Export Plug-In . SVG Version: 6.00 Build 0)  -->
<svg version="1.1" id="Layer_1" xmlns="http://www.w3.org/2000/svg" xmlns:xlink="http://www.w3.org/1999/xlink" x="0px" y="0px"
	 viewBox="0 0 512 512" style="enable-background:new 0 0 512 512;" xml:space="preserve">
<g>
	<path style="fill:#664B33;" d="M106.36,267.49H70.213c-10.436,0-18.895,8.46-18.895,18.895c0,10.436,8.46,18.895,18.895,18.895
		h36.147C106.36,305.281,106.36,267.49,106.36,267.49z"/>
	<path style="fill:#664B33;" d="M405.163,267.49h36.624c10.436,0,18.895,8.46,18.895,18.895c0,10.436-8.46,18.895-18.895,18.895
		h-36.624V267.49z"/>
</g>
<g>
	<rect x="80.632" y="267.485" style="opacity:0.3;fill:#20272E;enable-background:new    ;" width="13.856" height="37.79"/>
	<rect x="417.515" y="267.485" style="opacity:0.3;fill:#20272E;enable-background:new    ;" width="13.856" height="37.79"/>
</g>
<rect x="237.099" y="379.57" style="fill:#664B33;" width="37.79" height="93.236"/>
<rect x="212.431" y="258.251" style="fill:#FFF2E4;" width="87.147" height="132.956"/>
<g>
	<polygon style="fill:#A93CCB;" points="225.542,267.49 94.485,267.49 94.485,332.617 168.455,332.617 168.455,409.001 
		225.542,409.001 	"/>
	<polygon style="fill:#A93CCB;" points="286.458,267.49 286.458,409.001 343.545,409.001 343.545,332.617 417.515,332.617 
		417.515,267.49 	"/>
</g>
<path style="opacity:0.3;fill:#20272E;enable-background:new    ;" d="M347.329,267.49c-10.603,5.052-22.468,7.886-34.995,7.886
	h-25.877l0,0h-60.916l0,0h-25.877c-12.527,0-24.392-2.834-34.995-7.886h-30.141c17.359,15.38,40.173,24.736,65.135,24.736h112.669
	c24.962,0,47.777-9.355,65.136-24.736H347.329L347.329,267.49z"/>
<path style="fill:#00C279;" d="M150.126,503.575c0-23.575,47.401-42.686,105.874-42.686S361.874,480,361.874,503.575H150.126z"/>
<rect x="237.099" y="391.196" style="opacity:0.3;fill:#20272E;enable-background:new    ;" width="37.79" height="13.856"/>
<path style="fill:#FF8800;" d="M370.043,95.297V78.516H141.957v16.781c-15.004,22.062-23.774,48.704-23.774,77.397v21.202
	c0,45.001,36.481,81.481,81.481,81.481h112.669c45.001,0,81.481-36.481,81.481-81.481v-21.202
	C393.816,144.001,385.046,117.358,370.043,95.297z"/>
<g>
	<path style="fill:#B35F00;" d="M216.229,130.217c-3.239-3.795-9.087-3.795-12.325,0c-9.329,10.93-24.449,36.048-9.534,36.048
		h31.392C240.678,166.267,225.558,141.147,216.229,130.217z"/>
	<path style="fill:#B35F00;" d="M295.771,130.217c3.239-3.795,9.087-3.795,12.325,0c9.329,10.93,24.449,36.048,9.534,36.048h-31.392
		C271.322,166.267,286.442,141.147,295.771,130.217z"/>
	<path style="fill:#B35F00;" d="M251.805,159.217c2.205-2.584,6.185-2.584,8.389,0c6.35,7.44,16.642,24.538,6.489,24.538h-21.368
		C235.164,183.755,245.455,166.657,251.805,159.217z"/>
	<path style="fill:#B35F00;" d="M291.596,198.566h-14.944v6.62c0,3.351-2.716,6.067-6.067,6.067s-6.067-2.716-6.067-6.067v-6.62
		h-17.034v6.62c0,3.351-2.716,6.067-6.067,6.067c-3.351,0-6.067-2.716-6.067-6.067v-6.62h-14.944c-3.351,0-6.067,2.716-6.067,6.067
		c0,22.973,18.69,41.664,41.663,41.664c22.973,0,41.663-18.69,41.663-41.664C297.663,201.282,294.948,198.566,291.596,198.566z"/>
</g>
<path style="opacity:0.3;fill:#20272E;enable-background:new    ;" d="M379.825,112.147c-2.872-5.86-6.139-11.493-9.782-16.85
	H141.958c-3.643,5.357-6.911,10.988-9.782,16.85H379.825z"/>
<path style="fill:#FFE046;" d="M338.189,51.254c-39.468-57.105-124.91-57.105-164.378,0c-1.904,2.756-3.698,5.641-5.356,8.665v9.108
	h175.09v-9.108C341.887,56.896,340.094,54.009,338.189,51.254z"/>
<path style="fill:#ECB400;" d="M408.058,59.919H103.942c-9.77,0-17.689,7.919-17.689,17.689s7.919,17.689,17.689,17.689h304.116
	c9.77,0,17.689-7.919,17.689-17.689S417.828,59.919,408.058,59.919z"/>
<g>
	<path style="opacity:0.3;fill:#20272E;enable-background:new    ;" d="M441.787,267.49h-10.415h-13.856l0,0h-12.352H377.47h-30.141
		l0,0c27.486-13.093,46.486-41.122,46.486-73.596v-21.202c0-25.207-6.772-48.831-18.591-69.157c-0.026-0.044-0.053-0.087-0.079-0.13
		c-0.789-1.352-1.595-2.694-2.429-4.017c-0.819-1.303-1.664-2.589-2.526-3.863c-0.051-0.075-0.099-0.154-0.149-0.229h38.016
		c9.77,0,17.689-7.919,17.689-17.689s-7.919-17.689-17.689-17.689h-64.513c-1.658-3.023-3.451-5.91-5.356-8.665
		c-19.784-28.624-51.12-42.897-82.427-42.824v495.146h106.112c0-20.975-37.522-38.415-86.979-42.008v-56.512l0,0v-13.836v-0.02
		h11.563v17.802h57.086v-76.384h73.972V305.28h13.856h10.415c10.436,0,18.895-8.46,18.895-18.895
		C460.682,275.949,452.223,267.49,441.787,267.49z"/>
	<path style="fill:#20272E;" d="M441.787,259.066h-24.272H374.17c17.269-16.394,28.069-39.537,28.069-65.172v-21.2
		c0-24.286-5.943-47.846-17.273-68.972h23.091c14.399,0,26.114-11.715,26.114-26.114s-11.715-26.114-26.114-26.114h-59.67
		c-1.042-1.702-2.131-3.385-3.269-5.031C325.012,17.37,291.696,0,256,0s-69.012,17.37-89.12,46.464
		c-1.137,1.646-2.226,3.327-3.269,5.03h-59.67c-14.399,0-26.114,11.715-26.114,26.114s11.715,26.114,26.114,26.114h23.09
		c-11.33,21.126-17.273,44.686-17.273,68.972v21.2c0,25.634,10.801,48.778,28.07,65.172H94.485H70.213
		c-15.065,0-27.32,12.255-27.32,27.319c0,15.065,12.255,27.32,27.32,27.32H86.06v18.912c0,4.654,3.772,8.425,8.425,8.425h65.547
		v67.959c0,4.654,3.772,8.425,8.425,8.425h57.086c1.11,0,2.168-0.22,3.139-0.61v37.091c-45.853,4.861-86.98,21.926-86.98,49.669
		c0,4.654,3.772,8.425,8.425,8.425h211.747c0.007,0,0.013,0,0.022,0c4.653,0,8.425-3.771,8.425-8.425
		c0-0.25-0.011-0.498-0.033-0.744c-0.729-27.302-41.528-44.107-86.969-48.925v-37.091c0.971,0.39,2.028,0.61,3.139,0.61h57.086
		c4.653,0,8.425-3.771,8.425-8.425v-67.959h65.547c4.653,0,8.425-3.771,8.425-8.425v-18.912h15.847
		c15.065,0,27.32-12.255,27.32-27.32C469.107,271.321,456.852,259.066,441.787,259.066z M86.06,296.856H70.213
		c-5.774,0-10.47-4.698-10.47-10.47c0-5.773,4.697-10.469,10.47-10.469H86.06V296.856z M256,16.85
		c28.696,0,54.598,12.554,71.908,34.644H184.092C201.402,29.404,227.304,16.85,256,16.85z M103.942,86.872
		c-5.108,0-9.264-4.155-9.264-9.264s4.156-9.264,9.264-9.264h64.513h175.09h64.513c5.108,0,9.264,4.155,9.264,9.264
		s-4.156,9.264-9.264,9.264h-38.016H141.958H103.942z M217.117,391.199v9.377h-40.236v-67.959c0-4.654-3.772-8.425-8.425-8.425
		H102.91v-18.912v-29.366h59.905c0.461,0.208,0.931,0.385,1.394,0.585c8.967,3.863,18.573,6.237,28.307,7.014
		c6.204,0.495,12.479,0.286,18.699,0.286c1.968,0,3.936,0,5.904,0v107.398H217.117z M349.672,495.15H162.327
		c9.428-10.966,36.083-22.362,75.095-25.175c0.098-0.003,0.194,0.001,0.292-0.006c11.981-0.871,24.587-0.871,36.569,0
		c0.142,0.01,0.282,0.012,0.422,0.015C313.646,472.814,340.255,484.197,349.672,495.15z M237.106,382.774h-3.139v-98.973h44.067
		v98.973h-3.137H237.106z M266.47,399.624v53.041c-4.428-0.171-8.864-0.233-13.294-0.184c-0.539,0.006-1.078,0.013-1.618,0.022
		c-2.008,0.035-4.019,0.084-6.028,0.162v-53.041H266.47z M225.542,266.951c-7.91,0-15.822,0-23.732,0
		c-17.538,0-34.468-5.234-48.151-16.354c-11.714-9.52-20.357-22.623-24.398-37.173c-1.765-6.351-2.651-12.938-2.651-19.53v-21.2
		c0-24.591,6.866-48.34,19.898-68.972h218.986c13.033,20.632,19.897,44.382,19.897,68.972v21.2c0,15.403-4.955,30.586-14.047,43.02
		c-9.244,12.642-22.514,22.175-37.49,26.786c-12.581,3.873-25.547,3.251-38.525,3.251c-2.957,0-5.913,0-8.87,0h-60.917V266.951z
		 M409.09,305.281v18.912h-65.546c-4.653,0-8.425,3.771-8.425,8.425v67.959h-40.237v-9.377V283.801
		c14.336,0,28.539,0.48,42.475-3.561c4.026-1.168,8.003-2.603,11.827-4.325h59.906L409.09,305.281L409.09,305.281z M441.787,296.856
		H425.94v-20.941h15.847c5.774,0,10.47,4.697,10.47,10.469C452.257,292.157,447.561,296.856,441.787,296.856z"/>
</g>
<g>
</g>
<g>
</g>
<g>
</g>
<g>
</g>
<g>
</g>
<g>
</g>
<g>
</g>
<g>
</g>
<g>
</g>
<g>
</g>
<g>
</g>
<g>
</g>
<g>
</g>
<g>
</g>
<g>
</g>
</svg>
