<?xml version="1.0" encoding="iso-8859-1"?>
<!-- Generator: Adobe Illustrator 19.0.0, SVG Export Plug-In . SVG Version: 6.00 Build 0)  -->
<svg version="1.1" id="Layer_1" xmlns="http://www.w3.org/2000/svg" xmlns:xlink="http://www.w3.org/1999/xlink" x="0px" y="0px"
	 viewBox="0 0 512 512" style="enable-background:new 0 0 512 512;" xml:space="preserve">
<path style="fill:#FF3C63;" d="M468.017,229.833c-8.456-8.456-22.167-8.456-30.622,0l-64.696,64.696
	c-14.341,14.341-37.673,14.341-52.013,0l-36.296-36.296l90.702-90.702c8.456-8.456,8.456-22.167,0-30.622s-22.167-8.456-30.622,0
	l-90.702,90.702l-36.297-36.297c-14.339-14.339-14.339-37.673,0-52.013l64.696-64.696c8.456-8.456,8.456-22.167,0-30.622
	c-8.456-8.456-22.167-8.456-30.622,0l-64.696,64.696c-31.225,31.225-31.225,82.032,0,113.257l36.297,36.297L15.622,465.755
	c-8.456,8.456-8.456,22.167,0,30.622c8.456,8.456,22.167,8.456,30.622,0l207.524-207.524l36.296,36.296
	c31.225,31.225,82.032,31.225,113.257,0l64.696-64.696C476.473,251.999,476.473,238.288,468.017,229.833z"/>
<g>
	<path style="opacity:0.3;fill:#20272E;enable-background:new    ;" d="M325.878,155.5l30.622,30.622l18.592-18.592
		c8.456-8.456,8.456-22.167,0-30.622s-22.167-8.456-30.622,0L325.878,155.5z"/>
	<path style="opacity:0.3;fill:#20272E;enable-background:new    ;" d="M232.953,62.576l30.622,30.622l18.593-18.593
		c8.456-8.456,8.456-22.167,0-30.622s-22.167-8.456-30.622,0L232.953,62.576z"/>
	<path style="opacity:0.3;fill:#20272E;enable-background:new    ;" d="M437.395,229.833l-18.593,18.593l30.622,30.622
		l18.593-18.593c8.456-8.456,8.456-22.167,0-30.622C459.56,221.377,445.851,221.377,437.395,229.833z"/>
</g>
<g>
	<path style="fill:#FF3C63;" d="M396.757,177.342l12.821-62.658c1.495-7.303-4.96-13.757-12.263-12.263l-62.657,12.822
		c-8.111,1.659-11.117,11.674-5.265,17.527l49.836,49.836C385.083,188.459,395.097,185.451,396.757,177.342z"/>
	<path style="fill:#FF3C63;" d="M303.832,84.418l12.821-62.658c1.495-7.303-4.96-13.757-12.263-12.263l-62.657,12.821
		c-8.111,1.659-11.117,11.674-5.265,17.527l49.836,49.836C292.159,95.535,302.173,92.527,303.832,84.418z"/>
	<path style="fill:#FF3C63;" d="M427.583,208.167l62.658-12.821c7.303-1.495,13.757,4.96,12.263,12.263l-12.821,62.657
		c-1.659,8.111-11.674,11.117-17.527,5.265l-49.836-49.836C416.466,219.841,419.473,209.827,427.583,208.167z"/>
</g>
<path style="fill:#D93354;" d="M15.623,496.378c8.456,8.456,22.167,8.456,30.622,0l207.524-207.524l-30.622-30.622L15.623,465.755
	C7.167,474.212,7.167,487.922,15.623,496.378z"/>
<g>
	<path style="opacity:0.3;fill:#20272E;enable-background:new    ;" d="M489.682,270.266l12.822-62.657
		c1.493-7.303-4.96-13.758-12.263-12.263l-62.658,12.821c-8.109,1.659-11.117,11.674-5.264,17.528l9.607,9.607l-13.123,13.123
		L372.7,294.527c-14.341,14.341-37.673,14.341-52.013,0l-36.296-36.296l72.11-72.11l13.123-13.123l9.607,9.607
		c5.854,5.854,15.867,2.846,17.528-5.264l12.821-62.658c0.747-3.651-0.492-7.09-2.832-9.43L15.623,496.378
		c8.456,8.456,22.165,8.456,30.622,0l207.524-207.524l36.296,36.296c31.225,31.225,82.032,31.225,113.257,0l46.103-46.103
		l13.123-13.123l9.607,9.607C478.007,281.384,488.022,278.376,489.682,270.266z"/>
	<path style="fill:#20272E;" d="M507.574,193.1c-3.761-4.608-9.305-7.251-15.209-7.251c-1.329,0-2.669,0.136-3.983,0.406
		l-62.657,12.821c-7.103,1.453-12.811,6.669-14.896,13.613c-2.086,6.943-0.197,14.441,4.93,19.567l3.045,3.045l-52.664,52.664
		c-5.183,5.183-12.089,8.038-19.444,8.038c-7.357,0-14.263-2.854-19.445-8.038l-29.734-29.733l72.11-72.109l3.045,3.045
		c3.721,3.721,8.643,5.77,13.86,5.77c0,0,0,0,0.001,0c9.479,0,17.424-6.47,19.32-15.735l12.821-62.658
		c1.19-5.813-0.276-11.781-4.021-16.369c-3.761-4.609-9.305-7.252-15.21-7.252c-1.329,0-2.669,0.136-3.983,0.406l-62.657,12.821
		c-7.102,1.453-12.81,6.669-14.896,13.612c-2.086,6.944-0.197,14.442,4.929,19.568l3.045,3.045l-72.11,72.111l-29.734-29.735
		c-5.182-5.182-8.036-12.087-8.036-19.445c0-7.356,2.855-14.261,8.038-19.445L276.704,93.2l3.044,3.044
		c3.721,3.722,8.643,5.771,13.86,5.771l0,0c9.479,0,17.424-6.47,19.32-15.735l12.821-62.659c1.189-5.813-0.276-11.779-4.021-16.369
		C317.965,2.643,312.42,0,306.513,0c-1.328,0-2.668,0.135-3.982,0.405l-62.657,12.821c-7.103,1.453-12.811,6.669-14.897,13.612
		c-2.086,6.944-0.197,14.442,4.929,19.568l3.045,3.045l-52.663,52.665c-34.843,34.843-34.844,91.537,0,126.383l29.735,29.733
		L9.061,459.192C3.219,465.035,0,472.803,0,481.067c0,8.263,3.218,16.031,9.061,21.873S22.672,512,30.933,512
		c8.263,0,16.031-3.218,21.873-9.06l200.962-200.962l29.734,29.734c16.855,16.854,39.296,26.137,63.19,26.137
		s46.335-9.284,63.19-26.137l52.665-52.664l3.045,3.045c3.721,3.721,8.643,5.77,13.86,5.77c9.48,0,17.425-6.471,19.321-15.736
		l12.821-62.658C512.785,203.656,511.32,197.688,507.574,193.1z M335.678,125.102c0.191-0.636,0.646-0.729,0.84-0.768l62.658-12.821
		c0.094-0.02,0.181-0.028,0.262-0.028c0.437,0,0.726,0.298,0.831,0.427c0.323,0.396,0.246,0.772,0.216,0.913l-12.821,62.658
		c-0.174,0.853-0.978,0.897-1.136,0.897c-0.287,0-0.501-0.097-0.737-0.335l-49.836-49.837
		C335.817,126.067,335.488,125.738,335.678,125.102z M242.754,32.178c0.191-0.636,0.646-0.729,0.841-0.768l62.656-12.821
		c0.094-0.02,0.181-0.027,0.262-0.027c0.437,0,0.728,0.298,0.833,0.427c0.323,0.395,0.246,0.772,0.217,0.912l-12.821,62.658
		c-0.174,0.853-0.979,0.897-1.137,0.897c-0.286,0-0.5-0.097-0.737-0.335l-49.836-49.836
		C242.892,33.142,242.564,32.814,242.754,32.178z M396.76,318.587c-13.349,13.349-31.13,20.702-50.067,20.702
		s-36.718-7.352-50.067-20.702l-36.296-36.296c-3.624-3.623-9.5-3.623-13.123,0L39.684,489.815
		c-2.337,2.337-5.444,3.625-8.749,3.625s-6.412-1.288-8.749-3.625s-3.624-5.443-3.624-8.748c0-3.306,1.288-6.413,3.624-8.749
		l207.524-207.524c1.741-1.741,2.718-4.1,2.718-6.563s-0.977-4.821-2.718-6.563l-36.297-36.296
		c-27.607-27.607-27.606-72.526,0-100.133l52.664-52.665l17.499,17.499l-52.664,52.664c-8.688,8.688-13.473,20.255-13.473,32.569
		c0,12.314,4.785,23.882,13.473,32.569l36.296,36.297c1.74,1.74,4.1,2.717,6.562,2.717c2.461,0,4.822-0.977,6.562-2.717
		l78.671-78.673l8.749,8.749l8.749,8.749l-78.671,78.67c-1.741,1.741-2.718,4.1-2.718,6.563s0.977,4.821,2.718,6.563l36.296,36.294
		c8.687,8.688,20.255,13.474,32.569,13.474s23.88-4.785,32.569-13.473l52.664-52.664l8.749,8.749l8.749,8.749L396.76,318.587z
		 M493.412,205.748l-12.821,62.657c-0.174,0.854-0.979,0.898-1.137,0.898c-0.286,0-0.499-0.097-0.736-0.335l-49.836-49.836
		c-0.141-0.14-0.469-0.469-0.278-1.105c0.191-0.636,0.646-0.729,0.841-0.768l62.658-12.821c0.093-0.02,0.181-0.028,0.262-0.028
		c0.436,0,0.726,0.298,0.83,0.427C493.518,205.231,493.442,205.607,493.412,205.748z"/>
</g>
<g>
</g>
<g>
</g>
<g>
</g>
<g>
</g>
<g>
</g>
<g>
</g>
<g>
</g>
<g>
</g>
<g>
</g>
<g>
</g>
<g>
</g>
<g>
</g>
<g>
</g>
<g>
</g>
<g>
</g>
</svg>
