<?xml version="1.0" encoding="iso-8859-1"?>
<!-- Generator: Adobe Illustrator 19.0.0, SVG Export Plug-In . SVG Version: 6.00 Build 0)  -->
<svg version="1.1" id="Layer_1" xmlns="http://www.w3.org/2000/svg" xmlns:xlink="http://www.w3.org/1999/xlink" x="0px" y="0px"
	 viewBox="0 0 512 512" style="enable-background:new 0 0 512 512;" xml:space="preserve">
<g>
	<path style="fill:#00969B;" d="M26.686,246.242H9.529v39.761c0,39.268,31.833,71.101,71.101,71.101l0,0v-56.918
		C80.628,270.393,56.478,246.242,26.686,246.242z"/>
	<path style="fill:#00969B;" d="M485.314,246.242h17.158v39.761c0,39.268-31.833,71.101-71.101,71.101l0,0v-56.918
		C431.371,270.393,455.522,246.242,485.314,246.242z"/>
</g>
<path style="fill:#00D8DE;" d="M427.787,161.5C407.436,85.681,338.243,29.856,256,29.856l0,0
	c-82.243,0-151.436,55.823-171.787,131.644l-0.146,0.532c-3.869,14.58-5.933,29.893-5.933,45.69v149.38
	c0,69.059,55.983,125.042,125.042,125.042h105.647c69.059,0,125.042-55.983,125.042-125.042v-149.38
	C433.866,191.733,431.744,176.241,427.787,161.5z"/>
<path style="fill:#00969B;" d="M256,348.901c-8.007,0-15.327-4.386-19.105-11.443l-12.2-22.791
	c-2.484-4.64-0.736-10.414,3.904-12.898c4.64-2.483,10.414-0.736,12.898,3.904l12.2,22.791c0.61,1.141,1.589,1.38,2.303,1.38
	c0.714,0,1.694-0.239,2.303-1.38l12.2-22.791c2.484-4.64,8.258-6.385,12.898-3.904c4.64,2.484,6.387,8.258,3.904,12.898
	l-12.2,22.791C271.327,344.515,264.007,348.901,256,348.901z"/>
<g style="opacity:0.3;">
	<path style="fill:#20272E;" d="M485.314,246.242c-24.129,0-44.554,15.845-51.448,37.696v-76.216c0-15.99-2.123-31.481-6.079-46.222
		C407.436,85.681,338.244,29.856,256,29.856l0,0v452.288h52.824c69.059,0,125.042-55.983,125.042-125.042v-0.064
		c38.11-1.317,68.605-32.607,68.605-71.037V246.24h-17.158V246.242z"/>
</g>
<path style="fill:#20272E;" d="M502.471,236.713h-17.158c-15.891,0-30.631,5.816-41.919,15.737v-44.728
	c0-16.477-2.155-32.858-6.404-48.692C415.071,77.364,340.645,20.328,256,20.328c-84.644,0-159.069,57.037-180.976,138.653
	l-0.166,0.609c-4.148,15.633-6.252,31.829-6.252,48.133v44.728c-11.288-9.921-26.028-15.737-41.919-15.737H9.529
	c-5.262,0-9.529,4.266-9.529,9.529v39.761c0,21.043,8.06,40.954,22.696,56.065c12.503,12.909,28.659,21.124,46.196,23.676
	c4.471,70.19,62.986,125.929,134.285,125.929h105.647c71.299,0,129.814-55.739,134.285-125.929
	c17.536-2.552,33.693-10.767,46.196-23.676C503.94,326.956,512,307.044,512,286.002v-39.761
	C512,240.979,507.734,236.713,502.471,236.713z M68.605,346.395c-28.46-5.557-49.548-30.42-49.548-60.393V255.77h7.629
	c19.013,0,35.684,11.88,41.919,29.707V346.395z M424.337,283.938v73.102v0.062c0,63.694-51.82,115.514-115.514,115.514H203.176
	c-63.694,0-115.514-51.82-115.514-115.514v-0.062v-73.1v-76.217c0-14.656,1.889-29.206,5.594-43.171l0.159-0.582
	C113.105,90.616,179.962,39.385,256,39.385c76.039,0,142.896,51.232,162.585,124.586c3.818,14.222,5.753,28.943,5.753,43.751
	V283.938z M492.943,286.002c0,29.973-21.089,54.837-49.548,60.393v-60.918c6.235-17.827,22.907-29.707,41.919-29.707h7.629V286.002z
	"/>
<g>
	<circle style="fill:#1E252B;" cx="171.145" cy="311.685" r="15.877"/>
	<circle style="fill:#1E252B;" cx="340.855" cy="311.685" r="15.877"/>
</g>
<path style="fill:#20272E;" d="M311.901,367.611c0,30.874-25.028,55.901-55.901,55.901s-55.901-25.028-55.901-55.901H311.901z"/>
<g>
	<path style="fill:#FFFFFF;" d="M278.904,391.982c5.262,0,9.529-4.266,9.529-9.529v-14.843h-19.057v14.843
		C269.376,387.716,273.642,391.982,278.904,391.982z"/>
	<path style="fill:#FFFFFF;" d="M233.095,391.982c5.262,0,9.529-4.266,9.529-9.529v-14.843h-19.057v14.843
		C223.566,387.716,227.832,391.982,233.095,391.982z"/>
</g>
<g>
	<path style="fill:#20272E;" d="M256,433.041c-36.078,0-65.429-29.352-65.429-65.429c0-5.262,4.266-9.529,9.529-9.529h111.801
		c5.262,0,9.529,4.266,9.529,9.529C321.429,403.69,292.076,433.041,256,433.041z M210.611,377.141
		c4.406,21.015,23.083,36.844,45.389,36.844s40.982-15.829,45.389-36.844H210.611z"/>
	<path style="fill:#20272E;" d="M197.111,289.953c-0.577,0-1.16-0.053-1.747-0.161l-51.031-9.46
		c-5.175-0.959-8.591-5.932-7.632-11.106c0.959-5.173,5.929-8.588,11.106-7.632l51.03,9.46c5.175,0.959,8.591,5.931,7.632,11.105
		C205.619,286.747,201.614,289.953,197.111,289.953z"/>
	<path style="fill:#20272E;" d="M314.889,289.953c-4.504,0-8.508-3.205-9.358-7.794c-0.959-5.175,2.458-10.146,7.632-11.105
		l51.03-9.46c5.173-0.959,10.146,2.458,11.106,7.632c0.959,5.175-2.458,10.146-7.632,11.106l-51.031,9.46
		C316.05,289.9,315.464,289.953,314.889,289.953z"/>
</g>
<g>
</g>
<g>
</g>
<g>
</g>
<g>
</g>
<g>
</g>
<g>
</g>
<g>
</g>
<g>
</g>
<g>
</g>
<g>
</g>
<g>
</g>
<g>
</g>
<g>
</g>
<g>
</g>
<g>
</g>
</svg>
