<?xml version="1.0" encoding="iso-8859-1"?>
<!-- Generator: Adobe Illustrator 19.0.0, SVG Export Plug-In . SVG Version: 6.00 Build 0)  -->
<svg version="1.1" id="Layer_1" xmlns="http://www.w3.org/2000/svg" xmlns:xlink="http://www.w3.org/1999/xlink" x="0px" y="0px"
	 viewBox="0 0 512 512" style="enable-background:new 0 0 512 512;" xml:space="preserve">
<path style="fill:#DDCBBD;" d="M364.352,351.011l84.999,68.131c18.613,14.919,21.607,42.1,6.688,60.713
	c-14.919,18.612-42.101,21.606-60.713,6.687c-1.506-1.207-3.078-2.678-4.379-4.036l-74.82-79.174
	c-13.528-14.315-12.89-36.887,1.425-50.415C330.657,340.534,350.681,340.029,364.352,351.011z"/>
<path style="opacity:0.3;fill:#20272E;enable-background:new    ;" d="M364.352,351.011c-13.671-10.981-33.695-10.476-46.8,1.907
	c-14.315,13.528-14.953,36.099-1.425,50.415l25.979,27.491c19.035-13.16,34.134-32.649,43.099-56.918
	c0.591-1.599,1.136-3.218,1.667-4.845L364.352,351.011z"/>
<path style="fill:#DDCBBD;" d="M172.243,351.011l-84.999,68.131c-18.613,14.919-21.607,42.1-6.688,60.713
	c14.919,18.612,42.102,21.606,60.713,6.687c1.506-1.207,3.078-2.678,4.379-4.036l74.82-79.174
	c13.528-14.315,12.89-36.887-1.425-50.415C205.939,340.534,185.915,340.029,172.243,351.011z"/>
<path style="opacity:0.3;fill:#20272E;enable-background:new    ;" d="M219.043,352.918c-13.104-12.383-33.129-12.889-46.8-1.907
	l-22.521,18.052c0.532,1.626,1.076,3.246,1.667,4.845c8.965,24.27,24.065,43.758,43.099,56.918l25.979-27.491
	C233.997,389.018,233.359,366.446,219.043,352.918z"/>
<path style="fill:#DDCBBD;" d="M192.145,307.629L89.522,271.091c-22.473-8-34.202-32.703-26.202-55.176
	c8.001-22.471,32.704-34.202,55.176-26.201c1.819,0.648,3.786,1.523,5.459,2.379l96.623,50.305
	c17.47,9.096,24.259,30.631,15.164,48.101C227.414,306.492,208.66,313.528,192.145,307.629z"/>
<path style="opacity:0.3;fill:#20272E;enable-background:new    ;" d="M220.576,242.398l-43.96-22.886
	c-12.189,17.521-21.336,36.261-27.067,55.682c-1.556,5.271-2.82,10.579-3.856,15.897l46.453,16.539
	c16.513,5.899,35.268-1.137,43.595-17.128C244.835,273.03,238.046,251.494,220.576,242.398z"/>
<path style="fill:#DDCBBD;" d="M344.45,307.629l102.623-36.537c22.473-8,34.202-32.703,26.203-55.176
	c-8.001-22.471-32.704-34.202-55.176-26.201c-1.819,0.648-3.786,1.523-5.459,2.379l-96.623,50.305
	c-17.47,9.096-24.259,30.631-15.164,48.101C309.181,306.492,327.936,313.528,344.45,307.629z"/>
<path style="opacity:0.3;fill:#20272E;enable-background:new    ;" d="M387.046,275.193c-5.731-19.42-14.878-38.161-27.067-55.682
	l-43.96,22.886c-17.47,9.096-24.259,30.632-15.164,48.103c8.327,15.992,27.081,23.028,43.595,17.128l46.453-16.539
	C389.866,285.771,388.602,280.463,387.046,275.193z"/>
<path style="fill:#8A8791;" d="M119.712,234.164c-4.285,0-8.015-3.168-8.602-7.532L91.905,83.975
	c-0.64-4.757,2.696-9.132,7.454-9.773c4.759-0.642,9.131,2.696,9.773,7.453l19.205,142.657c0.64,4.757-2.696,9.132-7.454,9.773
	C120.489,234.138,120.097,234.164,119.712,234.164z"/>
<circle style="fill:#FF3C63;" cx="100.519" cy="82.814" r="30.727"/>
<path style="fill:#8A8791;" d="M136.718,433.13c-2.35,0-4.693-0.948-6.407-2.816L33.008,324.24
	c-3.244-3.536-3.007-9.035,0.53-12.279s9.035-3.008,12.279,0.53l97.304,106.074c3.244,3.536,3.007,9.035-0.53,12.279
	C140.922,432.373,138.818,433.13,136.718,433.13z"/>
<circle style="fill:#FF3C63;" cx="39.419" cy="318.362" r="30.727"/>
<path style="fill:#8A8791;" d="M395.206,243.581c-1.598,0-3.215-0.44-4.663-1.364c-4.047-2.581-5.237-7.952-2.657-12l77.373-121.38
	c2.579-4.047,7.952-5.237,11.999-2.657c4.047,2.58,5.237,7.952,2.657,12l-77.373,121.38
	C400.885,242.16,398.076,243.581,395.206,243.581z"/>
<circle style="fill:#00D8DE;" cx="472.589" cy="113.509" r="30.727"/>
<path style="fill:#EEE5DD;" d="M308.503,188.65c114.277,97.771,71.106,243.791-27.935,243.791h-24.542
	c-99.041,0-142.212-146.02-27.935-243.791L308.503,188.65L308.503,188.65z"/>
<path style="opacity:0.3;fill:#20272E;enable-background:new    ;" d="M268.297,242.853c26.311,0,50.705-8.363,70.664-22.57
	c-8.556-10.915-18.656-21.534-30.46-31.633h-80.41c-11.804,10.1-21.904,20.718-30.46,31.633
	C217.592,234.49,241.987,242.853,268.297,242.853z"/>
<circle style="fill:#DDCBBD;" cx="268.293" cy="120.716" r="104.75"/>
<g>
	<path style="opacity:0.3;fill:#20272E;enable-background:new    ;" d="M492.413,90.034c-12.965-10.95-32.352-9.316-43.302,3.649
		c-9.923,11.75-9.511,28.774,0.302,40.012l-37.451,58.753l-57.341,29.854l-10.169,5.294c-4.97-6.974-10.558-13.847-16.789-20.565
		c27.415-18.892,45.389-50.5,45.389-86.311c0-57.855-46.9-104.754-104.754-104.754v416.476h12.271
		c18.727,0,35.453-5.228,49.498-14.357l12.039,12.74l48.841,51.683c1.3,1.357,2.871,2.827,4.379,4.035
		c18.612,14.919,45.794,11.925,60.713-6.687c14.919-18.613,11.925-45.794-6.688-60.713l-62.478-50.079l-9.16-7.342l-5.475-4.388
		c4.956-18.452,5.914-39.059,2.111-60.348l72.725-25.892c22.473-8.001,34.202-32.703,26.203-55.176
		c-5.911-16.6-20.936-27.326-37.443-28.581l28.241-44.303c11.283,3.247,23.923-0.147,31.989-9.697
		C507.013,120.37,505.379,100.983,492.413,90.034z"/>
	<circle style="fill:#20272E;" cx="215.142" cy="145.699" r="16.396"/>
	<circle style="fill:#20272E;" cx="321.432" cy="145.699" r="16.396"/>
	<path style="fill:#20272E;" d="M511.858,110.199c-0.884-10.492-5.802-20.011-13.845-26.804c-7.104-6.001-16.131-9.305-25.419-9.305
		c-11.642,0-22.624,5.097-30.131,13.986c-13.266,15.707-12.096,38.848,2.124,53.177l-24.776,38.867
		c-1.559,0.397-3.105,0.862-4.634,1.407c-2.064,0.735-4.373,1.74-6.558,2.859l-61.627,32.087c-2.127-2.772-4.356-5.498-6.647-8.195
		c25.258-20.824,41.388-52.342,41.388-87.558c0-62.553-50.891-113.444-113.444-113.444S154.846,58.167,154.846,120.72
		c0,35.215,16.128,66.734,41.388,87.558c-2.291,2.696-4.518,5.423-6.647,8.195l-61.682-32.114c-1.718-0.879-3.548-1.695-5.276-2.366
		l-8.378-62.232c14.979-5.59,25.676-20.038,25.676-36.942c0-21.736-17.683-39.419-39.418-39.419
		c-21.736,0-39.418,17.683-39.418,39.419c0,20.561,15.825,37.484,35.934,39.254l7.599,56.451c-0.209-0.002-0.416-0.013-0.625-0.013
		c-21.89,0-41.53,13.862-48.877,34.492c-9.594,26.951,4.525,56.682,31.475,66.276l65.946,23.478
		c-2.343,17.66-1.642,34.967,2.023,51.278l-40.713,32.635l-42.046-45.836c3.189-4.596,5.386-9.86,6.4-15.529
		c1.853-10.365-0.441-20.832-6.46-29.47c-7.366-10.575-19.468-16.889-32.37-16.889c-8.078,0-15.86,2.447-22.505,7.078
		c-17.834,12.425-22.235,37.041-9.811,54.874c7.367,10.576,19.468,16.889,32.37,16.889c6.91,0,13.598-1.805,19.55-5.222
		l41.279,44.999L81.8,412.36c-10.813,8.667-17.604,21.026-19.12,34.801c-1.517,13.775,2.421,27.316,11.088,38.128
		c9.899,12.35,24.664,19.433,40.508,19.434c0.001,0,0.002,0,0.003,0c11.732,0,23.245-4.049,32.419-11.403
		c1.71-1.372,3.562-3.075,5.258-4.846l56.108-59.375c14.312,7.818,30.572,12.029,47.953,12.029h24.542
		c17.381,0,33.643-4.211,47.953-12.029l56.15,59.419c1.652,1.723,3.504,3.429,5.218,4.804c9.171,7.352,20.686,11.401,32.42,11.401
		c0.001,0,0,0,0,0c15.843,0,30.609-7.085,40.508-19.434c8.667-10.812,12.605-24.354,11.088-38.128
		c-1.517-13.774-8.307-26.134-19.12-34.801l-72.766-58.327c3.665-16.309,4.366-33.616,2.023-51.277l65.946-23.478
		c26.95-9.594,41.069-39.325,31.475-66.276c-6.387-17.938-22.073-30.754-40.448-33.795l18.237-28.61
		c4.246,1.527,8.751,2.331,13.32,2.331c11.642,0,22.624-5.097,30.131-13.985C509.487,130.898,512.741,120.69,511.858,110.199z
		 M21.323,330.961c-6.947-9.97-4.485-23.732,5.484-30.679c3.717-2.589,8.062-3.958,12.57-3.958c7.219,0,13.989,3.531,18.109,9.443
		c3.365,4.83,4.648,10.681,3.612,16.475c-1.036,5.795-4.266,10.839-9.096,14.205c-3.717,2.589-8.064,3.957-12.57,3.957
		C32.212,340.403,25.442,336.875,21.323,330.961z M172.226,120.719c0-52.969,43.093-96.063,96.063-96.063
		s96.063,43.093,96.063,96.063c0,77.674-93.541,123.499-154.849,75.928C186.201,178.565,172.226,150.228,172.226,120.719z
		 M78.472,82.817c0-12.152,9.885-22.038,22.037-22.038s22.037,9.885,22.037,22.038c0,12.15-9.885,22.037-22.037,22.037
		S78.472,94.967,78.472,82.817z M71.498,218.831c4.885-13.722,17.947-22.941,32.501-22.941c0.997,0,1.991,0.045,2.98,0.132
		l4.122,30.61c0.587,4.364,4.317,7.532,8.601,7.532c0.386,0,0.778-0.025,1.171-0.079c4.755-0.641,8.093-5.015,7.453-9.773
		l-2.915-21.658l54.084,28.158c-10.091,15.729-17.542,32.193-22.277,49.179c-0.022,0.078-0.043,0.155-0.065,0.233
		c-0.483,1.74-0.947,3.484-1.372,5.235l-63.354-22.556C74.507,256.524,65.117,236.752,71.498,218.831z M139.366,476.493
		c-1.13,1.18-2.421,2.371-3.54,3.268c-6.189,4.961-13.639,7.583-21.547,7.583c0,0-0.001,0-0.002,0
		c-10.543-0.001-20.365-4.711-26.948-12.923c-5.764-7.191-8.382-16.196-7.373-25.355s5.525-17.379,12.716-23.142l19.365-15.522
		l18.267,19.914c1.714,1.868,4.056,2.816,6.407,2.816c2.1,0,4.204-0.756,5.872-2.286c3.536-3.246,3.774-8.743,0.53-12.28
		l-17.482-19.059l34.328-27.517c0.419,1.1,0.866,2.187,1.314,3.273c0.06,0.145,0.119,0.291,0.18,0.436
		c0.262,0.626,0.504,1.26,0.775,1.882c7.445,17.057,18.148,31.156,31.197,41.712L139.366,476.493z M255.984,424.196
		c-15.189-1.214-30.315-4.662-43.327-12.458c-16.313-9.774-28.233-25.871-35.344-43.508
		c-20.635-51.171-1.481-109.761,33.156-149.896c-0.991,1.148,33.913,13.353,37.823,14.046c26.631,4.722,54.554-0.225,77.818-14.046
		c26.41,30.601,44.267,71.99,41.873,112.981c-2.07,35.441-22.008,70.993-54.498,85.303c-15.703,6.916-33.257,8.636-50.404,7.991
		C260.718,424.521,258.351,424.385,255.984,424.196z M443.906,425.923c7.191,5.764,11.707,13.981,12.716,23.142
		c1.009,9.16-1.609,18.164-7.373,25.355c-6.584,8.213-16.405,12.923-26.946,12.923c-7.911,0-15.363-2.622-21.549-7.58
		c-1.122-0.899-2.413-2.092-3.499-3.225l-54.099-57.249c13.049-10.556,23.752-24.656,31.195-41.712
		c0.271-0.621,0.513-1.255,0.775-1.882c0.06-0.145,0.119-0.291,0.18-0.436c0.448-1.087,0.895-2.174,1.314-3.273L443.906,425.923z
		 M432.578,195.891c14.555,0,27.616,9.219,32.501,22.941c6.381,17.922-3.008,37.693-20.93,44.073l-63.354,22.556
		c-0.425-1.751-0.889-3.495-1.372-5.235c-0.022-0.078-0.043-0.155-0.065-0.233c-4.735-16.986-12.185-33.45-22.277-49.179
		l45.523-23.701l-14.729,23.106c-2.579,4.046-1.39,9.419,2.657,11.999c1.448,0.924,3.065,1.364,4.663,1.364
		c2.87,0,5.679-1.422,7.337-4.021l27.775-43.572C431.063,195.938,431.819,195.891,432.578,195.891z M489.414,127.728
		c-4.197,4.968-10.339,7.818-16.851,7.818c-5.188,0-10.232-1.848-14.203-5.2c-9.284-7.842-10.458-21.773-2.618-31.056
		c4.197-4.969,10.338-7.819,16.851-7.819c5.188,0,10.232,1.848,14.204,5.203c4.497,3.797,7.246,9.119,7.74,14.985
		C495.032,117.524,493.213,123.231,489.414,127.728z"/>
</g>
<g>
</g>
<g>
</g>
<g>
</g>
<g>
</g>
<g>
</g>
<g>
</g>
<g>
</g>
<g>
</g>
<g>
</g>
<g>
</g>
<g>
</g>
<g>
</g>
<g>
</g>
<g>
</g>
<g>
</g>
</svg>
