<?xml version="1.0" encoding="iso-8859-1"?>
<!-- Generator: Adobe Illustrator 19.0.0, SVG Export Plug-In . SVG Version: 6.00 Build 0)  -->
<svg version="1.1" id="Layer_1" xmlns="http://www.w3.org/2000/svg" xmlns:xlink="http://www.w3.org/1999/xlink" x="0px" y="0px"
	 viewBox="0 0 512 512" style="enable-background:new 0 0 512 512;" xml:space="preserve">
<g>
	<path style="fill:#FF8800;" d="M456.791,357.593l-39.763-74.594l-0.107-1.262L389.968,463.41h3.316
		C447.607,463.411,482.344,405.528,456.791,357.593z"/>
	<path style="fill:#FF8800;" d="M95.079,282.798L95.079,282.798L95.079,282.798l-39.87,74.794
		c-25.552,47.936,9.185,105.818,63.507,105.818h3.316L95.079,282.798z"/>
</g>
<g>
	<path style="opacity:0.3;fill:#20272E;enable-background:new    ;" d="M95.077,282.799L95.077,282.799l-17.242,32.345v74.982
		c0,25.946,7.622,50.146,20.741,70.48c6.322,1.815,13.062,2.805,20.138,2.805h3.316L95.077,282.799L95.077,282.799z"/>
	<path style="opacity:0.3;fill:#20272E;enable-background:new    ;" d="M416.923,282.799L416.923,282.799l17.242,32.345v74.982
		c0,25.946-7.622,50.146-20.741,70.48c-6.322,1.815-13.062,2.805-20.138,2.805h-3.316L416.923,282.799L416.923,282.799z"/>
</g>
<path style="fill:#00C279;" d="M95.077,281.738v108.388c0,62.48,50.65,113.13,113.131,113.13h95.583
	c62.48,0,113.13-50.65,113.13-113.13V281.738H95.077z"/>
<g>
	<circle style="fill:#1E252B;" cx="179.233" cy="354.293" r="14.365"/>
	<circle style="fill:#1E252B;" cx="332.764" cy="354.293" r="14.365"/>
</g>
<path style="fill:#20272E;" d="M306.575,404.891c0,27.933-22.644,50.576-50.576,50.576s-50.576-22.644-50.576-50.576H306.575z"/>
<path style="fill:#008678;" d="M256.001,387.962C255.999,387.962,255.999,387.962,256.001,387.962
	c-7.245,0-13.867-3.968-17.285-10.354l-11.038-20.62c-2.247-4.198-0.666-9.422,3.532-11.669c4.195-2.248,9.421-0.667,11.668,3.532
	l11.038,20.62c0.552,1.032,1.438,1.248,2.084,1.248c0.001,0,0.001,0,0.001,0c0.646,0,1.532-0.216,2.084-1.249l11.038-20.62
	c2.246-4.197,7.471-5.779,11.668-3.532c4.198,2.247,5.779,7.471,3.532,11.669l-11.038,20.62
	C269.866,383.996,263.242,387.962,256.001,387.962z"/>
<g>
	<path style="fill:#FF8740;" d="M202.722,334.631c-0.522,0-1.051-0.048-1.582-0.146l-46.169-8.559
		c-4.681-0.868-7.773-5.367-6.905-10.048c0.868-4.682,5.375-7.768,10.047-6.905l46.169,8.559c4.681,0.868,7.773,5.367,6.905,10.048
		C210.418,331.729,206.795,334.631,202.722,334.631z"/>
	<path style="fill:#FF8740;" d="M309.278,334.631c-4.074,0-7.697-2.9-8.466-7.051c-0.868-4.682,2.224-9.179,6.905-10.048
		l46.169-8.559c4.675-0.868,9.178,2.223,10.047,6.905c0.868,4.682-2.224,9.179-6.905,10.048l-46.169,8.559
		C310.329,334.583,309.8,334.631,309.278,334.631z"/>
</g>
<polygon style="fill:#A93CCB;" points="84.732,257.025 110.655,227.95 111.108,227.701 110.655,227.701 256.001,8.497 
	401.345,227.701 400.892,227.701 401.345,227.95 427.268,257.025 "/>
<path style="fill:#B857D0;" d="M455.712,227.701H56.288c-14.922,0-27.018,12.097-27.018,27.018l0,0
	c0,14.922,12.097,27.018,27.018,27.018h399.424c14.922,0,27.018-12.097,27.018-27.018l0,0
	C482.729,239.797,470.634,227.701,455.712,227.701z"/>
<g>
	<polygon style="opacity:0.3;fill:#20272E;enable-background:new    ;" points="84.123,303.35 427.877,303.35 416.921,282.798 
		416.921,281.738 95.079,281.738 95.079,282.798 	"/>
	<path style="opacity:0.3;fill:#20272E;enable-background:new    ;" d="M455.712,281.986c14.921,0,27.018-12.097,27.018-27.018
		s-12.097-27.018-27.018-27.018h-54.366L256.001,8.745v494.758h47.792c34.521,0,65.426-15.467,86.177-39.844h3.316
		c54.322,0,89.059-57.881,63.507-105.818l-28.914-54.243l0,0l-10.955-20.552v-1.06H455.712z"/>
</g>
<g>
	<path style="fill:#FFFFFF;" d="M268.102,418.444c0,4.761,3.86,8.621,8.621,8.621c4.761,0,8.621-3.86,8.621-8.621v-4.808h-17.242
		V418.444z"/>
	<path style="fill:#FFFFFF;" d="M226.656,418.444c0,4.761,3.86,8.621,8.621,8.621c4.761,0,8.621-3.86,8.621-8.621v-4.808h-17.242
		V418.444z"/>
</g>
<g>
	<path style="fill:#20272E;" d="M255.999,464.212c-32.641,0-59.196-26.556-59.196-59.196c0-4.761,3.86-8.621,8.621-8.621h101.151
		c4.762,0,8.621,3.86,8.621,8.621C315.196,437.656,288.641,464.212,255.999,464.212z M214.936,413.636
		c3.986,19.013,20.884,33.334,41.065,33.334c20.181,0,37.079-14.321,41.065-33.334H214.936z"/>
	<path style="fill:#20272E;" d="M491.35,254.843c0-19.652-15.988-35.639-35.638-35.639h-49.738L263.186,3.856
		C261.588,1.448,258.89,0,256.001,0c-2.89,0-5.587,1.448-7.185,3.856L106.027,219.205H56.288c-19.651,0-35.638,15.988-35.638,35.639
		s15.988,35.638,35.638,35.638h24.99l-33.678,63.179c-13.437,25.21-12.683,54.882,2.017,79.377
		c14.611,24.345,40.219,38.932,68.578,39.109C140.48,496.617,172.582,512,208.208,512h95.583c35.627,0,67.727-15.382,90.012-39.853
		c28.36-0.176,53.969-14.763,68.579-39.11c14.7-24.495,15.454-54.168,2.016-79.376l-33.678-63.179h24.99
		C475.364,290.482,491.35,274.495,491.35,254.843z M256.001,24.221l129.286,194.984H126.715L256.001,24.221z M64.401,424.165
		c-11.555-19.253-12.147-42.578-1.585-62.394l23.641-44.349c0,22.92-1.895,45.833-0.754,68.753
		c0.553,11.097,2.221,22.116,5.056,32.861c2.969,11.246,9.265,21.897,11.853,33.005C89.651,455.785,70.117,433.688,64.401,424.165z
		 M407.303,399.59c-5.141,53.305-49.47,95.168-103.512,95.168c0,0-95.554,0-95.583,0c-32.234,0-60.711-15.498-80.815-40.247
		c-25.814-31.778-23.693-68.015-23.693-106.895c0-19.045,0-38.09,0-57.135h304.602c0,25.041,0.599,50.081,0.223,75.121
		C408.355,376.981,408.383,388.385,407.303,399.59z M449.184,361.771c10.562,19.815,9.97,43.141-1.584,62.394
		c-8.622,14.366-23.001,25.31-39.435,28.997c4.838-1.085,11.183-24.467,12.545-29.412c3.177-11.535,4.685-23.466,5.385-35.389
		c1.389-23.642-0.552-47.293-0.552-70.94L449.184,361.771z M416.921,273.24H95.077H56.288c-10.144,0-18.397-8.253-18.397-18.397
		c0-10.144,8.253-18.397,18.397-18.397h54.366h290.691h54.365c10.144,0,18.397,8.253,18.397,18.397
		c0,10.144-8.253,18.397-18.397,18.397H416.921z"/>
</g>
<g>
</g>
<g>
</g>
<g>
</g>
<g>
</g>
<g>
</g>
<g>
</g>
<g>
</g>
<g>
</g>
<g>
</g>
<g>
</g>
<g>
</g>
<g>
</g>
<g>
</g>
<g>
</g>
<g>
</g>
</svg>
