<?xml version="1.0" encoding="iso-8859-1"?>
<!-- Generator: Adobe Illustrator 19.0.0, SVG Export Plug-In . SVG Version: 6.00 Build 0)  -->
<svg version="1.1" id="Layer_1" xmlns="http://www.w3.org/2000/svg" xmlns:xlink="http://www.w3.org/1999/xlink" x="0px" y="0px"
	 viewBox="0 0 512 512" style="enable-background:new 0 0 512 512;" xml:space="preserve">
<path style="fill:#FF738D;" d="M434.661,164.828c-0.932-5.368-2.086-10.696-3.497-15.956C409.953,69.843,337.923,14.649,256,14.649
	S102.047,69.843,80.814,148.953l-0.127,0.463c-1.348,5.081-2.453,10.227-3.352,15.416v24.204h357.238v-24.204l-0.003-0.004H434.661z
	"/>
<g>
	<path style="fill:#008678;" d="M56.501,270.399c-25.426,0-46.038,20.613-46.038,46.038l0,0c0,25.426,20.613,46.038,46.038,46.038
		h6.975v-92.076L56.501,270.399L56.501,270.399z"/>
	<path style="fill:#008678;" d="M455.499,270.399h-6.975v92.076h6.975c25.426,0,46.038-20.613,46.038-46.038l0,0
		C501.537,291.011,480.926,270.399,455.499,270.399z"/>
</g>
<path style="fill:#00C279;" d="M450.955,184.418l-38.704-46.539l-39.063,46.971l-39.063-46.971l-39.063,46.971L256,137.879
	l-39.063,46.971l-39.063-46.971l-39.063,46.971l-39.063-46.971l-38.707,46.543l-0.028,0.53c-0.212,3.659-0.329,7.345-0.329,11.059
	v164.033c0,75.833,61.475,137.308,137.308,137.308h116.011c75.833,0,137.308-61.475,137.308-137.308V196.011
	c0-3.714-0.117-7.4-0.329-11.06L450.955,184.418z"/>
<path style="fill:#FFA5B7;" d="M299.156,390.324c-9.428-8.241-25.237-13.648-43.156-13.648s-33.726,5.407-43.156,13.648
	c11.088,10.965,26.328,17.741,43.156,17.741S288.068,401.289,299.156,390.324z"/>
<g>
	<path style="opacity:0.3;fill:#20272E;enable-background:new    ;" d="M455.499,270.399h-4.185v-74.388
		c0-3.714-0.116-7.4-0.329-11.06l-0.029-0.533l-16.292-19.591c-0.932-5.368-2.086-10.696-3.497-15.956
		c-0.527-1.964-1.095-3.909-1.684-5.844c-0.084-0.276-0.166-0.552-0.251-0.827c-0.576-1.857-1.182-3.698-1.814-5.527
		c-0.103-0.3-0.208-0.598-0.313-0.897c-0.652-1.854-1.328-3.694-2.035-5.518c-0.068-0.174-0.138-0.346-0.207-0.519
		C397.94,61.079,331.134,14.649,256,14.649v482.703h58.005c75.02,0,135.979-60.166,137.277-134.875h4.216
		c25.426,0,46.038-20.613,46.038-46.038l0,0C501.537,291.011,480.926,270.399,455.499,270.399z"/>
	<path style="fill:#20272E;" d="M317.384,336.218H194.616c-5.778,0-10.463,4.685-10.463,10.463c0,19.33,7.573,37.467,21.324,51.07
		c0.004,0.004,0.007,0.008,0.011,0.013c13.541,13.39,31.479,20.765,50.512,20.765s36.971-7.374,50.512-20.763
		c0.004-0.004,0.007-0.008,0.011-0.013c13.751-13.605,21.324-31.741,21.324-51.072C327.847,340.903,323.163,336.218,317.384,336.218
		z M256,397.602c-8.655,0-16.992-2.153-24.39-6.204c0.187-0.071,0.374-0.142,0.562-0.211c15.018-5.536,32.624-5.54,47.655,0
		c0.188,0.07,0.377,0.14,0.562,0.211C272.992,395.45,264.655,397.602,256,397.602z"/>
	<circle style="fill:#20272E;" cx="162.822" cy="313.171" r="17.434"/>
	<circle style="fill:#20272E;" cx="349.178" cy="313.171" r="17.434"/>
	<path style="fill:#20272E;" d="M461.777,260.293v-64.282c0-3.785-0.117-7.712-0.346-11.636l-0.029-0.532
		c-0.124-2.243-0.965-4.388-2.402-6.115l-14.545-17.49c-0.908-4.824-1.968-9.552-3.184-14.079
		C418.833,62.567,342.647,4.185,256,4.185S93.157,62.601,70.72,146.193l-0.146,0.54c-1.15,4.329-2.161,8.867-3.033,13.513
		l-14.542,17.486c-1.443,1.734-2.285,3.888-2.404,6.14l-0.025,0.476c-0.23,3.962-0.346,7.886-0.346,11.663v64.282
		C22.013,263.427,0,287.405,0,316.438c0,29.219,22.295,53.329,50.766,56.211c6.419,75.602,69.995,135.165,147.229,135.165h116.011
		c77.234,0,140.81-59.564,147.227-135.165C489.705,369.767,512,345.657,512,316.437C512,287.405,489.987,263.427,461.777,260.293z
		 M50.223,351.458c-16.632-2.974-29.297-17.546-29.297-35.021c0-17.474,12.665-32.047,29.297-35.021V351.458z M256,25.112
		c68.541,0,129.733,40.995,156.583,102.308c-0.053-0.001-0.106,0.006-0.16,0.004c-0.057-0.001-0.114-0.01-0.172-0.01
		c-5.286,0-8.514,4.296-11.567,8.005c-2.33,2.831-4.688,5.64-7.033,8.458c-5.262,6.328-10.525,12.656-15.787,18.983
		c-0.269,0.324-4.809,5.463-4.676,5.622l-31.017-37.298c-1.988-2.39-4.936-3.774-8.046-3.774s-6.057,1.383-8.046,3.774
		l-31.017,37.301l-31.017-37.298c-1.988-2.39-4.936-3.774-8.046-3.774s-6.057,1.383-8.046,3.774l-31.017,37.298l-31.017-37.298
		c-1.988-2.39-4.936-3.774-8.046-3.774c-3.11,0-6.058,1.383-8.046,3.774l-31.017,37.298c-2.469-2.969-4.939-5.939-7.408-8.908
		c-4.749-5.71-9.498-11.42-14.247-17.13c-1.988-2.39-3.975-4.78-5.963-7.169c-1.868-2.246-3.637-4.929-6.191-6.408
		c-1.47-0.851-3.114-1.357-4.81-1.43c-0.148-0.006-0.294-0.025-0.444-0.025c-0.052,0-0.102,0.008-0.155,0.008
		c-0.056,0.001-0.11-0.006-0.166-0.004C126.308,66.108,187.487,25.112,256,25.112z M440.85,270.399v89.645
		c0,0.713-0.015,1.423-0.027,2.133l-0.003,0.123c0,0.004,0,0.01,0,0.014c-1.216,68.9-57.633,124.575-126.816,124.575H197.995
		c-69.184,0-125.602-55.68-126.816-124.579c0-0.006,0-0.011,0-0.017l-0.003-0.106c-0.013-0.713-0.027-1.426-0.027-2.141V270.4
		v-74.389c0-2.455,0.056-4.987,0.166-7.578l28.433-34.19l31.017,37.298c1.988,2.39,4.936,3.772,8.046,3.772
		c3.11,0,6.058-1.383,8.046-3.774l31.017-37.298l31.017,37.298c1.988,2.39,4.936,3.774,8.046,3.774c3.11,0,6.057-1.383,8.046-3.774
		L256,154.242l31.017,37.298c1.988,2.39,4.936,3.774,8.046,3.774c3.11,0,6.058-1.383,8.046-3.774l31.017-37.298l31.017,37.298
		c1.988,2.39,4.936,3.774,8.046,3.774c3.11,0,6.057-1.383,8.046-3.774l31.017-37.298l9.824,11.812l4.542,5.463
		c0.001,0.001,0.001,0.001,0.003,0.003l14.064,16.911c0.11,2.573,0.166,5.112,0.166,7.58V270.399z M461.777,351.458v-70.042
		c16.632,2.974,29.297,17.546,29.297,35.021C491.074,333.912,478.409,348.484,461.777,351.458z"/>
</g>
<g>
</g>
<g>
</g>
<g>
</g>
<g>
</g>
<g>
</g>
<g>
</g>
<g>
</g>
<g>
</g>
<g>
</g>
<g>
</g>
<g>
</g>
<g>
</g>
<g>
</g>
<g>
</g>
<g>
</g>
</svg>
