<?xml version="1.0" encoding="iso-8859-1"?>
<!-- Generator: Adobe Illustrator 19.0.0, SVG Export Plug-In . SVG Version: 6.00 Build 0)  -->
<svg version="1.1" id="Layer_1" xmlns="http://www.w3.org/2000/svg" xmlns:xlink="http://www.w3.org/1999/xlink" x="0px" y="0px"
	 viewBox="0 0 511.987 511.987" style="enable-background:new 0 0 511.987 511.987;" xml:space="preserve">
<path style="fill:#DA4453;" d="M319.93,0c-5.891,0-10.655,4.781-10.655,10.672h-21.344C287.931,4.781,283.165,0,277.275,0
	c-5.883,0-10.664,4.781-10.664,10.672h-21.327C245.284,4.781,240.503,0,234.612,0s-10.671,4.781-10.671,10.672h-21.328
	C202.613,4.781,197.832,0,191.941,0s-10.656,4.781-10.656,10.672l42.655,106.669h63.99l42.671-106.669
	C330.601,4.781,325.82,0,319.93,0z"/>
<path style="fill:#ED5564;" d="M256.127,95.56c-225.135,0-173.605,395.272-173.605,395.272
	c1.516,11.655,12.359,21.155,24.093,21.155h298.657c11.734,0,22.577-9.5,24.108-21.124C429.38,490.864,481.27,95.56,256.127,95.56z"
	/>
<rect x="223.973" y="383.994" style="fill:#7F4545;" width="63.99" height="63.999"/>
<polygon style="fill:#8CC153;" points="159.942,405.335 255.939,234.666 351.929,405.335 "/>
<polygon style="fill:#A0D468;" points="181.301,319.992 255.971,170.668 330.633,319.992 "/>
<path style="fill:#FFCE54;" d="M298.602,106.232h-85.318c-5.891,0-10.671-4.781-10.671-10.671c0-5.891,4.781-10.672,10.671-10.672
	h85.318c5.891,0,10.672,4.781,10.672,10.672C309.274,101.451,304.493,106.232,298.602,106.232z"/>
<g>
</g>
<g>
</g>
<g>
</g>
<g>
</g>
<g>
</g>
<g>
</g>
<g>
</g>
<g>
</g>
<g>
</g>
<g>
</g>
<g>
</g>
<g>
</g>
<g>
</g>
<g>
</g>
<g>
</g>
</svg>
