<?xml version="1.0" encoding="iso-8859-1"?>
<!-- Generator: Adobe Illustrator 19.0.0, SVG Export Plug-In . SVG Version: 6.00 Build 0)  -->
<svg version="1.1" id="Layer_1" xmlns="http://www.w3.org/2000/svg" xmlns:xlink="http://www.w3.org/1999/xlink" x="0px" y="0px"
	 viewBox="0 0 511.985 511.985" style="enable-background:new 0 0 511.985 511.985;" xml:space="preserve">
<g>
	<path style="fill:#F6BB42;" d="M342.381,228.568c-5.922-10.265-16.671-16.007-27.733-16c-5.437,0-10.937,1.375-15.968,4.289
		c-15.312,8.836-20.547,28.405-11.719,43.71c5.938,10.266,16.688,16,27.749,16c5.422,0,10.922-1.391,15.969-4.297
		C345.974,263.442,351.224,243.872,342.381,228.568z M320.007,253.802c-1.641,0.953-3.438,1.438-5.297,1.438
		c-3.874,0-7.343-2-9.265-5.336c-2.953-5.094-1.203-11.632,3.891-14.57c1.656-0.953,3.437-1.438,5.312-1.438l0,0
		c3.875,0,7.328,1.992,9.266,5.335C326.85,244.325,325.1,250.864,320.007,253.802z"/>
	<path style="fill:#F6BB42;" d="M213.353,24.252c-5.047-2.914-10.546-4.296-15.968-4.296c-11.062,0-21.812,5.742-27.734,16.007
		c-8.843,15.305-3.594,34.874,11.703,43.71c5.046,2.906,10.546,4.289,15.968,4.289c11.062,0,21.812-5.734,27.734-16
		C233.9,52.658,228.65,33.088,213.353,24.252z M206.588,57.29c-1.921,3.344-5.39,5.344-9.265,5.344
		c-1.875,0-3.656-0.484-5.297-1.438c-5.094-2.938-6.844-9.476-3.906-14.57c1.922-3.344,5.391-5.336,9.266-5.336
		c1.875,0,3.656,0.484,5.297,1.43C207.775,45.666,209.525,52.197,206.588,57.29z"/>
</g>
<g>
	<path style="fill:#FFCE54;" d="M494.815,300.019c35.344,61.218,14.374,139.497-46.843,174.84s-139.496,14.375-174.84-46.843
		c-35.342-61.218-14.359-139.497,46.858-174.832C381.209,217.842,459.472,238.817,494.815,300.019z"/>
	<path style="fill:#FFCE54;" d="M17.17,107.422c-35.343,61.217-14.374,139.489,46.843,174.832s139.497,14.375,174.84-46.842
		c35.342-61.217,14.358-139.489-46.858-174.832C130.777,25.236,52.514,46.205,17.17,107.422z"/>
</g>
<path style="fill:#F6BB42;" d="M501.831,314.097c-2.016-4.766-4.359-9.469-7.016-14.078c-1.25-2.156-2.547-4.266-3.906-6.328
	c-10.546,13.641-39.53,45.702-100.544,80.936c-61.077,35.265-103.592,44.437-120.764,46.812c1.109,2.203,2.281,4.406,3.531,6.578
	c2.656,4.578,5.547,8.938,8.656,13.078c22.844-4.312,63.904-16.047,119.231-47.999C456.207,361.237,486.737,331.69,501.831,314.097z
	"/>
<path style="fill:#434A54;" d="M456.988,469.14l-26.438-45.796l0,0l0,0c-2.953-5.109-9.469-6.844-14.577-3.906
	c-5.094,2.953-6.844,9.469-3.906,14.578c0.016,0,0.016,0,0.016,0.016l26.437,45.78c3.188-1.516,6.344-3.156,9.453-4.953
	S454.082,471.156,456.988,469.14z"/>
<path style="fill:#F6BB42;" d="M121.199,182.796c-65.858-38.015-93.06-72.226-99.935-81.975c-1.422,2.148-2.797,4.344-4.094,6.602
	c-2.656,4.593-4.984,9.273-7,14.031c13.453,16.453,43.28,46.866,100.357,79.811c57.202,33.023,98.654,43.726,119.685,47.194
	c3.109-4.125,5.984-8.469,8.641-13.046c1.297-2.266,2.516-4.555,3.672-6.859C230.462,227.404,186.994,220.779,121.199,182.796z"/>
<path style="fill:#434A54;" d="M96.013,226.834c-5.109-2.945-11.625-1.195-14.578,3.906l0,0l-26.437,45.796
	c2.906,2.016,5.906,3.922,9.016,5.718c3.109,1.797,6.266,3.438,9.453,4.953l26.437-45.788c0,0,0.016-0.008,0.016-0.016
	C102.856,236.302,101.106,229.779,96.013,226.834z"/>
<g>
</g>
<g>
</g>
<g>
</g>
<g>
</g>
<g>
</g>
<g>
</g>
<g>
</g>
<g>
</g>
<g>
</g>
<g>
</g>
<g>
</g>
<g>
</g>
<g>
</g>
<g>
</g>
<g>
</g>
</svg>
