<?xml version="1.0" encoding="iso-8859-1"?>
<!-- Generator: Adobe Illustrator 19.0.0, SVG Export Plug-In . SVG Version: 6.00 Build 0)  -->
<svg version="1.1" id="Layer_1" xmlns="http://www.w3.org/2000/svg" xmlns:xlink="http://www.w3.org/1999/xlink" x="0px" y="0px"
	 viewBox="0 0 511.99 511.99" style="enable-background:new 0 0 511.99 511.99;" xml:space="preserve">
<path style="fill:#F6BB42;" d="M511.988,490.661c0,11.78-9.562,21.327-21.343,21.327H21.336C9.555,511.988,0,502.441,0,490.661
	V42.672c0-11.781,9.555-21.335,21.336-21.335h469.31c11.781,0,21.343,9.554,21.343,21.335v447.99H511.988z"/>
<path style="fill:#FFCE54;" d="M511.988,447.991c0,11.78-9.562,21.343-21.343,21.343H21.336C9.555,469.333,0,459.771,0,447.991
	V21.336C0,9.555,9.555,0.001,21.336,0.001h469.31c11.781,0,21.343,9.555,21.343,21.335v426.655H511.988z"/>
<g>
	<rect x="213.334" y="0.001" style="fill:#48CFAD;" width="85.32" height="469.33"/>
	<rect x="0" y="213.335" style="fill:#48CFAD;" width="511.99" height="85.33"/>
</g>
<path style="fill:#DA4453;" d="M274.713,279.651l14.672-10.266l-33.609,6.562l-33.601-6.562l14.672,10.266L83.03,309.681
	l3.953,11.562c0.367,1.094,9.531,26.703,46.077,26.703l0,0c29.171,0,67.874-16.734,115.036-49.702l7.68-5.375l7.688,5.375
	c47.156,32.968,85.873,49.702,115.029,49.702l0,0c36.562,0,45.717-25.609,46.092-26.703l3.938-11.562L274.713,279.651z"/>
<path style="fill:#ED5564;" d="M417.46,170.215c-8.547-13.625-21.983-20.828-38.874-20.828c-25.094,0-58.905,15.945-100.514,47.397
	c-8.039,6.07-15.562,12.117-22.297,17.742c-6.734-5.625-14.249-11.672-22.288-17.742c-41.601-31.452-75.428-47.397-100.521-47.397
	c-16.882,0-30.319,7.203-38.874,20.828c-22.905,36.53-25.968,95.311-7.805,149.746c1.961,5.875,7.133,9.531,13.5,9.531
	c5.711,0,11.727-2.719,21.687-7.25c19.156-8.687,51.21-23.249,97.076-23.249c10.547,0,21.398,0.781,32.312,2.344
	c1.352,0.297,2.664,0.5,3.906,0.594l0.281,0.016l0.492,0.078l0.234-0.016l0.242,0.016l0.492-0.078l0.273-0.016
	c1.25-0.094,2.562-0.297,3.914-0.594c10.914-1.562,21.766-2.344,32.312-2.344c45.857,0,77.92,14.562,97.076,23.249
	c9.968,4.531,15.968,7.25,21.687,7.25c6.359,0,11.53-3.656,13.499-9.531C443.428,265.526,440.365,206.746,417.46,170.215z"/>
<path style="fill:#F6BB42;" d="M255.775,293.337c-23.522,0-42.663-19.155-42.663-42.671c0-23.53,19.141-42.671,42.663-42.671
	c23.531,0,42.672,19.141,42.672,42.671C298.447,274.182,279.306,293.337,255.775,293.337z"/>
<path style="fill:#FFCE54;" d="M255.775,197.332c-29.452,0-53.326,23.883-53.326,53.335c0,29.453,23.874,53.327,53.326,53.327
	c29.469,0,53.344-23.874,53.344-53.327C309.119,221.215,285.244,197.332,255.775,197.332z M255.775,282.665
	c-17.64,0-31.999-14.358-31.999-31.999c0-17.648,14.359-31.999,31.999-31.999c17.656,0,32,14.351,32,31.999
	C287.775,268.307,273.432,282.665,255.775,282.665z"/>
<rect x="213.334" y="469.335" style="fill:#37BC9B;" width="85.12" height="42.655"/>
<g>
</g>
<g>
</g>
<g>
</g>
<g>
</g>
<g>
</g>
<g>
</g>
<g>
</g>
<g>
</g>
<g>
</g>
<g>
</g>
<g>
</g>
<g>
</g>
<g>
</g>
<g>
</g>
<g>
</g>
</svg>
