<?xml version="1.0" encoding="iso-8859-1"?>
<!-- Generator: Adobe Illustrator 19.0.0, SVG Export Plug-In . SVG Version: 6.00 Build 0)  -->
<svg version="1.1" id="Layer_1" xmlns="http://www.w3.org/2000/svg" xmlns:xlink="http://www.w3.org/1999/xlink" x="0px" y="0px"
	 viewBox="0 0 511.988 511.988" style="enable-background:new 0 0 511.988 511.988;" xml:space="preserve">
<path style="fill:#AAB2BC;" d="M511.988,485.336c0,11.718-9.593,21.312-21.327,21.312H21.328C9.594,506.648,0,497.055,0,485.336
	v-384c0-11.734,9.594-21.335,21.328-21.335h469.333c11.734,0,21.327,9.602,21.327,21.335V485.336z"/>
<path style="fill:#CCD1D9;" d="M511.988,463.992c0,11.719-9.593,21.344-21.327,21.344H21.328C9.594,485.336,0,475.711,0,463.992
	V80.002c0-11.734,9.594-21.335,21.328-21.335h469.333c11.734,0,21.327,9.601,21.327,21.335V463.992z"/>
<path style="fill:#E6E9ED;" d="M511.988,442.65c0,11.749-9.593,21.343-21.327,21.343H21.328C9.594,463.992,0,454.398,0,442.65
	V58.666c0-11.734,9.594-21.328,21.328-21.328h469.333c11.734,0,21.327,9.594,21.327,21.328V442.65z"/>
<path style="fill:#ED5564;" d="M490.661,37.339H21.328C9.594,37.339,0,46.933,0,58.667v63.999h511.988v-64
	C511.988,46.932,502.395,37.339,490.661,37.339z"/>
<g>
	<path style="fill:#E6E9ED;" d="M95.998,5.34c-5.891,0-10.672,4.773-10.672,10.664v63.999c0,5.891,4.781,10.664,10.672,10.664
		c5.891,0,10.672-4.773,10.672-10.664v-64C106.67,10.113,101.889,5.34,95.998,5.34z"/>
	<path style="fill:#E6E9ED;" d="M202.668,5.34c-5.891,0-10.672,4.773-10.672,10.664v63.999c0,5.891,4.781,10.664,10.672,10.664
		c5.89,0,10.655-4.773,10.655-10.664v-64C213.323,10.113,208.557,5.34,202.668,5.34z"/>
	<path style="fill:#E6E9ED;" d="M309.322,5.34c-5.891,0-10.656,4.773-10.656,10.664v63.999c0,5.891,4.766,10.664,10.656,10.664
		s10.671-4.773,10.671-10.664v-64C319.993,10.113,315.212,5.34,309.322,5.34z"/>
	<path style="fill:#E6E9ED;" d="M415.991,5.34c-5.891,0-10.672,4.773-10.672,10.664v63.999c0,5.891,4.781,10.664,10.672,10.664
		c5.89,0,10.671-4.773,10.671-10.664v-64C426.662,10.113,421.881,5.34,415.991,5.34z"/>
</g>
<g>
	<path style="fill:#DA4453;" d="M140.7,374.151c4.766-16.499,21.546-27.218,36.483-36.749l4.781-3.062
		c12.734-8.156,27.155-17.375,38.108-28.78c12.766-13.312,18.969-27.655,18.969-43.835c0-15.906-5.531-29.39-16.016-38.991
		c-10.406-9.547-24.983-14.586-42.171-14.586c-18.406,0-33.733,5.93-44.358,17.156c-10.562,11.187-16.141,27.327-16.141,46.671v5.18
		h21.609v-2.875c0-14.055,2.812-25.133,8.344-32.914c6.312-8.89,16.327-13.39,29.765-13.39c22.375,0,36.843,13.343,36.843,34.015
		c0,25.007-21.999,39.444-41.39,52.194l-4.062,2.655c-28.515,18.75-53.123,34.906-55.467,74.312l-0.172,3.031h123.981v-20.062
		h-98.404C141.184,374.12,140.95,374.12,140.7,374.151z"/>
	<path style="fill:#DA4453;" d="M334.648,268.615c-14.405,0-26.639,4.039-35.92,11.727l10.328-50.039h78.139v-20.085h-94.623
		l-18.75,98.092l19.281,0.688l0.891-1.344c8.938-13.281,20.796-19.469,37.327-19.469c25.14,0,42.718,18.312,42.718,44.53
		c0,25.938-17.859,44.749-42.468,44.749c-23.858,0-39.437-14.843-40.671-38.749l-0.141-2.75h-21.547l0.062,2.938
		c0.812,35.155,25.266,57.874,62.296,57.874c18.124,0,34.624-6.656,46.452-18.719c11.703-11.938,18.141-28.405,18.141-46.374
		C396.164,295.121,370.289,268.615,334.648,268.615z"/>
</g>
<g>
</g>
<g>
</g>
<g>
</g>
<g>
</g>
<g>
</g>
<g>
</g>
<g>
</g>
<g>
</g>
<g>
</g>
<g>
</g>
<g>
</g>
<g>
</g>
<g>
</g>
<g>
</g>
<g>
</g>
</svg>
