<?xml version="1.0" encoding="iso-8859-1"?>
<!-- Generator: Adobe Illustrator 19.0.0, SVG Export Plug-In . SVG Version: 6.00 Build 0)  -->
<svg version="1.1" id="Layer_1" xmlns="http://www.w3.org/2000/svg" xmlns:xlink="http://www.w3.org/1999/xlink" x="0px" y="0px"
	 viewBox="0 0 511.982 511.982" style="enable-background:new 0 0 511.982 511.982;" xml:space="preserve">
<path style="fill:#ED5564;" d="M468.237,111.627c-58.312-58.318-152.873-58.318-211.191,0L15.621,353.036
	c-20.828,20.827-20.828,54.607,0,75.436c20.835,20.827,54.601,20.827,75.436,0l241.416-241.417
	c16.656-16.664,43.672-16.664,60.344,0c16.654,16.664,16.654,43.679,0,60.35l-7.547,7.539c-20.828,20.828-20.828,54.593,0,75.42
	c20.826,20.828,54.592,20.844,75.436,0l7.531-7.531C526.563,264.507,526.563,169.946,468.237,111.627z"/>
<g>
	<path style="fill:#E6E9ED;" d="M74.675,293.99v145.653c5.945-2.594,11.515-6.312,16.382-11.172l74.131-74.139V203.476
		L74.675,293.99z"/>
	<path style="fill:#E6E9ED;" d="M347.552,177.321V68.651c-33.047,3.336-65.201,17.656-90.506,42.976h-0.008v150.864l75.436-75.436
		C336.895,182.634,342.052,179.391,347.552,177.321z"/>
	<path style="fill:#E6E9ED;" d="M392.817,247.405l-7.547,7.539c-20.828,20.828-20.828,54.593,0,75.42
		c20.826,20.828,54.592,20.844,75.436,0l7.531-7.531c25.326-25.327,39.639-57.467,42.982-90.521h-108.67
		C400.471,237.812,397.239,242.975,392.817,247.405z"/>
</g>
<g>
</g>
<g>
</g>
<g>
</g>
<g>
</g>
<g>
</g>
<g>
</g>
<g>
</g>
<g>
</g>
<g>
</g>
<g>
</g>
<g>
</g>
<g>
</g>
<g>
</g>
<g>
</g>
<g>
</g>
</svg>
