<?xml version="1.0" encoding="iso-8859-1"?>
<!-- Generator: Adobe Illustrator 19.0.0, SVG Export Plug-In . SVG Version: 6.00 Build 0)  -->
<svg version="1.1" id="Layer_1" xmlns="http://www.w3.org/2000/svg" xmlns:xlink="http://www.w3.org/1999/xlink" x="0px" y="0px"
	 viewBox="0 0 511.988 511.988" style="enable-background:new 0 0 511.988 511.988;" xml:space="preserve">
<path style="fill:#967ADC;" d="M181.328,170.66v319.985c0,11.78,9.546,21.343,21.328,21.343V149.332
	C190.874,149.332,181.328,158.879,181.328,170.66z"/>
<path style="fill:#AC92EB;" d="M330.645,490.645c0,11.78-9.531,21.343-21.311,21.343H202.656c-11.781,0-21.328-9.562-21.328-21.343
	V170.66c0-11.781,9.546-21.328,21.328-21.328h106.678c11.779,0,21.311,9.546,21.311,21.328v319.985H330.645z"/>
<path style="fill:#FFCE54;" d="M255.99,117.333c-23.476,0-42.569-18.187-42.569-40.538c0-10.507,6.93-27.194,17.656-42.499
	c11.523-16.437,21.921-23.499,24.929-23.632c2.977,0.133,13.375,7.195,24.891,23.632c10.734,15.305,17.656,31.992,17.656,42.499
	C298.553,99.146,279.46,117.333,255.99,117.333z"/>
<g>
	<path style="fill:#A0D468;" d="M181.328,278.588c90.771-1.594,131.582-28.281,149.316-47.718v-63.999
		c-17.734,19.437-58.545,46.124-149.316,47.726V278.588z"/>
	<path style="fill:#A0D468;" d="M181.328,406.584c90.771-1.593,131.582-28.28,149.316-47.717v-63.999
		c-17.734,19.437-58.545,46.124-149.316,47.718V406.584z"/>
	<path style="fill:#A0D468;" d="M181.328,470.583v41.405h149.316v-89.123C312.91,442.303,272.1,468.989,181.328,470.583z"/>
</g>
<rect x="245.324" y="112.564" style="fill:#E6E9ED;" width="21.328" height="36.765"/>
<path style="fill:#F6BB42;" d="M255.99,0c-18.03,0-53.232,48.522-53.232,76.795c0,28.281,23.827,51.202,53.232,51.202
	c29.407,0,53.235-22.921,53.235-51.202C309.225,48.522,274.022,0,255.99,0z M255.99,106.661c-17.593,0-31.905-13.398-31.905-29.867
	c0-6.18,4.164-18.789,13.468-33.03c7.422-11.375,14.46-18.234,18.437-21.195c3.977,2.96,11.016,9.82,18.438,21.195
	c9.312,14.242,13.469,26.851,13.469,33.03C287.897,93.264,273.585,106.661,255.99,106.661z"/>
<g>
	<path style="fill:#8CC153;" d="M202.656,469.708c-6.781,0.438-13.883,0.75-21.328,0.875v41.405h21.328V469.708z"/>
	<path style="fill:#8CC153;" d="M202.656,341.711c-6.781,0.438-13.883,0.75-21.328,0.875v63.998
		c7.445-0.125,14.546-0.438,21.328-0.874V341.711z"/>
	<path style="fill:#8CC153;" d="M202.656,213.706c-6.781,0.453-13.883,0.758-21.328,0.891v63.991
		c7.445-0.125,14.546-0.438,21.328-0.875V213.706z"/>
</g>
<path style="fill:#434A54;" d="M394.645,511.988H117.329c-5.891,0-10.672-4.781-10.672-10.656c0-5.906,4.781-10.687,10.672-10.687
	h277.315c5.904,0,10.686,4.78,10.686,10.687C405.331,507.207,400.549,511.988,394.645,511.988z"/>
<g>
</g>
<g>
</g>
<g>
</g>
<g>
</g>
<g>
</g>
<g>
</g>
<g>
</g>
<g>
</g>
<g>
</g>
<g>
</g>
<g>
</g>
<g>
</g>
<g>
</g>
<g>
</g>
<g>
</g>
</svg>
