<?xml version="1.0" encoding="iso-8859-1"?>
<!-- Generator: Adobe Illustrator 19.0.0, SVG Export Plug-In . SVG Version: 6.00 Build 0)  -->
<svg version="1.1" id="Layer_1" xmlns="http://www.w3.org/2000/svg" xmlns:xlink="http://www.w3.org/1999/xlink" x="0px" y="0px"
	 viewBox="0 0 511.988 511.988" style="enable-background:new 0 0 511.988 511.988;" xml:space="preserve">
<path style="fill:#4A89DC;" d="M394.621,17.545c0-11.718-9.438-19.437-20.938-17.14L95.65,60.013
	c-11.5,2.297-20.906,13.781-20.906,25.515V490.91c0,11.718,9.281,18.843,20.593,15.812l278.658-74.467
	c11.344-3.031,20.625-15.109,20.625-26.827V17.545H394.621z"/>
<path style="fill:#5D9CEC;" d="M437.244,490.676c0,11.718-9.594,21.312-21.312,21.312H96.072c-11.734,0-21.328-9.594-21.328-21.312
	V85.528c0-11.734,9.593-21.328,21.328-21.328h319.859c11.719,0,21.312,9.593,21.312,21.328L437.244,490.676L437.244,490.676z"/>
<g>
	<path style="fill:#E6E9ED;" d="M128.087,128.168c-5.891,0-10.671,4.781-10.671,10.656c0,5.89,4.781,10.671,10.671,10.671
		c5.875,0,10.656-4.781,10.656-10.671C138.743,132.949,133.962,128.168,128.087,128.168z"/>
	<path style="fill:#E6E9ED;" d="M256.021,128.168c-5.891,0-10.655,4.781-10.655,10.656c0,5.89,4.765,10.671,10.655,10.671
		c5.891,0,10.657-4.781,10.657-10.671C266.678,132.949,261.912,128.168,256.021,128.168z"/>
	<path style="fill:#E6E9ED;" d="M383.965,128.168c-5.875,0-10.656,4.781-10.656,10.656c0,5.89,4.781,10.671,10.656,10.671
		c5.906,0,10.656-4.781,10.656-10.671C394.621,132.949,389.871,128.168,383.965,128.168z"/>
	<path style="fill:#E6E9ED;" d="M192.054,192.135c-5.891,0-10.656,4.781-10.656,10.671s4.765,10.656,10.656,10.656
		c5.875,0,10.656-4.766,10.656-10.656S197.929,192.135,192.054,192.135z"/>
	<path style="fill:#E6E9ED;" d="M319.996,192.135c-5.875,0-10.654,4.781-10.654,10.671s4.779,10.656,10.654,10.656
		s10.656-4.766,10.656-10.656S325.871,192.135,319.996,192.135z"/>
	<path style="fill:#E6E9ED;" d="M128.087,256.118c-5.891,0-10.671,4.766-10.671,10.656s4.781,10.656,10.671,10.656
		c5.875,0,10.656-4.766,10.656-10.656S133.962,256.118,128.087,256.118z"/>
	<path style="fill:#E6E9ED;" d="M256.021,256.118c-5.891,0-10.655,4.766-10.655,10.656s4.765,10.656,10.655,10.656
		c5.891,0,10.657-4.766,10.657-10.656S261.912,256.118,256.021,256.118z"/>
	<path style="fill:#E6E9ED;" d="M383.965,256.118c-5.875,0-10.656,4.766-10.656,10.656s4.781,10.656,10.656,10.656
		c5.906,0,10.656-4.766,10.656-10.656S389.871,256.118,383.965,256.118z"/>
	<path style="fill:#E6E9ED;" d="M192.054,320.085c-5.891,0-10.656,4.766-10.656,10.656s4.765,10.672,10.656,10.672
		c5.875,0,10.656-4.781,10.656-10.672S197.929,320.085,192.054,320.085z"/>
	<path style="fill:#E6E9ED;" d="M319.996,320.085c-5.875,0-10.654,4.766-10.654,10.656s4.779,10.672,10.654,10.672
		s10.656-4.781,10.656-10.672S325.871,320.085,319.996,320.085z"/>
	<path style="fill:#E6E9ED;" d="M128.087,384.053c-5.891,0-10.671,4.781-10.671,10.656c0,5.891,4.781,10.672,10.671,10.672
		c5.875,0,10.656-4.781,10.656-10.672C138.743,388.834,133.962,384.053,128.087,384.053z"/>
	<path style="fill:#E6E9ED;" d="M256.021,384.053c-5.891,0-10.655,4.781-10.655,10.656c0,5.891,4.765,10.672,10.655,10.672
		c5.891,0,10.657-4.781,10.657-10.672C266.678,388.834,261.912,384.053,256.021,384.053z"/>
	<path style="fill:#E6E9ED;" d="M383.965,384.053c-5.875,0-10.656,4.781-10.656,10.656c0,5.891,4.781,10.672,10.656,10.672
		c5.906,0,10.656-4.781,10.656-10.672C394.621,388.834,389.871,384.053,383.965,384.053z"/>
	<path style="fill:#E6E9ED;" d="M192.054,448.02c-5.891,0-10.656,4.78-10.656,10.671c0,5.875,4.765,10.656,10.656,10.656
		c5.875,0,10.656-4.781,10.656-10.656C202.71,452.801,197.929,448.02,192.054,448.02z"/>
	<path style="fill:#E6E9ED;" d="M319.996,448.02c-5.875,0-10.654,4.78-10.654,10.671c0,5.875,4.779,10.656,10.654,10.656
		s10.656-4.781,10.656-10.656C330.652,452.801,325.871,448.02,319.996,448.02z"/>
</g>
<rect x="224.034" y="362.724" style="fill:#7F4545;" width="63.96" height="63.967"/>
<polygon style="fill:#8CC153;" points="160.039,384.053 255.99,213.463 351.965,384.053 "/>
<polygon style="fill:#A0D468;" points="181.398,298.758 256.021,149.495 330.652,298.758 "/>
<g>
</g>
<g>
</g>
<g>
</g>
<g>
</g>
<g>
</g>
<g>
</g>
<g>
</g>
<g>
</g>
<g>
</g>
<g>
</g>
<g>
</g>
<g>
</g>
<g>
</g>
<g>
</g>
<g>
</g>
</svg>
