<?xml version="1.0" encoding="iso-8859-1"?>
<!-- Generator: Adobe Illustrator 19.0.0, SVG Export Plug-In . SVG Version: 6.00 Build 0)  -->
<svg version="1.1" id="Layer_1" xmlns="http://www.w3.org/2000/svg" xmlns:xlink="http://www.w3.org/1999/xlink" x="0px" y="0px"
	 viewBox="0 0 511.988 511.988" style="enable-background:new 0 0 511.988 511.988;" xml:space="preserve">
<path style="fill:#FFCE54;" d="M202.667,111.989V63.991c0-29.406,23.921-53.327,53.326-53.327c29.406,0,53.328,23.921,53.328,53.327
	v47.999L202.667,111.989L202.667,111.989z"/>
<path style="fill:#F6BB42;" d="M255.993,0c-35.342,0-63.998,28.647-63.998,63.991v58.67h127.997v-58.67
	C319.991,28.647,291.336,0,255.993,0z M298.664,101.326h-85.342V63.991c0-23.523,19.14-42.663,42.67-42.663
	c23.531,0,42.672,19.14,42.672,42.663V101.326z"/>
<path style="fill:#ED5564;" d="M469.316,298.649c0-117.81-95.498-213.323-213.324-213.323
	c-117.824,0-213.322,95.514-213.322,213.323c0,117.825,95.498,213.339,213.322,213.339
	C373.819,511.988,469.316,416.474,469.316,298.649z"/>
<path style="fill:#DA4453;" d="M395.803,137.52c32.498,37.444,52.186,86.318,52.186,139.802
	c0,117.825-95.514,213.323-213.323,213.323c-53.482,0-102.372-19.672-139.809-52.187c39.108,45.046,96.794,73.529,161.136,73.529
	c117.826,0,213.324-95.514,213.324-213.339C469.316,234.315,440.832,176.637,395.803,137.52z"/>
<polygon style="fill:#FFCE54;" points="356.428,273.806 287.023,263.721 255.993,200.831 224.964,263.721 155.558,273.806 
	205.776,322.758 193.917,391.866 255.993,359.242 318.069,391.866 306.211,322.758 "/>
<g>
	<path style="fill:#DA4453;" d="M266.664,149.325c0,5.89-4.781,10.664-10.672,10.664c-5.891,0-10.671-4.773-10.671-10.664
		s4.78-10.664,10.671-10.664S266.664,143.434,266.664,149.325z"/>
	<path style="fill:#DA4453;" d="M266.664,447.99c0,5.89-4.781,10.655-10.672,10.655c-5.891,0-10.671-4.766-10.671-10.655
		c0-5.906,4.78-10.672,10.671-10.672S266.664,442.084,266.664,447.99z"/>
	<path style="fill:#DA4453;" d="M157.949,185.519c4.156,4.164,4.156,10.921,0,15.085c-4.172,4.164-10.922,4.164-15.094,0
		c-4.155-4.164-4.155-10.921,0-15.085C147.027,181.355,153.777,181.355,157.949,185.519z"/>
	<path style="fill:#DA4453;" d="M369.132,396.71c4.156,4.156,4.156,10.905,0,15.077c-4.172,4.172-10.922,4.172-15.094,0
		c-4.156-4.172-4.156-10.921,0-15.077C358.21,392.538,364.96,392.538,369.132,396.71z"/>
	<path style="fill:#DA4453;" d="M106.669,287.993c5.891,0,10.656,4.781,10.656,10.656c0,5.906-4.766,10.672-10.656,10.672
		s-10.671-4.766-10.671-10.672C95.998,292.774,100.778,287.993,106.669,287.993z"/>
	<path style="fill:#DA4453;" d="M405.318,287.993c5.891,0,10.672,4.781,10.672,10.656c0,5.906-4.781,10.672-10.672,10.672
		s-10.655-4.766-10.655-10.672C394.663,292.774,399.427,287.993,405.318,287.993z"/>
	<path style="fill:#DA4453;" d="M142.855,396.71c4.172-4.172,10.922-4.172,15.094,0c4.156,4.156,4.156,10.905,0,15.077
		c-4.172,4.172-10.922,4.172-15.094,0C138.7,407.615,138.7,400.866,142.855,396.71z"/>
	<path style="fill:#DA4453;" d="M354.038,185.519c4.172-4.164,10.922-4.164,15.094,0c4.156,4.164,4.156,10.921,0,15.085
		c-4.172,4.164-10.922,4.164-15.094,0C349.882,196.44,349.882,189.691,354.038,185.519z"/>
</g>
<g>
</g>
<g>
</g>
<g>
</g>
<g>
</g>
<g>
</g>
<g>
</g>
<g>
</g>
<g>
</g>
<g>
</g>
<g>
</g>
<g>
</g>
<g>
</g>
<g>
</g>
<g>
</g>
<g>
</g>
</svg>
