<?xml version="1.0" encoding="iso-8859-1"?>
<!-- Generator: Adobe Illustrator 19.0.0, SVG Export Plug-In . SVG Version: 6.00 Build 0)  -->
<svg version="1.1" id="Layer_1" xmlns="http://www.w3.org/2000/svg" xmlns:xlink="http://www.w3.org/1999/xlink" x="0px" y="0px"
	 viewBox="0 0 511.989 511.989" style="enable-background:new 0 0 511.989 511.989;" xml:space="preserve">
<g>
	<path style="fill:#EAAD7A;" d="M211.012,240.151c2.734-4.765,5.719-6.046,5.844-6.093c-0.188,0.078-0.328,0.109-0.391,0.125
		c4.344-1.359,7.484-5.406,7.484-10.187c0-5.891-4.766-10.656-10.656-10.656c-1.141,0-2.219,0.172-3.25,0.5
		c-1.703,0.547-9.343,3.406-15.796,12.906c-4.047,5.968-6.75,13.202-8.109,21.64c-9.39-10.515-17.906-22.015-25.468-34.437
		c40.983-51.827,31.593-116.716,31.155-119.56h-0.016c-0.766-5.125-5.188-9.047-10.515-9.047c-5.891,0-10.672,4.766-10.672,10.656
		c0,0.562,0.062,1.094,0.141,1.625h-0.016c0.047,0.312,2.219,15.312-0.234,35.843l-13.25,46.046
		c-2.281,4.641-4.906,9.25-7.922,13.765c-11.015-22.421-19.421-47.358-25.062-74.389c-12.14-58.264-7.109-106.575-7.046-107.06
		h-0.016c0.047-0.375,0.078-0.766,0.078-1.156C117.295,4.781,112.514,0,106.623,0c-5.5,0-10.015,4.172-10.593,9.516h-0.015
		c0,0.016,0,0.031,0,0.047s0,0.031,0,0.031c-0.328,3.015-5.312,52.155,7.25,112.997c1.734,8.344,3.719,16.516,5.938,24.5
		c-7.75-5.718-13.765-13.687-17.968-23.843c-5.797-14.015-5.938-27.14-5.938-27.28h-0.016c-0.016-5.875-4.781-10.625-10.656-10.625
		c-5.891,0-10.672,4.766-10.672,10.656c0,0.688,0.094,16.843,7.25,34.624c9.078,22.483,25.296,37.78,47.14,44.562
		c6,16,13.093,31.062,21.25,45.093c20.921,35.952,48.842,65.076,82.998,86.576l11.359-18.062
		c-9.609-6.047-18.703-12.78-27.218-20.14C205.59,253.433,208.355,244.792,211.012,240.151z"/>
	<path style="fill:#EAAD7A;" d="M437.366,85.343c-5.875,0-10.641,4.75-10.672,10.625l0,0c0,0.141-0.141,13.265-5.938,27.28
		c-4.203,10.156-10.219,18.125-17.969,23.843c2.219-7.984,4.203-16.156,5.938-24.5c12.562-60.842,7.578-109.998,7.25-112.997
		c0,0,0-0.016,0-0.031s0-0.031,0-0.047h-0.016C415.381,4.172,410.865,0,405.365,0c-5.891,0-10.67,4.781-10.67,10.672
		c0,0.391,0.031,0.781,0.078,1.156h-0.016c0.062,0.484,5.092,48.795-7.047,107.06c-5.641,27.046-14.047,51.983-25.062,74.405
		c-2.891-4.312-5.516-8.828-7.844-13.546l-13.328-46.312c-2.453-20.531-0.25-35.671-0.234-35.827l0,0
		c0.078-0.531,0.125-1.062,0.125-1.609c0-5.891-4.781-10.656-10.672-10.656c-5.328,0-9.734,3.922-10.531,9.047l0,0
		c-0.438,2.844-9.826,67.732,31.156,119.56c-7.562,12.422-16.078,23.921-25.469,34.437c-1.359-8.438-4.062-15.671-8.109-21.64
		c-6.451-9.5-14.107-12.359-15.811-12.906c-1.016-0.328-2.094-0.5-3.234-0.5c-5.891,0-10.656,4.766-10.656,10.656
		c0,4.796,3.141,8.843,7.484,10.187c-0.062-0.016-0.203-0.047-0.391-0.125c0.125,0.047,3.109,1.328,5.844,6.093
		c2.656,4.641,5.422,13.281,4.281,28.5c-8.516,7.359-17.609,14.093-27.219,20.14l11.359,18.062
		c34.154-21.5,62.076-50.624,82.998-86.576c8.156-14.031,15.25-29.093,21.25-45.093c21.842-6.781,38.076-22.078,47.123-44.562
		c7.172-17.781,7.266-33.937,7.266-34.624C448.038,90.108,443.257,85.343,437.366,85.343z"/>
</g>
<path style="fill:#9B5C5C;" d="M415.929,287.619c-0.578-5.968-5.188-10.312-10.984-10.312h-1.141l-1.062,0.219
	c-26.279,5.374-66.732,17.421-80.514,21.624c-10.232-6.453-20.42-12.125-35.873-12.125c-6.156,0-12.875,0.891-20.516,2.719
	c-2.828,0.578-8.031,1.484-10.922,1.641c-2.906-0.156-8.171-1.062-11.031-1.641c-7.641-1.828-14.359-2.719-20.515-2.719
	c-15.422,0-25.593,5.656-35.828,12.094c-13.625-4.219-53.124-16.203-79.373-21.562l-1.094-0.219h-1.078
	c-4.969,0-10.359,3.578-11.015,10.39c-0.703,7.359,4.781,23.078,16.328,37.749c9.593,12.172,26.546,27.562,54.311,35.234
	c-3.891,48.295,14.016,73.154,36.343,104.122c7.109,9.859,14.453,20.062,22.171,32.28c1.375,2.188,10.25,14.875,30.671,14.875h0.125
	c20.469,0,29.344-12.766,30.688-14.891c7.703-12.202,15.047-22.405,22.156-32.265c22.311-30.968,40.232-55.827,36.326-104.122
	c27.875-7.688,45.109-23.125,54.92-35.344C410.491,311.072,416.632,294.947,415.929,287.619z"/>
<g>
	<path style="fill:#434A54;" d="M284.151,499.13c-4.703-3.859-13.375-8.437-28.188-8.468c-16.281-0.031-25.14,5.483-29.468,9.546
		c3.969,4.484,12.812,11.781,28.312,11.781h0.125C271.745,511.989,280.729,503.395,284.151,499.13z"/>
	<path style="fill:#434A54;" d="M223.996,394.664c0,5.891-4.781,10.672-10.672,10.672s-10.656-4.781-10.656-10.672
		s4.765-10.672,10.656-10.672S223.996,388.773,223.996,394.664z"/>
	<path style="fill:#434A54;" d="M309.323,394.664c0,5.891-4.766,10.672-10.656,10.672s-10.672-4.781-10.672-10.672
		s4.781-10.672,10.672-10.672S309.323,388.773,309.323,394.664z"/>
</g>
<g>
	<path style="fill:#7F4545;" d="M319.993,373.336c0-5.891-4.781-10.671-10.67-10.671c-1.703,0-3.328,0.421-4.766,1.14v-0.016
		l-21.328,10.672l0,0c-3.5,1.75-5.906,5.359-5.906,9.531c0,5.906,4.781,10.672,10.672,10.672c1.719,0,3.328-0.406,4.766-1.125l0,0
		l21.342-10.672h-0.016C317.587,381.117,319.993,377.508,319.993,373.336z"/>
	<path style="fill:#7F4545;" d="M228.761,374.461L228.761,374.461l-21.328-10.672v0.016c-1.438-0.719-3.062-1.14-4.765-1.14
		c-5.891,0-10.672,4.78-10.672,10.671c0,4.172,2.406,7.781,5.906,9.531h-0.016l21.343,10.672l0,0
		c1.438,0.719,3.047,1.125,4.766,1.125c5.89,0,10.671-4.766,10.671-10.672C234.667,379.82,232.261,376.211,228.761,374.461z"/>
</g>
<g>
</g>
<g>
</g>
<g>
</g>
<g>
</g>
<g>
</g>
<g>
</g>
<g>
</g>
<g>
</g>
<g>
</g>
<g>
</g>
<g>
</g>
<g>
</g>
<g>
</g>
<g>
</g>
<g>
</g>
</svg>
