<?xml version="1.0" encoding="iso-8859-1"?>
<!-- Generator: Adobe Illustrator 19.0.0, SVG Export Plug-In . SVG Version: 6.00 Build 0)  -->
<svg version="1.1" id="Layer_1" xmlns="http://www.w3.org/2000/svg" xmlns:xlink="http://www.w3.org/1999/xlink" x="0px" y="0px"
	 viewBox="0 0 511.99 511.99" style="enable-background:new 0 0 511.99 511.99;" xml:space="preserve">
<rect x="127.994" y="181.343" style="fill:#ED5564;" width="256" height="234.65"/>
<g>
	<path style="fill:#FFCE54;" d="M218.448,463.457h85.89c39.154-22.702,70.967-75.592,15.749-134.356
		c-44.937-47.795-28.265-102.231-28.265-102.231c-68.444,19.546-98.928,61.701-98.928,121.075
		c-6.828-4.688-16.43-12.547-21.562-18.953C142.669,394.974,176.496,442.598,218.448,463.457z"/>
	<rect x="383.994" y="159.993" style="fill:#FFCE54;" width="106.65" height="299.87"/>
</g>
<g>
	<polygon style="fill:#F6BB42;" points="490.645,223.994 490.645,202.666 383.992,202.666 383.992,223.994 426.646,223.994 
		426.646,245.337 383.992,245.337 383.992,266.665 490.645,266.665 490.645,245.337 447.99,245.337 447.99,223.994 	"/>
	<polygon style="fill:#F6BB42;" points="490.645,330.663 447.99,330.663 447.99,309.336 490.645,309.336 490.645,287.992 
		383.992,287.992 383.992,309.336 426.646,309.336 426.646,330.663 383.992,330.663 383.992,351.991 490.645,351.991 	"/>
</g>
<rect x="21.336" y="159.993" style="fill:#FFCE54;" width="106.66" height="299.87"/>
<rect y="32.003" style="fill:#A0D468;" width="511.99" height="42.671"/>
<rect x="21.336" y="74.673" style="fill:#E6E9ED;" width="469.31" height="106.67"/>
<g>
	<polygon style="fill:#F6BB42;" points="127.997,223.994 127.997,202.666 21.336,202.666 21.336,223.994 63.999,223.994 
		63.999,245.337 21.336,245.337 21.336,266.665 127.997,266.665 127.997,245.337 85.334,245.337 85.334,223.994 	"/>
	<polygon style="fill:#F6BB42;" points="127.997,330.663 85.334,330.663 85.334,309.336 127.997,309.336 127.997,287.992 
		21.336,287.992 21.336,309.336 63.999,309.336 63.999,330.663 21.336,330.663 21.336,351.991 127.997,351.991 	"/>
	<polygon style="fill:#F6BB42;" points="127.997,373.334 21.336,373.334 21.336,394.662 63.999,394.662 63.999,416.192 
		85.334,416.192 85.334,394.662 127.997,394.662 	"/>
	<polygon style="fill:#F6BB42;" points="490.645,373.334 383.992,373.334 383.992,394.662 426.646,394.662 426.646,416.192 
		447.99,416.192 447.99,394.662 490.645,394.662 	"/>
	<rect x="383.994" y="415.893" style="fill:#F6BB42;" width="106.65" height="21.344"/>
	<rect x="21.336" y="415.893" style="fill:#F6BB42;" width="106.66" height="21.344"/>
</g>
<g>
	<path style="fill:#CCD1D9;" d="M395.18,117.34c-5.891,0-10.656,4.766-10.656,10.656c0,5.906,4.766,10.672,10.656,10.672
		s10.655-4.766,10.655-10.672C405.835,122.105,401.069,117.34,395.18,117.34z"/>
	<path style="fill:#CCD1D9;" d="M117.334,117.34c-5.891,0-10.672,4.766-10.672,10.656c0,5.906,4.781,10.672,10.672,10.672
		c5.89,0,10.663-4.766,10.663-10.672C127.997,122.105,123.223,117.34,117.334,117.34z"/>
	<path style="fill:#CCD1D9;" d="M74.663,117.34c-5.891,0-10.664,4.766-10.664,10.656c0,5.906,4.773,10.672,10.664,10.672
		c5.89,0,10.671-4.766,10.671-10.672C85.334,122.105,80.553,117.34,74.663,117.34z"/>
	<path style="fill:#CCD1D9;" d="M437.334,117.34c-5.906,0-10.688,4.766-10.688,10.656c0,5.906,4.781,10.672,10.688,10.672
		c5.875,0,10.656-4.766,10.656-10.672C447.99,122.105,443.209,117.34,437.334,117.34z"/>
	<path style="fill:#CCD1D9;" d="M351.992,117.34H159.997c-5.891,0-10.664,4.766-10.664,10.656c0,5.906,4.773,10.672,10.664,10.672
		h191.995c5.891,0,10.656-4.766,10.656-10.672C362.648,122.105,357.883,117.34,351.992,117.34z"/>
</g>
<g>
	<polygon style="fill:#ED5564;" points="52.093,74.669 172.769,74.669 215.44,31.998 94.764,31.998 	"/>
	<polygon style="fill:#ED5564;" points="294.963,74.669 415.647,74.669 458.303,31.998 337.633,31.998 	"/>
</g>
<rect x="21.336" y="415.993" style="fill:#656D78;" width="469.31" height="63.999"/>
<path style="fill:#434A54;" d="M491.583,479.988H21.336c-5.891,0-10.672-4.766-10.672-10.656s4.781-10.672,10.672-10.672h470.247
	c5.891,0,10.656,4.781,10.656,10.672S497.473,479.988,491.583,479.988z"/>
<g>
</g>
<g>
</g>
<g>
</g>
<g>
</g>
<g>
</g>
<g>
</g>
<g>
</g>
<g>
</g>
<g>
</g>
<g>
</g>
<g>
</g>
<g>
</g>
<g>
</g>
<g>
</g>
<g>
</g>
</svg>
