<?xml version="1.0" encoding="iso-8859-1"?>
<!-- Generator: Adobe Illustrator 19.0.0, SVG Export Plug-In . SVG Version: 6.00 Build 0)  -->
<svg version="1.1" id="Layer_1" xmlns="http://www.w3.org/2000/svg" xmlns:xlink="http://www.w3.org/1999/xlink" x="0px" y="0px"
	 viewBox="0 0 511.984 511.984" style="enable-background:new 0 0 511.984 511.984;" xml:space="preserve">
<path style="fill:#F4BE8E;" d="M468.053,194.261c-5.375-37.828-32.5-38.75-32.5-38.75l-179.558,18.344L76.42,155.512
	c0,0-27.14,0.922-32.483,38.75c-5.359,37.812,10,48.733,10,48.733l106.217,49.999l-8.75,83.732l-34.983,34.999
	c0,0-70.608,16.875-48.733,73.733c11.328,29.483,95.091,26.437,95.091,26.437l93.217-53.78l93.201,53.78
	c0,0,83.764,3.047,95.107-26.437c21.844-56.858-48.748-73.733-48.748-73.733l-35-34.999l-8.75-83.732l106.248-49.999
	C458.053,242.994,473.396,232.073,468.053,194.261z"/>
<path style="fill:#FFD2A6;" d="M373.304,117.325c0,64.796-52.53,117.326-117.31,117.326c-64.811,0-117.341-52.53-117.341-117.326
	C138.653,52.53,191.183,0,255.994,0C320.774,0,373.304,52.53,373.304,117.325z"/>
<g>
	<path style="fill:#FC6E51;" d="M76.42,155.512c0,0-27.14,0.922-32.483,38.75c-5.359,37.812,10,48.733,10,48.733l48.437,22.797
		c9.031-12.406,19.968-33.953,7.594-55.03c-12.172-20.75-2.25-40.046,6.344-51.171L76.42,155.512z"/>
	<path style="fill:#FC6E51;" d="M162.809,449.536c-30.749-4.905-42.312-23.28-46.592-37.765c-3.969,1-69.749,18.531-48.53,73.687
		c11.328,29.483,95.091,26.437,95.091,26.437l44.718-25.812C204.558,472.567,194.527,454.598,162.809,449.536z"/>
	<path style="fill:#FC6E51;" d="M435.553,155.512c0,0,27.125,0.922,32.484,38.75c5.359,37.812-9.984,48.733-9.984,48.733
		l-48.452,22.797c-9.047-12.406-19.952-33.953-7.609-55.03c12.188-20.75,2.266-40.046-6.343-51.171L435.553,155.512z"/>
	<path style="fill:#FC6E51;" d="M349.18,449.536c30.75-4.905,42.281-23.28,46.562-37.765c3.968,1,69.748,18.531,48.561,73.687
		c-11.344,29.483-95.123,26.437-95.123,26.437l-44.717-25.812C307.416,472.567,317.43,454.598,349.18,449.536z"/>
</g>
<path style="fill:#ED5564;" d="M266.65,287.977c0,5.906-4.781,10.672-10.656,10.672c-5.906,0-10.687-4.766-10.687-10.672
	c0-5.875,4.781-10.655,10.687-10.655C261.869,277.322,266.65,282.102,266.65,287.977z"/>
<path style="fill:#48CFAD;" d="M266.65,330.648c0,5.891-4.781,10.672-10.656,10.672c-5.906,0-10.687-4.781-10.687-10.672
	s4.781-10.672,10.687-10.672C261.869,319.976,266.65,324.758,266.65,330.648z"/>
<path style="fill:#FC6E51;" d="M266.65,373.319c0,5.891-4.781,10.656-10.656,10.656c-5.906,0-10.687-4.766-10.687-10.656
	s4.781-10.671,10.687-10.671C261.869,362.648,266.65,367.429,266.65,373.319z"/>
<g>
	<path style="fill:#434A54;" d="M298.65,95.998c0,5.89-4.781,10.656-10.656,10.656c-5.906,0-10.688-4.766-10.688-10.656
		c0-5.891,4.781-10.672,10.688-10.672C293.869,85.326,298.65,90.107,298.65,95.998z"/>
	<path style="fill:#434A54;" d="M234.651,95.998c0,5.89-4.781,10.656-10.656,10.656c-5.906,0-10.688-4.766-10.688-10.656
		c0-5.891,4.781-10.672,10.688-10.672C229.87,85.326,234.651,90.107,234.651,95.998z"/>
	<path style="fill:#434A54;" d="M287.556,163.012h-0.016c0.297-0.953,0.453-1.969,0.453-3.016c0-5.891-4.781-10.671-10.688-10.671
		c-4.578,0-8.469,2.891-9.984,6.953c-0.172,0.328-2.203,3.719-11.328,3.719s-11.171-3.375-11.343-3.719
		c-1.516-4.046-5.406-6.953-10-6.953c-5.891,0-10.656,4.781-10.656,10.671c0,1.047,0.156,2.062,0.438,3.016l0,0
		c0,0.016,0,0.031,0,0.062c0.031,0.062,0.062,0.141,0.078,0.219c2.171,6.828,11.109,18.031,31.483,18.031
		c20.359,0,29.296-11.203,31.468-18.031c0.016-0.078,0.031-0.156,0.062-0.219C287.525,163.058,287.541,163.027,287.556,163.012z
		 M267.119,156.902c-0.016,0.016-0.031,0.047-0.031,0.062l0,0C267.088,156.933,267.103,156.918,267.119,156.902z M267.322,156.293
		c-0.047,0.156-0.109,0.281-0.156,0.438C267.244,156.496,267.291,156.355,267.322,156.293z M244.87,156.965c0-0.016,0-0.047,0-0.062
		C244.87,156.918,244.87,156.933,244.87,156.965L244.87,156.965z M244.807,156.715c-0.047-0.141-0.109-0.281-0.156-0.422
		C244.682,156.355,244.729,156.496,244.807,156.715z"/>
</g>
<g>
</g>
<g>
</g>
<g>
</g>
<g>
</g>
<g>
</g>
<g>
</g>
<g>
</g>
<g>
</g>
<g>
</g>
<g>
</g>
<g>
</g>
<g>
</g>
<g>
</g>
<g>
</g>
<g>
</g>
</svg>
