<?xml version="1.0" encoding="iso-8859-1"?>
<!-- Generator: Adobe Illustrator 19.0.0, SVG Export Plug-In . SVG Version: 6.00 Build 0)  -->
<svg version="1.1" id="Layer_1" xmlns="http://www.w3.org/2000/svg" xmlns:xlink="http://www.w3.org/1999/xlink" x="0px" y="0px"
	 viewBox="0 0 511.99 511.99" style="enable-background:new 0 0 511.99 511.99;" xml:space="preserve">
<path style="fill:#ED5564;" d="M213.332,320.007c0-41.248,19.101-74.678,42.663-74.678s42.656,33.43,42.656,74.678
	c0,41.234-19.094,74.655-42.656,74.655S213.332,361.241,213.332,320.007z"/>
<path style="fill:#FFCE54;" d="M107.108,305.133c5.773-40.835-8.461-76.616-31.796-79.912
	c-23.328-3.297-46.921,27.124-52.694,67.975c-5.766,40.827,8.469,76.592,31.796,79.889
	C77.749,376.381,101.343,345.96,107.108,305.133z"/>
<path style="fill:#A0D468;" d="M404.883,305.133c-5.766-40.835,8.453-76.616,31.796-79.912
	c23.328-3.297,46.922,27.124,52.687,67.975c5.781,40.827-8.468,76.592-31.78,79.889C434.241,376.381,410.648,345.96,404.883,305.133
	z"/>
<g>
	<path style="fill:#CCD1D9;" d="M266.659,202.658h-21.327c-11.781,0-21.335,9.562-21.335,21.344v42.655
		c0,11.789,63.999,11.789,63.999,0v-42.655C287.995,212.221,278.433,202.658,266.659,202.658z"/>
	<path style="fill:#CCD1D9;" d="M91.843,184.472l-21.117-2.984c-1.016-0.141-2.023-0.219-3.016-0.219
		c-10.461,0-19.585,7.703-21.093,18.358l-5.969,42.233c-1.656,11.672,61.858,19.609,63.366,8.969l5.969-42.249
		C111.632,196.908,103.515,186.112,91.843,184.472z"/>
	<path style="fill:#CCD1D9;" d="M471.335,241.86l-5.969-42.233c-1.5-10.656-10.625-18.358-21.094-18.358c-0.984,0-2,0.078-3,0.219
		l-21.124,2.984c-11.672,1.64-19.781,12.437-18.141,24.108l5.969,42.249C409.492,261.47,472.991,253.532,471.335,241.86z"/>
</g>
<g>
	<path style="fill:#AAB2BC;" d="M287.995,234.658c-5.891,0-10.656,4.781-10.656,10.671s4.766,10.672,10.656,10.672V234.658z"/>
	<path style="fill:#AAB2BC;" d="M234.66,245.329c0-5.891-4.773-10.671-10.664-10.671v21.343
		C229.887,256.001,234.66,251.22,234.66,245.329z"/>
	<path style="fill:#AAB2BC;" d="M45.75,208.986c-0.156-0.016-0.305-0.031-0.453-0.047l-2.977,21.078
		c0.148,0.031,0.289,0.078,0.438,0.094c5.836,0.828,11.234-3.234,12.054-9.078C55.641,215.205,51.578,209.814,45.75,208.986z"/>
	<path style="fill:#AAB2BC;" d="M105.436,240.735l2.984-21.093c-5.766-0.719-11.062,3.312-11.875,9.078
		C95.726,234.501,99.702,239.829,105.436,240.735z"/>
	<path style="fill:#AAB2BC;" d="M465.96,209.611c-5.828,0.828-9.875,6.219-9.062,12.047c0.828,5.844,6.219,9.906,12.062,9.078
		c0.266-0.047,0.531-0.094,0.781-0.156l-2.969-21.046C466.507,209.564,466.241,209.58,465.96,209.611z"/>
	<path style="fill:#AAB2BC;" d="M415.445,227.892c-0.828-5.812-6.172-9.859-11.984-9.078l2.969,21.108
		C412.242,239.079,416.273,233.704,415.445,227.892z"/>
</g>
<g>
	<rect x="245.335" y="153.296" style="fill:#434A54;" width="21.327" height="49.36"/>
	<polygon style="fill:#434A54;" points="70.726,181.487 91.843,184.472 96.437,151.988 75.312,149.003 	"/>
	
		<rect x="417.764" y="150.335" transform="matrix(-0.9902 0.1399 -0.1399 -0.9902 875.9751 271.904)" style="fill:#434A54;" width="21.335" height="32.808"/>
</g>
<path style="fill:#656D78;" d="M255.995,170.659c-43.03,0-109.294-2.797-180.628-16.172c-42.882-8.046-67.061-16.03-68.069-16.374
	c-5.586-1.859-8.609-7.891-6.75-13.484c1.867-5.594,7.906-8.609,13.492-6.75c0.234,0.078,24.164,7.953,65.78,15.734
	c38.382,7.172,100.107,15.718,176.176,15.718c76.311,0,138.216-8.593,176.699-15.812c41.469-7.781,65.015-15.562,65.265-15.641
	c5.578-1.859,11.624,1.156,13.483,6.75c1.859,5.594-1.172,11.625-6.749,13.484c-1.016,0.344-25.171,8.328-68.077,16.374
	C397.243,161.862,333.963,170.659,255.995,170.659z"/>
<g>
</g>
<g>
</g>
<g>
</g>
<g>
</g>
<g>
</g>
<g>
</g>
<g>
</g>
<g>
</g>
<g>
</g>
<g>
</g>
<g>
</g>
<g>
</g>
<g>
</g>
<g>
</g>
<g>
</g>
</svg>
