<?xml version="1.0" encoding="iso-8859-1"?>
<!-- Generator: Adobe Illustrator 19.0.0, SVG Export Plug-In . SVG Version: 6.00 Build 0)  -->
<svg version="1.1" id="Layer_1" xmlns="http://www.w3.org/2000/svg" xmlns:xlink="http://www.w3.org/1999/xlink" x="0px" y="0px"
	 viewBox="0 0 511.99 511.99" style="enable-background:new 0 0 511.99 511.99;" xml:space="preserve">
<path style="fill:#E6E9ED;" d="M198.809,328.247l-15.094-15.077L3.126,493.76l0,0l-0.016,0.016l-0.141,0.156l0,0
	c-4,4.172-3.969,10.812,0.156,14.922c4.109,4.109,10.734,4.156,14.921,0.141v0.016L198.809,328.247z"/>
<path style="fill:#DA4453;" d="M505.396,263.061c-27.437,102.419-132.7,163.184-235.12,135.747
	C167.872,371.37,107.092,266.1,134.529,163.687C161.981,61.276,267.245,0.496,369.649,27.941
	C472.069,55.378,532.849,160.649,505.396,263.061z"/>
<path style="fill:#ED5564;" d="M505.396,241.725c-27.437,102.413-132.7,163.193-235.12,135.755
	c-102.404-27.436-163.184-132.716-135.747-235.128C161.981,39.941,267.245-20.831,369.649,6.606
	C472.069,34.05,532.849,139.314,505.396,241.725z"/>
<path style="fill:#DA4453;" d="M505.459,241.467c-9.125,2.977-23.53,6.219-41.983,5.727c-19.406-0.523-39.5-5.008-59.702-13.343
	c-18.999-7.835-38.14-19.117-57.14-33.64c26.312-3.453,50.25-9.687,71.421-18.624c22.687-9.57,42.28-22.242,58.233-37.664
	c9.077-8.781,15.952-17.468,21.093-25.218c-3.266-7.867-7.016-15.5-11.281-22.851c-11.249,22.077-46.327,70.373-141.497,83.115
	c16.156-21.055,28.672-42.39,37.328-63.679c9.281-22.819,14.172-45.632,14.547-67.811c0.219-12.641-1.078-23.641-2.922-32.765
	c-7.688-3.179-15.656-5.898-23.906-8.109c-0.062-0.016-0.141-0.039-0.219-0.055c7.656,23.577,17,82.529-41.296,158.832
	c-3.453-26.312-9.688-50.257-18.624-71.428c-9.562-22.695-22.234-42.288-37.656-58.233c-8.781-9.086-17.469-15.945-25.218-21.093
	c-7.875,3.258-15.5,7.023-22.859,11.273c22.078,11.258,70.374,46.335,83.124,141.505c-21.062-16.156-42.391-28.679-63.687-37.335
	c-22.812-9.273-45.624-14.172-67.811-14.539c-12.641-0.219-23.64,1.078-32.765,2.922c-3.171,7.68-5.89,15.656-8.109,23.898
	c-0.016,0.086-0.031,0.172-0.062,0.258c9.14-2.968,23.531-6.21,41.983-5.718c19.421,0.516,39.499,5.007,59.702,13.335
	c18.999,7.843,38.156,19.125,57.156,33.64c-26.312,3.46-50.25,9.695-71.421,18.624c-22.703,9.578-42.296,22.25-58.233,37.663
	c-9.093,8.789-15.953,17.477-21.093,25.227c3.25,7.852,7.016,15.477,11.266,22.835c4.75-9.249,13-21.687,25.671-33.695
	c14.093-13.359,31.468-24.39,51.639-32.78c18.984-7.891,40.5-13.453,64.203-16.625c-16.172,21.047-28.688,42.382-37.344,63.671
	c-9.266,22.819-14.171,45.631-14.531,67.818c-0.219,12.641,1.078,23.641,2.922,32.765c7.671,3.172,15.656,5.891,23.89,8.109
	c0.094,0.016,0.172,0.047,0.266,0.062c-2.969-9.141-6.219-23.53-5.719-41.983c0.516-19.422,5-39.499,13.328-59.701
	c7.844-19.008,19.125-38.156,33.641-57.156c3.468,26.312,9.702,50.257,18.624,71.436c9.577,22.688,22.249,42.28,37.671,58.233
	c8.781,9.078,17.469,15.937,25.219,21.077c7.858-3.25,15.499-7.015,22.858-11.265c-22.093-11.25-70.39-46.343-83.123-141.513
	c21.046,16.164,42.39,28.679,63.671,37.335c22.827,9.282,45.639,14.172,67.811,14.547c0.922,0.016,1.828,0.023,2.734,0.023
	c11.5,0,21.577-1.234,30.03-2.945c3.188-7.68,5.906-15.657,8.109-23.907C505.428,241.639,505.443,241.553,505.459,241.467z"/>
<g>
</g>
<g>
</g>
<g>
</g>
<g>
</g>
<g>
</g>
<g>
</g>
<g>
</g>
<g>
</g>
<g>
</g>
<g>
</g>
<g>
</g>
<g>
</g>
<g>
</g>
<g>
</g>
<g>
</g>
</svg>
