<?xml version="1.0" encoding="iso-8859-1"?>
<!-- Generator: Adobe Illustrator 19.0.0, SVG Export Plug-In . SVG Version: 6.00 Build 0)  -->
<svg version="1.1" id="Layer_1" xmlns="http://www.w3.org/2000/svg" xmlns:xlink="http://www.w3.org/1999/xlink" x="0px" y="0px"
	 viewBox="0 0 511.987 511.987" style="enable-background:new 0 0 511.987 511.987;" xml:space="preserve">
<path style="fill:#4A89DC;" d="M501.334,245.33h-70.249l35.125-35.124c4.156-4.164,4.156-10.922,0-15.085
	c-4.172-4.164-10.938-4.164-15.094,0l-50.218,50.209H281.745l84.264-84.264h71.014c5.875,0,10.656-4.773,10.656-10.664
	s-4.781-10.664-10.656-10.664h-49.686l49.67-49.679c4.172-4.164,4.172-10.914,0-15.086c-4.172-4.164-10.922-4.164-15.078,0
	l-49.686,49.679V74.974c0-5.891-4.766-10.664-10.656-10.664s-10.656,4.773-10.656,10.664v71.006l-84.271,84.264V111.083
	l50.21-50.209c4.156-4.164,4.156-10.921,0-15.085s-10.921-4.164-15.093,0L266.66,80.913V10.664C266.66,4.773,261.887,0,255.996,0
	s-10.663,4.773-10.663,10.664v70.248l-35.125-35.124c-4.164-4.164-10.921-4.164-15.085,0s-4.164,10.921,0,15.085l50.21,50.209
	v119.162l-84.264-84.264V74.974c0-5.891-4.773-10.664-10.664-10.664s-10.672,4.773-10.672,10.664v49.679L90.061,74.974
	c-4.164-4.164-10.914-4.164-15.077,0c-4.172,4.172-4.172,10.922,0,15.086l49.67,49.679H74.976c-5.891,0-10.664,4.773-10.664,10.664
	c0,5.89,4.773,10.664,10.664,10.664h71.006l84.264,84.264H111.085l-50.21-50.209c-4.164-4.164-10.922-4.164-15.086,0
	s-4.164,10.921,0,15.085l35.124,35.124H10.665c-5.891,0-10.664,4.773-10.664,10.664s4.773,10.664,10.664,10.664h70.248
	l-35.124,35.115c-4.164,4.172-4.164,10.938,0,15.093c2.086,2.094,4.812,3.125,7.547,3.125c2.727,0,5.453-1.031,7.539-3.125
	l50.21-50.209h119.161l-84.264,84.271H74.976c-5.891,0-10.664,4.766-10.664,10.656s4.773,10.655,10.664,10.655h49.678l-49.67,49.687
	c-4.172,4.156-4.172,10.906,0,15.094c2.077,2.062,4.812,3.109,7.538,3.109c2.726,0,5.461-1.047,7.539-3.109l49.679-49.687
	l-0.008,49.687c0,5.875,4.781,10.656,10.672,10.656s10.664-4.781,10.664-10.656v-71.015l84.264-84.263v119.153l-50.21,50.217
	c-4.164,4.156-4.164,10.922,0,15.094c2.078,2.078,4.812,3.125,7.539,3.125c2.733,0,5.46-1.047,7.546-3.125l35.125-35.124v70.248
	c0,5.875,4.772,10.656,10.663,10.656c5.891,0,10.664-4.781,10.664-10.656v-70.247l35.117,35.124
	c2.094,2.078,4.812,3.125,7.562,3.125c2.719,0,5.452-1.062,7.53-3.125c4.156-4.172,4.156-10.938,0-15.094l-50.21-50.217V281.744
	l84.271,84.263v71.015c0,5.875,4.766,10.656,10.656,10.656s10.656-4.781,10.656-10.656v-49.687l49.686,49.687
	c2.078,2.062,4.812,3.109,7.531,3.109c2.734,0,5.469-1.047,7.547-3.109c4.172-4.188,4.172-10.938,0-15.094l-49.67-49.687h49.686
	c5.875,0,10.656-4.766,10.656-10.655c0-5.891-4.781-10.656-10.656-10.656h-71.014l-84.264-84.271h119.153l50.218,50.209
	c2.094,2.094,4.812,3.125,7.531,3.125c2.75,0,5.469-1.031,7.562-3.125c4.156-4.155,4.156-10.921,0-15.093l-35.125-35.116h70.249
	c5.874,0,10.655-4.773,10.655-10.664C511.986,250.104,507.208,245.33,501.334,245.33z"/>
<polygon style="fill:#5D9CEC;" points="231.449,196.44 256.136,175.473 280.745,196.526 313.025,199.159 315.557,231.448 
	336.524,256.135 315.463,280.744 312.838,313.024 280.542,315.555 255.854,336.523 231.246,315.461 198.966,312.837 
	196.442,280.541 175.474,255.853 196.528,231.244 199.153,198.964 "/>
<circle style="fill:#4A89DC;" cx="255.995" cy="255.994" r="10.664"/>
<g>
</g>
<g>
</g>
<g>
</g>
<g>
</g>
<g>
</g>
<g>
</g>
<g>
</g>
<g>
</g>
<g>
</g>
<g>
</g>
<g>
</g>
<g>
</g>
<g>
</g>
<g>
</g>
<g>
</g>
</svg>
