<?xml version="1.0" encoding="iso-8859-1"?>
<!-- Generator: Adobe Illustrator 19.0.0, SVG Export Plug-In . SVG Version: 6.00 Build 0)  -->
<svg version="1.1" id="Layer_1" xmlns="http://www.w3.org/2000/svg" xmlns:xlink="http://www.w3.org/1999/xlink" x="0px" y="0px"
	 viewBox="0 0 511.989 511.989" style="enable-background:new 0 0 511.989 511.989;" xml:space="preserve">
<g>
	<path style="fill:#7F4545;" d="M118.122,274.072l-92.521,69.389c-4.711,3.531-5.664,10.219-2.133,14.922
		c2.102,2.797,5.297,4.266,8.547,4.266c2.226,0,4.468-0.688,6.39-2.125l92.521-69.39c4.711-3.531,5.664-10.218,2.133-14.937
		C129.52,271.478,122.84,270.525,118.122,274.072z"/>
	<path style="fill:#7F4545;" d="M486.394,343.461l-91.81-68.857c-4.719-3.547-11.406-2.578-14.938,2.125
		c-3.531,4.719-2.578,11.405,2.141,14.937l91.795,68.858c1.922,1.438,4.172,2.125,6.391,2.125c3.25,0,6.452-1.469,8.546-4.266
		C492.051,353.68,491.098,346.992,486.394,343.461z"/>
</g>
<path style="fill:#CCD1D9;" d="M415.99,351.992c0-88.373-71.64-159.997-159.989-159.997c-88.365,0-159.996,71.624-159.996,159.997
	c0,88.357,71.631,159.996,159.996,159.996C344.35,511.988,415.99,440.349,415.99,351.992z"/>
<path style="fill:#E6E9ED;" d="M373.319,181.324c0-64.796-52.53-117.326-117.318-117.326c-64.803,0-117.333,52.53-117.333,117.326
	c0,64.795,52.53,117.325,117.333,117.325C320.789,298.649,373.319,246.119,373.319,181.324z"/>
<path style="fill:#FC6E51;" d="M362.663,127.997c0,0-34.812,21.5-106.638,21.5c-71.834,0-106.693-21.5-106.693-21.5L170.667,0
	h170.652L362.663,127.997z"/>
<g>
	<path style="fill:#434A54;" d="M234.666,191.995c0,5.89-4.773,10.656-10.664,10.656s-10.672-4.766-10.672-10.656
		c0-5.891,4.781-10.671,10.672-10.671C229.892,181.324,234.666,186.105,234.666,191.995z"/>
	<path style="fill:#434A54;" d="M298.665,191.995c0,5.89-4.781,10.656-10.672,10.656s-10.672-4.766-10.672-10.656
		c0-5.891,4.781-10.671,10.672-10.671S298.665,186.105,298.665,191.995z"/>
</g>
<path style="fill:#E9573F;" d="M256.001,213.323c-11.781,0-21.335,9.547-21.335,21.328c0,11.796,9.555,21.343,21.335,21.343
	c11.78,0,21.32-9.547,21.32-21.343C277.321,222.87,267.782,213.323,256.001,213.323z"/>
<path style="fill:#FC6E51;" d="M256.001,223.995c-5.891,0-10.671,4.765-10.671,10.656c0,5.89,4.781,10.671,10.671,10.671
	c5.89,0,10.664-4.781,10.664-10.671C266.665,228.76,261.891,223.995,256.001,223.995z"/>
<g>
	<path style="fill:#434A54;" d="M266.665,341.32c0,5.891-4.773,10.672-10.664,10.672s-10.671-4.781-10.671-10.672
		s4.781-10.672,10.671-10.672C261.891,330.648,266.665,335.43,266.665,341.32z"/>
	<path style="fill:#434A54;" d="M266.665,383.991c0,5.891-4.773,10.656-10.664,10.656s-10.671-4.766-10.671-10.656
		s4.781-10.672,10.671-10.672C261.891,373.319,266.665,378.1,266.665,383.991z"/>
	<path style="fill:#434A54;" d="M266.665,426.646c0,5.891-4.773,10.672-10.664,10.672s-10.671-4.781-10.671-10.672
		s4.781-10.656,10.671-10.656C261.891,415.99,266.665,420.756,266.665,426.646z"/>
</g>
<g>
	<path style="fill:#E6E9ED;" d="M330.664,435.178c-35.343,0-63.999,34.39-63.999,76.811h127.998
		C394.663,469.567,366.007,435.178,330.664,435.178z"/>
	<path style="fill:#E6E9ED;" d="M181.331,435.178c-35.343,0-63.999,34.39-63.999,76.811h127.997
		C245.33,469.567,216.682,435.178,181.331,435.178z"/>
</g>
<g>
</g>
<g>
</g>
<g>
</g>
<g>
</g>
<g>
</g>
<g>
</g>
<g>
</g>
<g>
</g>
<g>
</g>
<g>
</g>
<g>
</g>
<g>
</g>
<g>
</g>
<g>
</g>
<g>
</g>
</svg>
