<?xml version="1.0" encoding="iso-8859-1"?>
<!-- Generator: Adobe Illustrator 19.0.0, SVG Export Plug-In . SVG Version: 6.00 Build 0)  -->
<svg version="1.1" id="Layer_1" xmlns="http://www.w3.org/2000/svg" xmlns:xlink="http://www.w3.org/1999/xlink" x="0px" y="0px"
	 viewBox="0 0 511.988 511.988" style="enable-background:new 0 0 511.988 511.988;" xml:space="preserve">
<path style="fill:#E6E9ED;" d="M330.683,127.989c0,11.781-9.562,21.335-21.343,21.335H53.362c-11.781,0-21.335-9.554-21.335-21.335
	V21.335C32.027,9.546,41.581,0,53.362,0h255.979c11.78,0,21.343,9.547,21.343,21.335v106.654H330.683z"/>
<g>
	<path style="fill:#CCD1D9;" d="M266.645,0v21.335c0,5.89,4.781,10.664,10.664,10.664c5.906,0,10.672-4.773,10.672-10.664V0H266.645
		z"/>
	<path style="fill:#CCD1D9;" d="M202.655,0v21.335c0,5.89,4.773,10.664,10.664,10.664s10.664-4.773,10.664-10.664V0H202.655z"/>
	<path style="fill:#CCD1D9;" d="M138.657,0v21.335c0,5.89,4.781,10.664,10.671,10.664s10.664-4.773,10.664-10.664V0H138.657z"/>
	<path style="fill:#CCD1D9;" d="M74.666,0v21.335c0,5.89,4.773,10.664,10.664,10.664s10.664-4.774,10.664-10.664V0H74.666z"/>
</g>
<path style="fill:#ED5564;" d="M479.962,405.272c0-58.905-47.75-106.654-106.654-106.654c-1.109,0-2.219,0.016-3.328,0.062
	l-60.639-0.031V149.325H53.44V379.71c-0.047,1.406-0.078,2.844-0.078,4.25c0,70.686,57.303,127.997,127.989,127.997l192.019,0.031
	v-0.062C432.243,511.894,479.962,464.161,479.962,405.272z"/>
<path style="fill:#7F4545;" d="M390.807,510.488c50.576-8.344,89.154-52.28,89.154-105.216c0-53.499-39.406-97.811-90.779-105.467
	C370.651,329.242,325.433,418.803,390.807,510.488z"/>
<g>
	<path style="fill:#DA4453;" d="M200.382,475.989c-4.195-35.437-16.352-66.921-35.171-91.061
		c-25.585-32.812-63.178-52.858-111.771-59.624v21.562c41.413,6.344,73.303,23.499,94.841,51.062
		c20.679,26.437,28.179,58.061,30.835,79.936c1.742,14.343,1.688,26.515,1.359,34.093c0.289,0,0.578,0,0.875,0h20.484
		C202.171,503.551,202.14,490.895,200.382,475.989z"/>
	<path style="fill:#DA4453;" d="M198.499,447.959h-21.351c-5.891,0-10.664,4.78-10.664,10.671s4.773,10.672,10.664,10.672h21.351
		c5.891,0,10.664-4.781,10.664-10.672S204.39,447.959,198.499,447.959z"/>
	<path style="fill:#DA4453;" d="M177.218,402.116c5.109-2.938,6.867-9.469,3.938-14.562c-2.93-5.125-9.453-6.875-14.562-3.938l0,0
		l0,0l-18.507,10.625l0,0c-5.109,2.922-6.875,9.438-3.945,14.562c2.938,5.094,9.453,6.875,14.562,3.938c0,0,0,0,0.008,0
		L177.218,402.116z"/>
	<path style="fill:#DA4453;" d="M125.11,343.883L125.11,343.883L125.11,343.883l-16.187,13.922l0,0
		c-4.469,3.844-4.977,10.562-1.141,15.03c3.844,4.469,10.578,4.969,15.039,1.141l0,0h0.008l16.188-13.921l0,0
		c4.46-3.844,4.968-10.562,1.132-15.031C136.305,340.555,129.571,340.055,125.11,343.883z"/>
</g>
<g>
</g>
<g>
</g>
<g>
</g>
<g>
</g>
<g>
</g>
<g>
</g>
<g>
</g>
<g>
</g>
<g>
</g>
<g>
</g>
<g>
</g>
<g>
</g>
<g>
</g>
<g>
</g>
<g>
</g>
</svg>
