<?xml version="1.0" encoding="iso-8859-1"?>
<!-- Generator: Adobe Illustrator 19.0.0, SVG Export Plug-In . SVG Version: 6.00 Build 0)  -->
<svg version="1.1" id="Layer_1" xmlns="http://www.w3.org/2000/svg" xmlns:xlink="http://www.w3.org/1999/xlink" x="0px" y="0px"
	 viewBox="0 0 511.99 511.99" style="enable-background:new 0 0 511.99 511.99;" xml:space="preserve">
<path style="fill:#A0D468;" d="M479.991,106.655c0-58.905-47.75-106.654-106.654-106.654h-53.343
	c0,35.343-28.655,63.999-63.999,63.999c-35.343,0-63.999-28.656-63.999-63.999h-53.334C79.757,0.001,32,47.75,32,106.655v319.993
	h74.662v85.342h298.674v-85.342h74.655V106.655z"/>
<g>
	<rect x="426.646" y="383.995" style="fill:#FFCE54;" width="53.34" height="42.655"/>
	<path style="fill:#FFCE54;" d="M170.661,309.322c-5.891,0-10.664,4.781-10.664,10.671c0,5.891,4.773,10.656,10.664,10.656
		s10.672-4.766,10.672-10.656C181.333,314.103,176.551,309.322,170.661,309.322z"/>
	<path style="fill:#FFCE54;" d="M213.331,351.993c-5.898,0-10.671,4.766-10.671,10.656s4.773,10.671,10.671,10.671
		c5.891,0,10.664-4.781,10.664-10.671S219.223,351.993,213.331,351.993z"/>
	<path style="fill:#FFCE54;" d="M255.995,309.322c-5.891,0-10.664,4.781-10.664,10.671c0,5.891,4.773,10.656,10.664,10.656
		c5.89,0,10.664-4.766,10.664-10.656C266.659,314.103,261.886,309.322,255.995,309.322z"/>
	<path style="fill:#FFCE54;" d="M298.651,351.993c-5.875,0-10.656,4.766-10.656,10.656s4.781,10.671,10.656,10.671
		c5.906,0,10.688-4.781,10.688-10.671S304.558,351.993,298.651,351.993z"/>
	<path style="fill:#FFCE54;" d="M341.337,309.322c-5.906,0-10.687,4.781-10.687,10.671c0,5.891,4.78,10.656,10.687,10.656
		c5.875,0,10.656-4.766,10.656-10.656C351.993,314.103,347.212,309.322,341.337,309.322z"/>
	<path style="fill:#FFCE54;" d="M170.661,394.648c-5.891,0-10.664,4.781-10.664,10.672c0,5.89,4.773,10.671,10.664,10.671
		s10.672-4.781,10.672-10.671C181.333,399.43,176.551,394.648,170.661,394.648z"/>
	<path style="fill:#FFCE54;" d="M213.331,437.319c-5.898,0-10.671,4.781-10.671,10.672c0,5.89,4.773,10.655,10.671,10.655
		c5.891,0,10.664-4.766,10.664-10.655C223.995,442.1,219.223,437.319,213.331,437.319z"/>
	<path style="fill:#FFCE54;" d="M255.995,394.648c-5.891,0-10.664,4.781-10.664,10.672c0,5.89,4.773,10.671,10.664,10.671
		c5.89,0,10.664-4.781,10.664-10.671C266.659,399.43,261.886,394.648,255.995,394.648z"/>
	<path style="fill:#FFCE54;" d="M298.651,437.319c-5.875,0-10.656,4.781-10.656,10.672c0,5.89,4.781,10.655,10.656,10.655
		c5.906,0,10.688-4.766,10.688-10.655C309.339,442.1,304.558,437.319,298.651,437.319z"/>
	<path style="fill:#FFCE54;" d="M341.337,394.648c-5.906,0-10.687,4.781-10.687,10.672c0,5.89,4.78,10.671,10.687,10.671
		c5.875,0,10.656-4.781,10.656-10.671C351.993,399.43,347.212,394.648,341.337,394.648z"/>
</g>
<g>
	<path style="fill:#8CC153;" d="M106.663,159.997c0-5.891-4.773-10.671-10.664-10.671c-5.891,0-10.664,4.781-10.664,10.671v266.65
		h21.328C106.662,426.647,106.662,159.997,106.663,159.997z"/>
	<path style="fill:#8CC153;" d="M426.647,154.653c0-5.89-4.766-10.656-10.655-10.656c-5.891,0-10.656,4.766-10.656,10.656v271.994
		h21.312V154.653H426.647z"/>
</g>
<g>
	<path style="fill:#ED5564;" d="M362.649,277.323c-2.719,0-5.453-1.047-7.531-3.125l-13.781-13.797l-13.812,13.797
		c-4.156,4.172-10.906,4.172-15.062,0l-13.812-13.797l-13.781,13.797c-4.156,4.172-10.922,4.172-15.086,0l-13.788-13.797
		l-13.789,13.797c-4.164,4.172-10.922,4.172-15.086,0l-13.789-13.797l-13.796,13.797c-4.164,4.172-10.914,4.172-15.078,0
		l-13.796-13.797l-13.789,13.797c-4.164,4.172-10.922,4.172-15.086,0s-4.164-10.922,0-15.078l21.335-21.343
		c4.164-4.156,10.922-4.156,15.086,0l13.789,13.796l13.789-13.796c4.164-4.156,10.922-4.156,15.086,0l13.789,13.796l13.796-13.796
		c4.164-4.156,10.914-4.156,15.078,0l13.805,13.796l13.781-13.796c4.156-4.156,10.922-4.156,15.094,0l13.78,13.796l13.781-13.796
		c4.171-4.156,10.937-4.156,15.093,0l21.344,21.343c4.156,4.156,4.156,10.906,0,15.078
		C368.118,276.276,365.399,277.323,362.649,277.323z"/>
	<path style="fill:#ED5564;" d="M255.995,191.996c-2.828,0-5.539-1.125-7.539-3.125l-13.796-13.796l-13.789,13.796
		c-4.164,4.156-10.922,4.156-15.086,0l-13.789-13.796l-13.789,13.796c-4.164,4.156-10.922,4.156-15.086,0l-21.335-21.343
		c-4.164-4.156-4.164-10.906,0-15.078s10.922-4.172,15.086,0l13.789,13.796l13.796-13.796c4.164-4.172,10.914-4.172,15.078,0
		l13.796,13.796l13.789-13.796c4.164-4.172,10.922-4.172,15.086,0l13.789,13.797l13.789-13.796c2-2,4.711-3.125,7.555-3.125
		c2.812,0,5.531,1.125,7.531,3.125l13.781,13.796l13.812-13.796c4.155-4.172,10.905-4.172,15.062,0l13.812,13.796l13.781-13.796
		c4.156-4.172,10.922-4.172,15.094,0c4.156,4.171,4.156,10.921,0,15.078l-21.344,21.343c-4.156,4.156-10.922,4.156-15.093,0
		l-13.781-13.796l-13.78,13.796c-4.172,4.156-10.938,4.156-15.094,0l-13.781-13.796l-13.805,13.796
		C261.534,190.871,258.823,191.996,255.995,191.996z"/>
</g>
<path style="fill:#8CC153;" d="M255.995,63.999c-35.343,0-63.999-28.656-63.999-63.999h-21.335c0,22.796,8.883,44.218,24.992,60.342
	c16.124,16.11,37.545,24.985,60.342,24.985s44.218-8.875,60.342-24.984c16.109-16.125,24.999-37.546,24.999-60.342h-21.343
	C319.993,35.344,291.339,63.999,255.995,63.999z"/>
<rect x="405.336" y="383.995" style="fill:#F6BB42;" width="21.312" height="42.655"/>
<rect x="32.006" y="383.995" style="fill:#FFCE54;" width="53.33" height="42.655"/>
<rect x="85.335" y="383.995" style="fill:#F6BB42;" width="21.328" height="42.655"/>
<g>
	<path style="fill:#8CC153;" d="M127.997,501.317c-5.891,0-10.664,4.781-10.664,10.672h21.328
		C138.663,506.099,133.889,501.317,127.997,501.317z"/>
	<path style="fill:#8CC153;" d="M191.997,501.317c-5.891,0-10.664,4.781-10.664,10.672h21.328
		C202.66,506.099,197.887,501.317,191.997,501.317z"/>
	<path style="fill:#8CC153;" d="M255.995,501.317c-5.891,0-10.664,4.781-10.664,10.672h21.327
		C266.659,506.099,261.886,501.317,255.995,501.317z"/>
	<path style="fill:#8CC153;" d="M319.993,501.317c-5.891,0-10.655,4.781-10.655,10.672h21.312
		C330.65,506.099,325.885,501.317,319.993,501.317z"/>
	<path style="fill:#8CC153;" d="M383.993,501.317c-5.891,0-10.656,4.781-10.656,10.672h21.312
		C394.649,506.099,389.884,501.317,383.993,501.317z"/>
</g>
<g>
</g>
<g>
</g>
<g>
</g>
<g>
</g>
<g>
</g>
<g>
</g>
<g>
</g>
<g>
</g>
<g>
</g>
<g>
</g>
<g>
</g>
<g>
</g>
<g>
</g>
<g>
</g>
<g>
</g>
</svg>
