<?xml version="1.0" encoding="iso-8859-1"?>
<!-- Generator: Adobe Illustrator 19.0.0, SVG Export Plug-In . SVG Version: 6.00 Build 0)  -->
<svg version="1.1" id="Layer_1" xmlns="http://www.w3.org/2000/svg" xmlns:xlink="http://www.w3.org/1999/xlink" x="0px" y="0px"
	 viewBox="0 0 512 512" style="enable-background:new 0 0 512 512;" xml:space="preserve">
<g>
	<polygon style="fill:#CCD1D9;" points="3.55,469.312 87.454,420.844 135.922,504.748 	"/>
	<path style="fill:#CCD1D9;" d="M424.539,399.501l-48.451,83.936l132.355-35.468L424.539,399.501L424.539,399.501z"/>
</g>
<g>
	<path style="fill:#E6E9ED;" d="M120.703,28.579l-3.203,9.5c-0.641,1.875-15.641,46.624-26.921,99.436
		c-15.5,72.67-15.906,123.106-1.188,149.926c6.531,11.906,15.968,19.469,28.031,22.438c3.39,0.844,6.843,1.25,10.265,1.25
		c19.562,0,38.39-13.625,55.952-40.476c12.844-19.656,25.406-46.827,37.328-80.764c20.078-57.108,31.39-113.201,31.874-115.56
		l1.953-9.812L120.703,28.579z"/>
	<polygon style="fill:#E6E9ED;" points="95.017,433.906 74.392,428.406 109.672,296.753 130.266,302.284 	"/>
	<path style="fill:#E6E9ED;" d="M134.312,503.967c-0.922,0-1.828-0.125-2.766-0.375L7.909,470.468
		c-5.688-1.531-9.062-7.375-7.547-13.062c1.531-5.688,7.375-9.062,13.062-7.531L137.078,483c5.687,1.5,9.062,7.375,7.531,13.062
		C143.328,500.811,139.016,503.967,134.312,503.967z"/>
</g>
<path style="fill:#FFCE54;" d="M87.86,150.811c-12.78,65.561-12.265,111.482,1.532,136.629
	c6.531,11.906,15.968,19.469,28.031,22.438c3.39,0.844,6.843,1.25,10.265,1.25c19.562,0,38.39-13.625,55.952-40.476
	c12.844-19.656,25.406-46.827,37.328-80.764c4.672-13.296,8.875-26.546,12.578-39.077L87.86,150.811L87.86,150.811z"/>
<g>
	<path style="fill:#E6E9ED;" d="M421.102,115.015c-11.155-52.342-25.982-96.435-26.607-98.279l-3.203-9.484L257.184,43.188
		L259.153,53c0.484,2.359,11.859,58.514,31.828,115.685c11.875,33.968,24.327,61.17,37.03,80.826
		c17.39,26.93,35.999,40.585,55.312,40.585c3.891,0,7.812-0.562,11.656-1.656c11.952-3.469,21.249-11.437,27.654-23.663
		C436.977,237.34,436.445,186.966,421.102,115.015z"/>
	<polygon style="fill:#E6E9ED;" points="416.993,412.594 381.729,280.941 402.321,275.41 437.602,407.062 	"/>
	<path style="fill:#E6E9ED;" d="M377.682,482.624c-4.703,0-9.016-3.156-10.297-7.906c-1.531-5.688,1.844-11.531,7.531-13.062
		l123.653-33.124c5.688-1.531,11.53,1.844,13.062,7.531c1.532,5.687-1.844,11.531-7.562,13.062L380.447,482.25
		C379.525,482.499,378.604,482.624,377.682,482.624z"/>
</g>
<path style="fill:#FFCE54;" d="M290.98,168.686c11.875,33.968,24.327,61.17,37.03,80.826c17.39,26.93,35.999,40.585,55.312,40.585
	c3.891,0,7.812-0.562,11.656-1.656c11.952-3.469,21.249-11.437,27.654-23.663c13.344-25.547,13.812-71.03,1.406-135.294H278.434
	C282.137,142.045,286.324,155.342,290.98,168.686z"/>
<g>
</g>
<g>
</g>
<g>
</g>
<g>
</g>
<g>
</g>
<g>
</g>
<g>
</g>
<g>
</g>
<g>
</g>
<g>
</g>
<g>
</g>
<g>
</g>
<g>
</g>
<g>
</g>
<g>
</g>
</svg>
