<?xml version="1.0" ?><svg width="64px" height="64px" viewBox="0 0 64 64" xmlns="http://www.w3.org/2000/svg"><defs><style>.cls-1{fill:#965500;}.cls-2{fill:#efc589;}.cls-3{fill:#b19267;}.cls-4{fill:#2d2d2d;}.cls-5{fill:#3e2c27;}</style></defs><title/><g id="dog"><path class="cls-1" d="M25,13v4A12,12,0,0,1,13,29a6,6,0,0,1-6-6V19A12,12,0,0,1,19,7a6,6,0,0,1,5.94,5.21A5.16,5.16,0,0,1,25,13Z"/><path class="cls-1" d="M57,19v4a6,6,0,0,1-6,6A12,12,0,0,1,39,17V13a5.16,5.16,0,0,1,.06-.79A6,6,0,0,1,45,7,12,12,0,0,1,57,19Z"/><path class="cls-2" d="M53,32V49a8,8,0,0,1-8,8H19a8,8,0,0,1-8-8V32a21.84,21.84,0,0,1,.25-3.26A6,6,0,0,0,13,29,12,12,0,0,0,25,17V13a5.16,5.16,0,0,0-.06-.79,21.2,21.2,0,0,1,14.12,0A5.16,5.16,0,0,0,39,13v4A12,12,0,0,0,51,29a6,6,0,0,0,1.75-.26A21.84,21.84,0,0,1,53,32Z"/><path class="cls-3" d="M43,48v3a6,6,0,0,1-6,6H27a6,6,0,0,1-6-6V48a11,11,0,0,1,8-10.58.13.13,0,0,0,0,.06,1.49,1.49,0,0,0,.77,1.33L32,40l2.23-1.19A1.49,1.49,0,0,0,35,37.48a.13.13,0,0,0,0-.06A11,11,0,0,1,43,48Z"/><circle class="cls-4" cx="23.5" cy="29.5" r="1.5"/><circle class="cls-4" cx="40.5" cy="29.5" r="1.5"/><path class="cls-5" d="M32,52a1,1,0,0,1-1-1V39a1,1,0,0,1,2,0V51A1,1,0,0,1,32,52Z"/><path class="cls-5" d="M35,37.48a1.49,1.49,0,0,1-.77,1.33L32,40l-2.23-1.19A1.49,1.49,0,0,1,29,37.48a.13.13,0,0,1,0-.06A1.42,1.42,0,0,1,30.39,36h3.22A1.42,1.42,0,0,1,35,37.42.13.13,0,0,1,35,37.48Z"/></g></svg>