<?xml version="1.0" ?><svg width="64px" height="64px" viewBox="0 0 64 64" xmlns="http://www.w3.org/2000/svg"><defs><style>.cls-1{fill:#87868a;}.cls-2{fill:#646467;}.cls-3{fill:#2d2d2d;}.cls-4{fill:#d8d9dd;}.cls-5{fill:#434347;}</style></defs><title/><g id="hippopotamus"><path class="cls-1" d="M57,41c0,7.39-5.74,11.62-13,12-.33,0-.66,0-1,0a13.83,13.83,0,0,1-5-.92l-.07,0a16.19,16.19,0,0,0-11.86,0l-.07,0A13.83,13.83,0,0,1,21,53c-.34,0-.67,0-1,0-7.26-.35-13-4.58-13-12,0-5.18,2.81-7.7,7-10.12V24.5A17.49,17.49,0,0,1,43,11.33c.3.26.58.52.86.8a17.64,17.64,0,0,1,2.89,3.81A17.34,17.34,0,0,1,49,24.5v5.85C53.73,32.6,57,35.42,57,41Z"/><path class="cls-2" d="M20.91,10.58A17.34,17.34,0,0,0,16.21,16a4.5,4.5,0,1,1,4.7-5.41Z"/><circle class="cls-3" cx="23.5" cy="20.5" r="1.5"/><circle class="cls-3" cx="40.5" cy="20.5" r="1.5"/><path class="cls-2" d="M52,11.5a4.51,4.51,0,0,1-5.24,4.44,17.64,17.64,0,0,0-2.89-3.81c-.28-.28-.56-.54-.86-.8a4.5,4.5,0,0,1,9,.17Z"/><path class="cls-4" d="M26,52.08V56a1,1,0,0,1-1,1H21a1,1,0,0,1-1-1V53c.33,0,.66,0,1,0A13.83,13.83,0,0,0,26,52.08Z"/><path class="cls-4" d="M44,53v3a1,1,0,0,1-1,1H39a1,1,0,0,1-1-1V52.08A13.83,13.83,0,0,0,43,53C43.34,53,43.67,53,44,53Z"/><circle class="cls-5" cx="18.5" cy="41.5" r="2.5"/><circle class="cls-5" cx="45.5" cy="41.5" r="2.5"/></g></svg>