<?xml version="1.0" ?><svg width="64px" height="64px" viewBox="0 0 64 64" xmlns="http://www.w3.org/2000/svg"><defs><style>.cls-1{fill:#703f00;}.cls-2{fill:#965500;}.cls-3{fill:#2d2d2d;}.cls-4{fill:#3e2c27;}</style></defs><title/><g id="horse"><path class="cls-1" d="M21,51H43a0,0,0,0,1,0,0v4a6,6,0,0,1-6,6H27a6,6,0,0,1-6-6V51A0,0,0,0,1,21,51Z"/><path class="cls-1" d="M24,11.91A14,14,0,0,0,16.88,18a12.49,12.49,0,0,1-4-6.76L11,3a14,14,0,0,1,13,8.91Z"/><path class="cls-2" d="M49,25h0a45.38,45.38,0,0,1-2.11,13.68L43,51H21L17.11,38.68A45.38,45.38,0,0,1,15,25h0a13.85,13.85,0,0,1,1.88-7A14,14,0,0,1,24,11.91,13.49,13.49,0,0,1,28.21,11L29,15h6l.79-4a13.49,13.49,0,0,1,4.17.88A14,14,0,0,1,47.12,18,13.85,13.85,0,0,1,49,25Z"/><circle class="cls-3" cx="41.5" cy="29.5" r="1.5"/><circle class="cls-3" cx="22.5" cy="29.5" r="1.5"/><path class="cls-1" d="M53,3l-1.83,8.24A12.49,12.49,0,0,1,47.12,18,14,14,0,0,0,40,11.91,14,14,0,0,1,53,3Z"/><path class="cls-4" d="M36.52,7.39,35.79,11,35,15H29l-.79-4-.73-3.64a2,2,0,0,1,2-2.39h5.12A2,2,0,0,1,36.52,7.39Z"/><path class="cls-4" d="M27,58a1,1,0,0,1-1-1V55a1,1,0,0,1,2,0v2A1,1,0,0,1,27,58Z"/><path class="cls-4" d="M37,58a1,1,0,0,1-1-1V55a1,1,0,0,1,2,0v2A1,1,0,0,1,37,58Z"/></g></svg>