<?xml version="1.0" ?><svg width="64px" height="64px" viewBox="0 0 64 64" xmlns="http://www.w3.org/2000/svg"><defs><style>.cls-1{fill:#703f00;}.cls-2{fill:#eaeaea;}.cls-3{fill:#3e2c27;}.cls-4{fill:#965500;}.cls-5{fill:#2d2d2d;}</style></defs><title/><g id="walrus"><path class="cls-1" d="M32.18,59h0A19.77,19.77,0,0,1,12.46,37.87l1.35-15.56A18.58,18.58,0,0,1,32.35,5h0A18.59,18.59,0,0,1,50.91,22.63l1,15.58A19.77,19.77,0,0,1,32.18,59Z"/><path class="cls-2" d="M27.72,37.81,26.15,53.54a1.62,1.62,0,0,1-3.23-.08L22.1,37"/><path class="cls-2" d="M36.28,37.81l1.57,15.73a1.62,1.62,0,0,0,3.23-.08L41.9,37"/><path class="cls-3" d="M35,23a1.4,1.4,0,0,1-.77,1.24L32,25.38l-2.23-1.12A1.4,1.4,0,0,1,29,23a1.14,1.14,0,0,1,.07-.41,1.37,1.37,0,0,1,1.32-1h3.22a1.37,1.37,0,0,1,1.32,1A1.14,1.14,0,0,1,35,23Z"/><path class="cls-4" d="M46,30a8,8,0,0,1-8,8,7.5,7.5,0,0,1-1.72-.19A8,8,0,0,1,32,35.29a8,8,0,0,1-4.28,2.52A7.5,7.5,0,0,1,26,38a8,8,0,0,1-8-8,8,8,0,0,1,11.07-7.39A1.14,1.14,0,0,0,29,23a1.4,1.4,0,0,0,.77,1.24L32,25.38l2.23-1.12A1.4,1.4,0,0,0,35,23a1.14,1.14,0,0,0-.07-.41A8,8,0,0,1,46,30Z"/><circle class="cls-5" cx="25.5" cy="17.5" r="1.5"/><circle class="cls-5" cx="38.5" cy="17.5" r="1.5"/></g></svg>